<?xml version="1.0" encoding="UTF-8" standalone="no"?>
<!-- Created with Inkscape (http://www.inkscape.org/) -->

<svg
   xmlns:dc="http://purl.org/dc/elements/1.1/"
   xmlns:cc="http://creativecommons.org/ns#"
   xmlns:rdf="http://www.w3.org/1999/02/22-rdf-syntax-ns#"
   xmlns:svg="http://www.w3.org/2000/svg"
   xmlns="http://www.w3.org/2000/svg"
   xmlns:xlink="http://www.w3.org/1999/xlink"
   xmlns:sodipodi="http://sodipodi.sourceforge.net/DTD/sodipodi-0.dtd"
   xmlns:inkscape="http://www.inkscape.org/namespaces/inkscape"
   width="128"
   height="128"
   id="svg2"
   version="1.1"
   inkscape:version="0.47 r22583"
   sodipodi:docname="islamic-menus.svg">
  <defs
     id="defs4">
    <linearGradient
       id="linearGradient3590">
      <stop
         style="stop-color:#c5ff00;stop-opacity:1;"
         offset="0"
         id="stop3592" />
      <stop
         style="stop-color:#007d00;stop-opacity:1;"
         offset="1"
         id="stop3594" />
    </linearGradient>
    <inkscape:perspective
       sodipodi:type="inkscape:persp3d"
       inkscape:vp_x="0 : 526.18109 : 1"
       inkscape:vp_y="0 : 1000 : 0"
       inkscape:vp_z="744.09448 : 526.18109 : 1"
       inkscape:persp3d-origin="372.04724 : 350.78739 : 1"
       id="perspective10" />
    <radialGradient
       inkscape:collect="always"
       xlink:href="#linearGradient3590"
       id="radialGradient3596"
       cx="69.913361"
       cy="38.741215"
       fx="69.913361"
       fy="38.741215"
       r="57.836987"
       gradientUnits="userSpaceOnUse"
       gradientTransform="matrix(1.3713225,2.0169422e-8,-1.7232786e-8,1.1716601,-25.960404,-6.6503233)" />
  </defs>
  <sodipodi:namedview
     id="base"
     pagecolor="#ffffff"
     bordercolor="#666666"
     borderopacity="1.0"
     inkscape:pageopacity="0.0"
     inkscape:pageshadow="2"
     inkscape:zoom="5.8658653"
     inkscape:cx="64.000002"
     inkscape:cy="63.99999"
     inkscape:document-units="px"
     inkscape:current-layer="layer1"
     showgrid="false"
     inkscape:window-width="1280"
     inkscape:window-height="975"
     inkscape:window-x="0"
     inkscape:window-y="25"
     inkscape:window-maximized="1" />
  <metadata
     id="metadata7">
    <rdf:RDF>
      <cc:Work
         rdf:about="">
        <dc:format>image/svg+xml</dc:format>
        <dc:type
           rdf:resource="http://purl.org/dc/dcmitype/StillImage" />
        <dc:title></dc:title>
      </cc:Work>
    </rdf:RDF>
  </metadata>
  <g
     inkscape:label="Layer 1"
     inkscape:groupmode="layer"
     id="layer1"
     transform="translate(0,-924.36218)">
    <path
       sodipodi:type="arc"
       style="fill:url(#radialGradient3596);fill-rule:evenodd;stroke:none;stroke-width:1px;stroke-linecap:butt;stroke-linejoin:miter;stroke-opacity:1;fill-opacity:1"
       id="path2816"
       sodipodi:cx="56.284931"
       sodipodi:cy="58.564384"
       sodipodi:rx="57.336987"
       sodipodi:ry="57.336987"
       d="m 113.62192,58.564384 a 57.336987,57.336987 0 1 1 -114.6739754,0 57.336987,57.336987 0 1 1 114.6739754,0 z"
       transform="matrix(1.0852403,0,0,1.0852403,2.9173261,924.80576)" />
    <path
       sodipodi:type="inkscape:offset"
       inkscape:radius="2.0739524"
       inkscape:original="M 64 12.4375 L 48.90625 27.53125 L 27.53125 27.53125 L 27.53125 48.90625 L 12.4375 64 L 27.53125 79.09375 L 27.53125 100.46875 L 48.90625 100.46875 L 64 115.5625 L 79.09375 100.46875 L 100.46875 100.46875 L 100.46875 79.09375 L 115.5625 64 L 100.46875 48.90625 L 100.46875 27.53125 L 79.09375 27.53125 L 64 12.4375 z M 64 23.5625 L 75.59375 35.40625 L 92 35.40625 L 92 52.15625 L 103.5625 64 L 92 75.84375 L 92 92.59375 L 75.59375 92.59375 L 64 104.4375 L 52.40625 92.59375 L 36 92.59375 L 36 75.84375 L 24.4375 64 L 36 52.15625 L 36 35.40625 L 52.40625 35.40625 L 64 23.5625 z "
       style="fill:#808000;fill-opacity:0.43881857;stroke:none"
       id="path3633"
       d="m 63.75,10.375 a 2.0741598,2.0741598 0 0 0 -1.21875,0.59375 l -14.5,14.5 -20.5,0 a 2.0741598,2.0741598 0 0 0 -2.0625,2.0625 l 0,20.5 -14.5,14.5 a 2.0741598,2.0741598 0 0 0 0,2.9375 l 14.5,14.5 0,20.5 a 2.0741598,2.0741598 0 0 0 2.0625,2.0625 l 20.5,0 14.5,14.5 a 2.0741598,2.0741598 0 0 0 2.9375,0 l 14.5,-14.5 20.5,0 a 2.0741598,2.0741598 0 0 0 2.0625,-2.0625 l 0,-20.5 14.5,-14.5 a 2.0741598,2.0741598 0 0 0 0,-2.9375 l -14.5,-14.5 0,-20.5 a 2.0741598,2.0741598 0 0 0 -2.0625,-2.0625 l -20.5,0 -14.5,-14.5 A 2.0741598,2.0741598 0 0 0 63.75,10.375 z M 64,26.5 74.125,36.84375 a 2.0741598,2.0741598 0 0 0 1.46875,0.625 l 14.34375,0 0,14.6875 a 2.0741598,2.0741598 0 0 0 0.59375,1.4375 L 100.6875,64 90.53125,74.40625 a 2.0741598,2.0741598 0 0 0 -0.59375,1.4375 l 0,14.6875 -14.34375,0 a 2.0741598,2.0741598 0 0 0 -1.46875,0.625 L 64,101.5 53.875,91.15625 a 2.0741598,2.0741598 0 0 0 -1.46875,-0.625 l -14.34375,0 0,-14.6875 a 2.0741598,2.0741598 0 0 0 -0.59375,-1.4375 L 27.3125,64 37.46875,53.59375 a 2.0741598,2.0741598 0 0 0 0.59375,-1.4375 l 0,-14.6875 14.34375,0 a 2.0741598,2.0741598 0 0 0 1.46875,-0.625 L 64,26.5 z"
       transform="translate(0,924.36218)" />
    <path
       style="fill:#f1ff00;stroke:none;fill-opacity:1"
       d="M 64 12.4375 L 48.90625 27.53125 L 27.53125 27.53125 L 27.53125 48.90625 L 12.4375 64 L 27.53125 79.09375 L 27.53125 100.46875 L 48.90625 100.46875 L 64 115.5625 L 79.09375 100.46875 L 100.46875 100.46875 L 100.46875 79.09375 L 115.5625 64 L 100.46875 48.90625 L 100.46875 27.53125 L 79.09375 27.53125 L 64 12.4375 z M 64 23.5625 L 75.59375 35.40625 L 92 35.40625 L 92 52.15625 L 103.5625 64 L 92 75.84375 L 92 92.59375 L 75.59375 92.59375 L 64 104.4375 L 52.40625 92.59375 L 36 92.59375 L 36 75.84375 L 24.4375 64 L 36 52.15625 L 36 35.40625 L 52.40625 35.40625 L 64 23.5625 z "
       transform="translate(0,924.36218)"
       id="rect3598" />
  </g>
</svg>
