<?xml version="1.0" encoding="UTF-8" standalone="no"?>
<svg
   xmlns:dc="http://purl.org/dc/elements/1.1/"
   xmlns:cc="http://creativecommons.org/ns#"
   xmlns:rdf="http://www.w3.org/1999/02/22-rdf-syntax-ns#"
   xmlns:svg="http://www.w3.org/2000/svg"
   xmlns="http://www.w3.org/2000/svg"
   xmlns:xlink="http://www.w3.org/1999/xlink"
   xmlns:sodipodi="http://sodipodi.sourceforge.net/DTD/sodipodi-0.dtd"
   xmlns:inkscape="http://www.inkscape.org/namespaces/inkscape"
   viewBox="0 0 96 96"
   id="svg2"
   version="1.1"
   inkscape:version="0.48.4 r9939"
   width="100%"
   height="100%"
   sodipodi:docname="bluetooth.svg">
  <metadata
     id="metadata39">
    <rdf:RDF>
      <cc:Work
         rdf:about="">
        <dc:format>image/svg+xml</dc:format>
        <dc:type
           rdf:resource="http://purl.org/dc/dcmitype/StillImage" />
      </cc:Work>
    </rdf:RDF>
  </metadata>
  <sodipodi:namedview
     pagecolor="#ffffff"
     bordercolor="#666666"
     borderopacity="1"
     objecttolerance="10"
     gridtolerance="10"
     guidetolerance="10"
     inkscape:pageopacity="0"
     inkscape:pageshadow="2"
     inkscape:window-width="640"
     inkscape:window-height="480"
     id="namedview37"
     showgrid="false"
     inkscape:zoom="2.4583333"
     inkscape:cx="48"
     inkscape:cy="48"
     inkscape:window-x="106"
     inkscape:window-y="82"
     inkscape:window-maximized="0"
     inkscape:current-layer="svg2" />
  <defs
     id="defs4">
    <filter
       id="filter3174-6">
      <feGaussianBlur
         stdDeviation="1.71"
         id="feGaussianBlur7" />
    </filter>
    <linearGradient
       gradientTransform="matrix(0.96179,0,0,2.11089,1.83416,934.41518)"
       gradientUnits="userSpaceOnUse"
       id="linearGradient3197"
       x1="55.1439"
       x2="47.3628"
       y1="13.1091"
       y2="33.5999">
      <stop
         offset="0"
         stop-color="#fff"
         id="stop10" />
      <stop
         offset="1"
         stop-color="#fff"
         stop-opacity="0"
         id="stop12" />
    </linearGradient>
    <linearGradient
       gradientUnits="userSpaceOnUse"
       id="ButtonShadow-6"
       x2="0"
       y1="92"
       y2="6.9756">
      <stop
         offset="0"
         id="stop15" />
      <stop
         offset="1"
         stop-opacity=".588"
         id="stop17" />
    </linearGradient>
    <radialGradient
       cx="63.969"
       cy="14.113"
       gradientTransform="matrix(1.5647,-9.5143e-8,6.1772e-8,1.0159,-86.213,8.1461)"
       gradientUnits="userSpaceOnUse"
       id="radialGradient4154-0-1"
       r="23.097">
      <stop
         offset="0"
         stop-color="#1d95ce"
         id="stop20" />
      <stop
         offset=".4"
         stop-color="#1d95ce"
         id="stop22" />
      <stop
         offset="1"
         stop-color="#143d8d"
         id="stop24" />
    </radialGradient>
    <radialGradient
       cx="28.2041"
       cy="-.322"
       gradientTransform="matrix(4.67845,5.1067271e-8,-4.5897343e-8,4.20482,-84.44966,976.03941)"
       gradientUnits="userSpaceOnUse"
       id="radialGradient3206"
       r="23.097"
       xlink:href="#radialGradient4154-0-1" />
  </defs>
  <g
     transform="translate(0,-956.3622)"
     id="g27">
    <path
       d="m 13.0505,963.5905 h 69.8991 a 5.8249,5.8249 0 0 1 5.8249,5.8249 v 69.9216 a 5.8249,5.8249 0 0 1 -5.8249,5.8249 H 13.0505 a 5.8249,5.8249 0 0 1 -5.8249,-5.8249 v -69.9216 a 5.8249,5.8249 0 0 1 5.8249,-5.8249"
       id="path29"
       style="fill:url(#radialGradient3206)"
       inkscape:connector-curvature="0" />
    <path
       d="m 16.8899,963.5625 71.789,66.327 0.0854,-60.2405 c 0.0046,-3.2105 -2.3965,-6.0418 -5.5935,-6.0438 z"
       id="path31"
       style="opacity:0.34800002;fill:url(#linearGradient3197)"
       inkscape:connector-curvature="0" />
    <path
       d="m 44.9329,977.096 v 21.6 l -9.121,-9.121 -3.2672,3.3126 11.163,11.163 -11.2538,11.2538 3.3126,3.2672 9.1664,-9.1664 v 21.6908 l 16.2,-16.2 -10.9815,-10.9815 10.9361,-10.8908 -16.1546,-15.9277 z m 4.2202,10.3462 5.5815,5.6723 -5.5815,5.5815 v -11.2538 z m 0,21.5546 5.5815,5.7177 -5.5815,5.5815 v -11.2992 z"
       id="path33"
       inkscape:connector-curvature="0"
       style="opacity:0.41100003;fill:none;stroke:#00386e;stroke-width:2.4000001" />
    <path
       d="m 44.9329,977.096 v 21.6 l -9.121,-9.121 -3.2672,3.3126 11.163,11.163 -11.2538,11.2538 3.3126,3.2672 9.1664,-9.1664 v 21.6908 l 16.2,-16.2 -10.9815,-10.9815 10.9361,-10.8908 -16.1546,-15.9277 z m 4.2202,10.3462 5.5815,5.6723 -5.5815,5.5815 v -11.2538 z m 0,21.5546 5.5815,5.7177 -5.5815,5.5815 v -11.2992 z"
       id="path35"
       inkscape:connector-curvature="0"
       style="fill:#ffffff;fill-rule:evenodd" />
  </g>
</svg>
