<?xml version="1.0" encoding="UTF-8" standalone="no"?>
<svg
   xmlns:dc="http://purl.org/dc/elements/1.1/"
   xmlns:cc="http://creativecommons.org/ns#"
   xmlns:rdf="http://www.w3.org/1999/02/22-rdf-syntax-ns#"
   xmlns:svg="http://www.w3.org/2000/svg"
   xmlns="http://www.w3.org/2000/svg"
   xmlns:xlink="http://www.w3.org/1999/xlink"
   xmlns:sodipodi="http://sodipodi.sourceforge.net/DTD/sodipodi-0.dtd"
   xmlns:inkscape="http://www.inkscape.org/namespaces/inkscape"
   viewBox="0 0 96 96"
   id="svg2"
   version="1.1"
   inkscape:version="0.48.4 r9939"
   width="100%"
   height="100%"
   sodipodi:docname="fonts-download.svg">
  <metadata
     id="metadata181">
    <rdf:RDF>
      <cc:Work
         rdf:about="">
        <dc:format>image/svg+xml</dc:format>
        <dc:type
           rdf:resource="http://purl.org/dc/dcmitype/StillImage" />
      </cc:Work>
    </rdf:RDF>
  </metadata>
  <sodipodi:namedview
     pagecolor="#ffffff"
     bordercolor="#666666"
     borderopacity="1"
     objecttolerance="10"
     gridtolerance="10"
     guidetolerance="10"
     inkscape:pageopacity="0"
     inkscape:pageshadow="2"
     inkscape:window-width="640"
     inkscape:window-height="480"
     id="namedview179"
     showgrid="false"
     inkscape:zoom="2.4583333"
     inkscape:cx="48"
     inkscape:cy="48"
     inkscape:window-x="65"
     inkscape:window-y="24"
     inkscape:window-maximized="0"
     inkscape:current-layer="svg2" />
  <defs
     id="defs4">
    <clipPath
       id="clipPath4355">
      <path
         d="m12,6h72a6,6 0 0,1 6,6v68a6,6 0 0,1 -6,6h-72a6,6 0 0,1 -6-6v-68a6,6 0 0,1 6-6"
         id="path7" />
    </clipPath>
    <clipPath
       id="clipPath3823">
      <path
         d="m108.8125,58c-1.5581,0-2.8125,1.2544-2.8125,2.8125v24.375c0,1.5581 1.2544,2.8125 2.8125,2.8125h24.375c1.5581,0 2.8125-1.2544 2.8125-2.8125v-24.375c0-1.5581-1.2544-2.8125-2.8125-2.8125h-24.375zm7.1875,4.5h10v8.75h5l-10,13.75-10-13.75h5v-8.75z"
         id="path10" />
    </clipPath>
    <clipPath
       id="clipPath3613-2">
      <path
         d="m12,6h72a6,6 0 0,1 6,6v72a6,6 0 0,1 -6,6h-72a6,6 0 0,1 -6-6v-72a6,6 0 0,1 6-6"
         id="path13" />
    </clipPath>
    <filter
       id="filter3174-6">
      <feGaussianBlur
         stdDeviation="1.71"
         id="feGaussianBlur16" />
    </filter>
    <filter
       id="filter3831">
      <feGaussianBlur
         stdDeviation=".637"
         id="feGaussianBlur19" />
    </filter>
    <filter
       id="filter3806">
      <feGaussianBlur
         stdDeviation="1.2"
         id="feGaussianBlur22" />
    </filter>
    <filter
       height="1.384"
       id="filter3794-9"
       width="1.384"
       x="-.192"
       y="-.192">
      <feGaussianBlur
         stdDeviation="5.28"
         id="feGaussianBlur25" />
    </filter>
    <linearGradient
       id="linearGradient4013">
      <stop
         offset="0"
         stop-color="#fff"
         id="stop28" />
      <stop
         offset="1"
         stop-color="#fff"
         stop-opacity="0"
         id="stop30" />
    </linearGradient>
    <linearGradient
       gradientUnits="userSpaceOnUse"
       id="ButtonShadow-6"
       x2="0"
       y1="92"
       y2="6.9756">
      <stop
         offset="0"
         id="stop33" />
      <stop
         offset="1"
         stop-opacity=".588"
         id="stop35" />
    </linearGradient>
    <linearGradient
       gradientUnits="userSpaceOnUse"
       id="linearGradient6349"
       x2="0"
       y1="184.063"
       y2="142.4344">
      <stop
         offset="0"
         stop-color="#fff"
         stop-opacity=".18"
         id="stop38" />
      <stop
         offset="1"
         stop-color="#fff"
         stop-opacity=".3"
         id="stop40" />
    </linearGradient>
    <linearGradient
       gradientUnits="userSpaceOnUse"
       id="linearGradient3812"
       x2="0"
       y1="72.3783"
       y2="63.5428">
      <stop
         offset="0"
         id="stop43" />
      <stop
         offset="1"
         stop-opacity="0"
         id="stop45" />
    </linearGradient>
    <linearGradient
       gradientUnits="userSpaceOnUse"
       id="linearGradient3773"
       x1="-88"
       x2="-58">
      <stop
         offset="0"
         stop-color="#499119"
         id="stop48" />
      <stop
         offset="1"
         stop-color="#8fd625"
         id="stop50" />
    </linearGradient>
    <linearGradient
       gradientTransform="matrix(.9297,.3684,-.3684,.9297,-479.9193,-252.3611)"
       gradientUnits="userSpaceOnUse"
       id="SVGID_8_"
       x2="0"
       y1="150.1484"
       y2="142.143">
      <stop
         offset="0"
         stop-color="#fff"
         id="stop53" />
      <stop
         offset="1"
         stop-color="#dadada"
         id="stop55" />
    </linearGradient>
    <linearGradient
       gradientTransform="matrix(0.96179,0,0,2.11089,1.83416,934.41518)"
       gradientUnits="userSpaceOnUse"
       id="linearGradient3197"
       x1="55.1439"
       x2="47.3628"
       xlink:href="#linearGradient4013"
       y1="13.1091"
       y2="33.5999" />
    <linearGradient
       gradientTransform="matrix(.9297,.3684,-.3684,.9297,-479.9193,-252.3611)"
       gradientUnits="userSpaceOnUse"
       id="linearGradient6347"
       x2="0"
       xlink:href="#SVGID_8_"
       y1="150.1484"
       y2="142.143" />
    <linearGradient
       gradientUnits="userSpaceOnUse"
       id="linearGradient9165"
       x2="0"
       xlink:href="#ButtonShadow-6"
       y1="92"
       y2="6.9756" />
    <linearGradient
       gradientUnits="userSpaceOnUse"
       id="linearGradient9247"
       x2="0"
       xlink:href="#linearGradient4013"
       y1="20.2208"
       y2="138.6612" />
    <linearGradient
       gradientUnits="userSpaceOnUse"
       id="linearGradient3788"
       x2="0"
       xlink:href="#linearGradient4013"
       y1="58"
       y2="79.095" />
    <linearGradient
       gradientUnits="userSpaceOnUse"
       id="linearGradient3832"
       x2="0"
       xlink:href="#linearGradient4013"
       y1="71.3783"
       y2="62.5428" />
    <radialGradient
       cx="63.969"
       cy="14.113"
       gradientTransform="matrix(1.5647,-9.5143e-8,6.1772e-8,1.0159,-86.213,8.1461)"
       gradientUnits="userSpaceOnUse"
       id="radialGradient16213"
       r="23.097">
      <stop
         offset="0"
         stop-color="#2d741c"
         id="stop64" />
      <stop
         offset=".4"
         stop-color="#2d741c"
         id="stop66" />
      <stop
         offset="1"
         stop-color="#205414"
         id="stop68" />
    </radialGradient>
    <radialGradient
       cx="29.0949"
       cy="31.6017"
       gradientUnits="userSpaceOnUse"
       id="radialGradient3301"
       r="7.2449">
      <stop
         offset="0"
         stop-color="#ffe375"
         id="stop71" />
      <stop
         offset="1"
         stop-color="#ffa600"
         id="stop73" />
    </radialGradient>
    <radialGradient
       cx="32"
       cy="32"
       gradientUnits="userSpaceOnUse"
       id="radialGradient3299"
       r="8">
      <stop
         offset="0"
         stop-color="#ffb800"
         id="stop76" />
      <stop
         offset="1"
         stop-color="#ffb800"
         stop-opacity="0"
         id="stop78" />
    </radialGradient>
    <radialGradient
       cx="29.0949"
       cy="31.6017"
       gradientUnits="userSpaceOnUse"
       id="radialGradient4385"
       r="7.2449">
      <stop
         offset="0"
         stop-color="#84ffff"
         id="stop81" />
      <stop
         offset="1"
         stop-color="#0ff"
         id="stop83" />
    </radialGradient>
    <radialGradient
       cx="32"
       cy="32"
       gradientUnits="userSpaceOnUse"
       id="radialGradient4383"
       r="8">
      <stop
         offset="0"
         stop-color="#0ff"
         id="stop86" />
      <stop
         offset=".5"
         stop-color="#0ff"
         stop-opacity=".271"
         id="stop88" />
      <stop
         offset="1"
         stop-color="#0ff"
         stop-opacity="0"
         id="stop90" />
    </radialGradient>
    <radialGradient
       cx="29.0949"
       cy="31.6017"
       gradientUnits="userSpaceOnUse"
       id="radialGradient4343"
       r="7.2449">
      <stop
         offset="0"
         stop-color="#f17000"
         id="stop93" />
      <stop
         offset="1"
         stop-color="#f12d00"
         id="stop95" />
    </radialGradient>
    <radialGradient
       cx="32"
       cy="32"
       gradientUnits="userSpaceOnUse"
       id="radialGradient4341"
       r="8">
      <stop
         offset="0"
         stop-color="#ff430a"
         id="stop98" />
      <stop
         offset=".5"
         stop-color="#d44f00"
         stop-opacity=".279"
         id="stop100" />
      <stop
         offset="1"
         stop-color="#d40000"
         stop-opacity="0"
         id="stop102" />
    </radialGradient>
    <radialGradient
       cx="29.0949"
       cy="31.6017"
       gradientUnits="userSpaceOnUse"
       id="radialGradient4339"
       r="7.2449">
      <stop
         offset="0"
         stop-color="#a07ada"
         id="stop105" />
      <stop
         offset="1"
         stop-color="#7137c8"
         id="stop107" />
    </radialGradient>
    <radialGradient
       cx="32"
       cy="32"
       gradientUnits="userSpaceOnUse"
       id="radialGradient4337"
       r="8">
      <stop
         offset="0"
         stop-color="#7137c8"
         id="stop110" />
      <stop
         offset="1"
         stop-color="#7137c8"
         stop-opacity="0"
         id="stop112" />
    </radialGradient>
    <radialGradient
       cx="29.0949"
       cy="31.6017"
       gradientUnits="userSpaceOnUse"
       id="radialGradient4327"
       r="7.2449">
      <stop
         offset="0"
         stop-color="#ffacee"
         id="stop115" />
      <stop
         offset="1"
         stop-color="#f5d"
         id="stop117" />
    </radialGradient>
    <radialGradient
       cx="32"
       cy="32"
       gradientUnits="userSpaceOnUse"
       id="radialGradient4325"
       r="8">
      <stop
         offset="0"
         stop-color="#f5d"
         id="stop120" />
      <stop
         offset="1"
         stop-color="#f5d"
         stop-opacity="0"
         id="stop122" />
    </radialGradient>
    <radialGradient
       cx="29.0949"
       cy="31.6017"
       gradientUnits="userSpaceOnUse"
       id="radialGradient4323"
       r="7.2449">
      <stop
         offset="0"
         stop-color="#65ff65"
         id="stop125" />
      <stop
         offset="1"
         stop-color="#47d900"
         id="stop127" />
    </radialGradient>
    <radialGradient
       cx="32"
       cy="32"
       gradientUnits="userSpaceOnUse"
       id="radialGradient4321"
       r="8">
      <stop
         offset="0"
         stop-color="#6dd500"
         id="stop130" />
      <stop
         offset=".5"
         stop-color="#67df00"
         stop-opacity=".364"
         id="stop132" />
      <stop
         offset="1"
         stop-color="#62e900"
         stop-opacity="0"
         id="stop134" />
    </radialGradient>
    <radialGradient
       cx="28.2041"
       cy="-.322"
       gradientTransform="matrix(4.67845,5.1067271e-8,-4.5897343e-8,4.20482,-84.44966,976.02541)"
       gradientUnits="userSpaceOnUse"
       id="radialGradient3206"
       r="23.097"
       xlink:href="#radialGradient16213" />
  </defs>
  <g
     transform="translate(0,-956.3622)"
     id="g137">
    <path
       d="m 13.0505,963.5765 h 69.8991 a 5.8249,5.8249 0 0 1 5.8249,5.8249 v 69.9216 a 5.8249,5.8249 0 0 1 -5.8249,5.8249 H 13.0505 a 5.8249,5.8249 0 0 1 -5.8249,-5.8249 v -69.9216 a 5.8249,5.8249 0 0 1 5.8249,-5.8249"
       id="path139"
       style="fill:url(#radialGradient3206)"
       inkscape:connector-curvature="0" />
    <path
       d="m 16.8899,963.5625 71.789,66.327 0.0854,-60.2405 c 0.0046,-3.2105 -2.3965,-6.0418 -5.5935,-6.0438 z"
       id="path141"
       style="opacity:0.34800002;fill:url(#linearGradient3197)"
       inkscape:connector-curvature="0" />
    <text
       font-size="20"
       letter-spacing="0"
       word-spacing="0"
       x="265.15491"
       xml:space="preserve"
       y="1019.1274"
       id="text143"
       style="font-size:20px;letter-spacing:0;word-spacing:0;font-family:Justus"><tspan
         x="265.15491"
         y="1019.1274"
         id="tspan145" /></text>
    <text
       font-size="20"
       letter-spacing="0"
       word-spacing="0"
       x="47.3508"
       xml:space="preserve"
       y="492.37259"
       id="text147"
       style="font-size:20px;letter-spacing:0;word-spacing:0;font-family:Justus"><tspan
         x="47.3508"
         y="492.37259"
         id="tspan149" /></text>
    <text
       font-size="20"
       letter-spacing="0"
       word-spacing="0"
       x="95.509499"
       xml:space="preserve"
       y="1185.3373"
       id="text151"
       style="font-size:20px;letter-spacing:0;word-spacing:0;font-family:Justus"><tspan
         x="95.509499"
         y="1185.3373"
         id="tspan153" /></text>
    <g
       transform="translate(-2.6062,0.2896)"
       id="g155"
       style="opacity:0.41100003;fill:#3a2222;stroke:#3a2222;stroke-width:2.4000001">
      <text
         font-size="48.241"
         font-style="italic"
         transform="scale(0.902,1.109)"
         x="34.455299"
         xml:space="preserve"
         y="923.53308"
         id="text157"
         style="font-size:48.24100113px;font-style:italic;fill:#3a2222;stroke:#3a2222;stroke-width:2.4000001;font-family:DejaVu Serif"><tspan
           x="34.455299"
           y="923.53308"
           id="tspan159"
           style="fill:#3a2222;stroke:#3a2222;stroke-width:2.4000001">A</tspan></text>
      <g
         font-size="55.005"
         font-weight="500"
         letter-spacing="0"
         transform="matrix(0.92634,0,0,0.81217,36.90866,965.27871)"
         word-spacing="0"
         id="g161"
         style="font-size:55.00500107px;font-weight:500;letter-spacing:0;word-spacing:0;fill:#3a2222;stroke:#3a2222;stroke-width:2.76699996;font-family:Boutros Ads">
        <path
           d="m 36.9059,54.7061 c -1.1e-5,3.778 -0.385,6.8756 -1.1549,9.2928 -0.6983,2.2382 -2.1128,5.0134 -4.2435,8.3259 -6e-6,-14.0197 -0.5282,-24.1451 -1.5846,-30.3761 l 5.2373,-5.6401 c 1.1638,6.5712 1.7457,12.7037 1.7458,18.3976 m 2.1218,-25.3537 -3.0618,4.163 c -3.1155,0.6267 -5.9535,1.7547 -8.5139,3.3841 0.573,-1.4145 1.4235,-2.6947 2.5515,-3.8407 -1.6115,-0.2506 -2.4172,-0.9668 -2.4172,-2.1486 -1e-6,-1.7189 0.8684,-3.3035 2.6052,-4.7538 1.6652,-1.3966 3.3751,-2.0949 5.1298,-2.0949 1.4324,4.8e-5 2.1486,0.5103 2.1486,1.5309 -1.1e-5,0.8058 -0.6625,1.7637 -1.9875,2.8738 -0.9848,-0.555 -1.898,-0.8325 -2.7395,-0.8326 -0.4118,4.4e-5 -1.0296,0.0896 -1.8532,0.2686 1.1638,1.2713 2.6768,1.9069 4.539,1.9069 0.8952,4.2e-5 2.0949,-0.1522 3.5989,-0.4566"
           id="path163"
           inkscape:connector-curvature="0"
           style="fill:#3a2222;stroke:#3a2222;stroke-width:2.76699996" />
      </g>
      <path
         d="m 27.2314,972.9102 c -1.1262,0 -2.0312,0.905 -2.0312,2.0312 v 9.75 l -3.3125,-3.3125 c -0.3982,-0.3982 -0.9179,-0.5938 -1.4375,-0.5938 -0.5196,0 -1.0393,0.1956 -1.4375,0.5938 -0.7964,0.7964 -0.7964,2.0786 0,2.875 l 6.9062,6.9062 c 0.2147,0.2147 0.4837,0.3698 0.75,0.4688 0.1041,0.0387 0.2046,0.0729 0.3125,0.0937 0.1474,0.0333 0.2872,0.0312 0.4375,0.0312 0.1084,-0.003 0.2057,-0.0105 0.3125,-0.0312 0.4159,-0.0619 0.8035,-0.241 1.125,-0.5625 l 6.7812,-6.75 c 0.7964,-0.7964 0.7964,-2.0786 0,-2.875 l -0.0937,-0.0937 c -0.7964,-0.7964 -2.0786,-0.7964 -2.875,0 l -3.2188,3.1875 v -9.6875 c 0,-1.1262 -0.905,-2.0312 -2.0312,-2.0312 h -0.1875 z"
         id="path165"
         inkscape:connector-curvature="0"
         style="fill:#3a2222;stroke:#3a2222;stroke-width:2.4000001" />
    </g>
    <g
       transform="translate(-2.6062,0.2896)"
       id="g167">
      <text
         font-size="48.241"
         font-style="italic"
         transform="scale(0.902,1.109)"
         x="34.455299"
         xml:space="preserve"
         y="923.53308"
         id="text169"
         style="font-size:48.24100113px;font-style:italic;fill:#ffffff;font-family:DejaVu Serif"><tspan
           x="34.455299"
           y="923.53308"
           id="tspan171"
           style="fill:#ffffff">A</tspan></text>
      <g
         font-size="55.005"
         font-weight="500"
         letter-spacing="0"
         transform="matrix(0.92634,0,0,0.81217,36.90866,965.27871)"
         word-spacing="0"
         id="g173"
         style="font-size:55.00500107px;font-weight:500;letter-spacing:0;word-spacing:0;fill:#ffffff;font-family:Boutros Ads">
        <path
           d="m 36.9059,54.7061 c -1.1e-5,3.778 -0.385,6.8756 -1.1549,9.2928 -0.6983,2.2382 -2.1128,5.0134 -4.2435,8.3259 -6e-6,-14.0197 -0.5282,-24.1451 -1.5846,-30.3761 l 5.2373,-5.6401 c 1.1638,6.5712 1.7457,12.7037 1.7458,18.3976 m 2.1218,-25.3537 -3.0618,4.163 c -3.1155,0.6267 -5.9535,1.7547 -8.5139,3.3841 0.573,-1.4145 1.4235,-2.6947 2.5515,-3.8407 -1.6115,-0.2506 -2.4172,-0.9668 -2.4172,-2.1486 -1e-6,-1.7189 0.8684,-3.3035 2.6052,-4.7538 1.6652,-1.3966 3.3751,-2.0949 5.1298,-2.0949 1.4324,4.8e-5 2.1486,0.5103 2.1486,1.5309 -1.1e-5,0.8058 -0.6625,1.7637 -1.9875,2.8738 -0.9848,-0.555 -1.898,-0.8325 -2.7395,-0.8326 -0.4118,4.4e-5 -1.0296,0.0896 -1.8532,0.2686 1.1638,1.2713 2.6768,1.9069 4.539,1.9069 0.8952,4.2e-5 2.0949,-0.1522 3.5989,-0.4566"
           id="path175"
           inkscape:connector-curvature="0"
           style="fill:#ffffff" />
      </g>
      <path
         d="m 27.2314,972.9102 c -1.1262,0 -2.0312,0.905 -2.0312,2.0312 v 9.75 l -3.3125,-3.3125 c -0.3982,-0.3982 -0.9179,-0.5938 -1.4375,-0.5938 -0.5196,0 -1.0393,0.1956 -1.4375,0.5938 -0.7964,0.7964 -0.7964,2.0786 0,2.875 l 6.9062,6.9062 c 0.2147,0.2147 0.4837,0.3698 0.75,0.4688 0.1041,0.0387 0.2046,0.0729 0.3125,0.0937 0.1474,0.0333 0.2872,0.0312 0.4375,0.0312 0.1084,-0.003 0.2057,-0.0105 0.3125,-0.0312 0.4159,-0.0619 0.8035,-0.241 1.125,-0.5625 l 6.7812,-6.75 c 0.7964,-0.7964 0.7964,-2.0786 0,-2.875 l -0.0937,-0.0937 c -0.7964,-0.7964 -2.0786,-0.7964 -2.875,0 l -3.2188,3.1875 v -9.6875 c 0,-1.1262 -0.905,-2.0312 -2.0312,-2.0312 h -0.1875 z"
         id="path177"
         inkscape:connector-curvature="0"
         style="fill:#ffffff" />
    </g>
  </g>
</svg>
