<?xml version="1.0" encoding="UTF-8" standalone="no"?>
<!-- Created with Inkscape (http://www.inkscape.org/) -->

<svg
   xmlns:dc="http://purl.org/dc/elements/1.1/"
   xmlns:cc="http://creativecommons.org/ns#"
   xmlns:rdf="http://www.w3.org/1999/02/22-rdf-syntax-ns#"
   xmlns:svg="http://www.w3.org/2000/svg"
   xmlns="http://www.w3.org/2000/svg"
   xmlns:xlink="http://www.w3.org/1999/xlink"
   xmlns:sodipodi="http://sodipodi.sourceforge.net/DTD/sodipodi-0.dtd"
   xmlns:inkscape="http://www.inkscape.org/namespaces/inkscape"
   width="96"
   height="96"
   id="svg2"
   version="1.1"
   inkscape:version="0.48.3.1 r9886"
   sodipodi:docname="helal-software.svg"
   inkscape:export-filename="/home/albakry/Documents/helal icons/helal-software24.png"
   inkscape:export-xdpi="22.5"
   inkscape:export-ydpi="22.5">
  <defs
     id="defs4">
    <linearGradient
       inkscape:collect="always"
       id="linearGradient3848">
      <stop
         style="stop-color:#ffffff;stop-opacity:1;"
         offset="0"
         id="stop3850" />
      <stop
         style="stop-color:#ffffff;stop-opacity:0;"
         offset="1"
         id="stop3853" />
    </linearGradient>
    <linearGradient
       id="linearGradient3852">
      <stop
         id="stop3855"
         offset="0"
         style="stop-color:#aa8800;stop-opacity:1" />
      <stop
         style="stop-color:#e9ddaf;stop-opacity:1"
         offset="0.83296108"
         id="stop3857" />
      <stop
         style="stop-color:#f5f5f5;stop-opacity:1;"
         offset="0.9001683"
         id="stop3859" />
      <stop
         style="stop-color:#decd87;stop-opacity:1"
         offset="0.95752585"
         id="stop3861" />
      <stop
         id="stop3863"
         offset="1"
         style="stop-color:#786721;stop-opacity:1" />
    </linearGradient>
    <linearGradient
       id="linearGradient3850">
      <stop
         style="stop-color:#999999;stop-opacity:1"
         offset="0"
         id="stop3852" />
      <stop
         style="stop-color:#c8c8c8;stop-opacity:0;"
         offset="1"
         id="stop3854" />
    </linearGradient>
    <linearGradient
       id="linearGradient3806">
      <stop
         style="stop-color:#646464;stop-opacity:1;"
         offset="0"
         id="stop3808" />
      <stop
         style="stop-color:#646464;stop-opacity:0;"
         offset="1"
         id="stop3810" />
    </linearGradient>
    <linearGradient
       id="linearGradient3784">
      <stop
         style="stop-color:#aaaaaa;stop-opacity:1;"
         offset="0"
         id="stop3786" />
      <stop
         style="stop-color:#dcdcdc;stop-opacity:1;"
         offset="1"
         id="stop3788" />
    </linearGradient>
    <linearGradient
       id="linearGradient3776">
      <stop
         style="stop-color:#ffffff;stop-opacity:1;"
         offset="0"
         id="stop3778" />
      <stop
         style="stop-color:#e6e6e6;stop-opacity:1;"
         offset="1"
         id="stop3780" />
    </linearGradient>
    <linearGradient
       id="linearGradient3817">
      <stop
         style="stop-color:#ffffff;stop-opacity:1;"
         offset="0"
         id="stop3819" />
      <stop
         id="stop3827"
         offset="0.05455951"
         style="stop-color:#ffffff;stop-opacity:0.23529412;" />
      <stop
         id="stop3825"
         offset="0.95526141"
         style="stop-color:#ffffff;stop-opacity:0.15686275;" />
      <stop
         style="stop-color:#ffffff;stop-opacity:0.39215687;"
         offset="1"
         id="stop3821" />
    </linearGradient>
    <radialGradient
       cx="4.9929786"
       cy="43.5"
       r="2.5"
       fx="4.9929786"
       fy="43.5"
       id="radialGradient2873-966-168"
       xlink:href="#linearGradient3688-166-749"
       gradientUnits="userSpaceOnUse"
       gradientTransform="matrix(2.003784,0,0,1.4,27.98813,-17.4)" />
    <linearGradient
       id="linearGradient3688-166-749">
      <stop
         id="stop2883"
         style="stop-color:#181818;stop-opacity:1"
         offset="0" />
      <stop
         id="stop2885"
         style="stop-color:#181818;stop-opacity:0"
         offset="1" />
    </linearGradient>
    <radialGradient
       cx="4.9929786"
       cy="43.5"
       r="2.5"
       fx="4.9929786"
       fy="43.5"
       id="radialGradient2875-742-326"
       xlink:href="#linearGradient3688-464-309"
       gradientUnits="userSpaceOnUse"
       gradientTransform="matrix(2.003784,0,0,1.4,-20.01187,-104.4)" />
    <linearGradient
       id="linearGradient3688-464-309">
      <stop
         id="stop2889"
         style="stop-color:#181818;stop-opacity:1"
         offset="0" />
      <stop
         id="stop2891"
         style="stop-color:#181818;stop-opacity:0"
         offset="1" />
    </linearGradient>
    <linearGradient
       x1="25.058096"
       y1="47.027729"
       x2="25.058096"
       y2="39.999443"
       id="linearGradient2877-634-617"
       xlink:href="#linearGradient3702-501-757"
       gradientUnits="userSpaceOnUse" />
    <linearGradient
       id="linearGradient3702-501-757">
      <stop
         id="stop2895"
         style="stop-color:#181818;stop-opacity:0"
         offset="0" />
      <stop
         id="stop2897"
         style="stop-color:#181818;stop-opacity:1"
         offset="0.5" />
      <stop
         id="stop2899"
         style="stop-color:#181818;stop-opacity:0"
         offset="1" />
    </linearGradient>
    <linearGradient
       inkscape:collect="always"
       xlink:href="#linearGradient3817"
       id="linearGradient3823"
       x1="47.214287"
       y1="965.25507"
       x2="47.214287"
       y2="1042.9185"
       gradientUnits="userSpaceOnUse" />
    <radialGradient
       inkscape:collect="always"
       xlink:href="#linearGradient3776"
       id="radialGradient3782"
       cx="48.714287"
       cy="971.86224"
       fx="48.714287"
       fy="971.86224"
       r="40"
       gradientUnits="userSpaceOnUse"
       gradientTransform="matrix(-9.524922e-7,2.1428757,-1.9913917,-8.8515869e-7,1984.0727,867.47438)" />
    <linearGradient
       inkscape:collect="always"
       xlink:href="#linearGradient3784"
       id="linearGradient3790"
       x1="23"
       y1="1044.427"
       x2="23"
       y2="964.7193"
       gradientUnits="userSpaceOnUse" />
    <radialGradient
       inkscape:collect="always"
       xlink:href="#linearGradient3852"
       id="radialGradient3834"
       cx="48.089287"
       cy="9.0710039"
       fx="48.089287"
       fy="9.0710039"
       r="19"
       gradientTransform="matrix(0.01011067,1.1153985,-1.0368352,0.00939845,57.008208,930.78095)"
       gradientUnits="userSpaceOnUse" />
    <linearGradient
       inkscape:collect="always"
       xlink:href="#linearGradient3850"
       id="linearGradient3856"
       x1="45.25"
       y1="974.76904"
       x2="45.25"
       y2="963.86725"
       gradientUnits="userSpaceOnUse"
       gradientTransform="matrix(1,0,0,1.3737983,1.9999981,-358.66342)" />
    <linearGradient
       inkscape:collect="always"
       xlink:href="#linearGradient3784"
       id="linearGradient3866"
       gradientUnits="userSpaceOnUse"
       x1="23"
       y1="975.34387"
       x2="23"
       y2="964.7193"
       gradientTransform="matrix(1,0,0,1.3737983,2,-358.66342)" />
    <radialGradient
       inkscape:collect="always"
       xlink:href="#linearGradient3776"
       id="radialGradient3868"
       gradientUnits="userSpaceOnUse"
       gradientTransform="matrix(-9.524922e-7,2.943879,-1.9913917,-1.2160295e-6,1986.0727,833.0714)"
       cx="48.714287"
       cy="971.86224"
       fx="48.714287"
       fy="971.86224"
       r="40" />
    <linearGradient
       inkscape:collect="always"
       xlink:href="#linearGradient3806"
       id="linearGradient3911"
       gradientUnits="userSpaceOnUse"
       x1="32.172886"
       y1="15.580146"
       x2="32.172886"
       y2="26.090691" />
    <linearGradient
       inkscape:collect="always"
       xlink:href="#linearGradient3806"
       id="linearGradient3913"
       gradientUnits="userSpaceOnUse"
       x1="31.467369"
       y1="15.423364"
       x2="31.467369"
       y2="26.24292" />
    <linearGradient
       inkscape:collect="always"
       id="linearGradient3869-8">
      <stop
         style="stop-color:#d4aa00;stop-opacity:0.27467811"
         offset="0"
         id="stop3871-9" />
      <stop
         style="stop-color:#d4aa00;stop-opacity:1"
         offset="1"
         id="stop3873-9" />
    </linearGradient>
    <linearGradient
       inkscape:collect="always"
       id="linearGradient3883-3">
      <stop
         style="stop-color:#cccccc;stop-opacity:1;"
         offset="0"
         id="stop3885-0" />
      <stop
         style="stop-color:#e6e6e6;stop-opacity:1"
         offset="1"
         id="stop3887-9" />
    </linearGradient>
    <radialGradient
       inkscape:collect="always"
       xlink:href="#linearGradient3869-8"
       id="radialGradient5210"
       gradientUnits="userSpaceOnUse"
       gradientTransform="matrix(0.80807073,-0.00914991,0.01057347,0.93379189,80.190709,-871.543)"
       cx="-40.25"
       cy="1031.8527"
       fx="-40.25"
       fy="1031.8527"
       r="38.214634" />
    <radialGradient
       inkscape:collect="always"
       xlink:href="#linearGradient3883-3"
       id="radialGradient5212"
       gradientUnits="userSpaceOnUse"
       gradientTransform="matrix(0.80812253,0,0,0.79682949,93.103088,-721.10414)"
       cx="-35.724911"
       cy="1028.7371"
       fx="-35.724911"
       fy="1028.7371"
       r="39.000034" />
    <radialGradient
       inkscape:collect="always"
       xlink:href="#linearGradient3869-8"
       id="radialGradient5214"
       gradientUnits="userSpaceOnUse"
       gradientTransform="matrix(0.62373574,-0.00706266,0.00816148,0.72077771,67.205759,-663.7037)"
       cx="-40.25"
       cy="1031.8527"
       fx="-40.25"
       fy="1031.8527"
       r="38.214634" />
    <radialGradient
       inkscape:collect="always"
       xlink:href="#linearGradient3883-3"
       id="radialGradient5216"
       gradientUnits="userSpaceOnUse"
       gradientTransform="matrix(0.62377572,0,0,0.61505882,77.1726,-547.58256)"
       cx="-35.724911"
       cy="1028.7371"
       fx="-35.724911"
       fy="1028.7371"
       r="39.000034" />
    <linearGradient
       inkscape:collect="always"
       xlink:href="#linearGradient3848"
       id="linearGradient3855"
       x1="14.642857"
       y1="24.750002"
       x2="14.22226"
       y2="50.484413"
       gradientUnits="userSpaceOnUse"
       gradientTransform="translate(-0.50507627,956.10964)" />
    <linearGradient
       inkscape:collect="always"
       xlink:href="#linearGradient3848"
       id="linearGradient3859"
       gradientUnits="userSpaceOnUse"
       x1="14.642857"
       y1="24.750002"
       x2="14.22226"
       y2="50.484413"
       gradientTransform="matrix(-1,0,0,1,96.438724,956.10964)" />
  </defs>
  <sodipodi:namedview
     id="base"
     pagecolor="#ffffff"
     bordercolor="#666666"
     borderopacity="1.0"
     inkscape:pageopacity="0.0"
     inkscape:pageshadow="2"
     inkscape:zoom="1"
     inkscape:cx="44.547678"
     inkscape:cy="56.846636"
     inkscape:document-units="px"
     inkscape:current-layer="layer1"
     showgrid="false"
     inkscape:window-width="1024"
     inkscape:window-height="687"
     inkscape:window-x="0"
     inkscape:window-y="26"
     inkscape:window-maximized="1" />
  <metadata
     id="metadata7">
    <rdf:RDF>
      <cc:Work
         rdf:about="">
        <dc:format>image/svg+xml</dc:format>
        <dc:type
           rdf:resource="http://purl.org/dc/dcmitype/StillImage" />
        <dc:title></dc:title>
      </cc:Work>
    </rdf:RDF>
  </metadata>
  <g
     inkscape:label="Livello 1"
     inkscape:groupmode="layer"
     id="layer1"
     transform="translate(0,-956.36218)">
    <g
       style="display:inline"
       id="g2036"
       transform="matrix(2.1999991,0,0,0.88888944,-4.8000008,1006.5844)">
      <g
         style="opacity:0.4"
         id="g3712"
         transform="matrix(1.052632,0,0,1.285713,-1.263158,-13.42854)">
        <rect
           style="fill:url(#radialGradient2873-966-168);fill-opacity:1;stroke:none"
           id="rect2801"
           y="40"
           x="38"
           height="7"
           width="5" />
        <rect
           style="fill:url(#radialGradient2875-742-326);fill-opacity:1;stroke:none"
           id="rect3696"
           transform="scale(-1,-1)"
           y="-47"
           x="-10"
           height="7"
           width="5" />
        <rect
           style="fill:url(#linearGradient2877-634-617);fill-opacity:1;stroke:none"
           id="rect3700"
           y="40"
           x="10"
           height="7.0000005"
           width="28" />
      </g>
    </g>
    <rect
       style="fill:url(#radialGradient3782);fill-opacity:1;stroke:url(#linearGradient3790);stroke-opacity:1"
       id="rect2985"
       width="79"
       height="79"
       x="8.5"
       y="964.86218"
       rx="3"
       ry="3" />
    <g
       id="g5202"
       transform="matrix(0.93172389,0,0,0.93172389,7.4911326,71.307234)">
      <path
         sodipodi:nodetypes="ccsccscscc"
         inkscape:connector-curvature="0"
         id="path6591-3"
         d="m 27.444189,1044.3856 c -1.959218,-2.7743 -3.403815,-5.9378 -4.194792,-9.352 -1.21e-4,0.036 0,0.071 0,0.1072 0,3.224 0.494038,6.3326 1.41054,9.2543 m 59.013422,-0.2124 c 0.911896,-2.915 1.3402,-5.8264 1.3402,-9.0419 0,-14.5043 -10.002311,-26.6651 -23.483247,-29.9814 8.641857,4.4382 14.561762,13.4219 14.561762,23.805 0,5.7991 -1.714233,10.8664 -4.848301,15.2494 z"
         style="fill:#ffe680;fill-opacity:0.98823529;stroke:none" />
      <path
         sodipodi:nodetypes="csccsccsccc"
         inkscape:connector-curvature="0"
         id="path3099-0"
         transform="translate(0,956.36218)"
         d="m 61.53125,48.8125 c 8.641857,4.4381 14.5625,13.39815 14.5625,23.78125 0,5.598574 -1.717282,10.797154 -4.65625,15.09375 l 12.25,0 C 84.535979,84.866651 85,81.878558 85,78.78125 85,64.27695 75.012186,52.1287 61.53125,48.8125 z M 23.25,78.65625 c -1.21e-4,0.036 0,0.0888 0,0.125 0,3.097308 0.464021,6.085401 1.3125,8.90625 l 2.6875,0 c -1.848702,-2.698321 -3.238605,-5.744745 -4,-9.03125 z"
         style="opacity:0.75965666;fill:url(#radialGradient5210);fill-opacity:1;stroke:none" />
      <path
         id="path3877-8"
         transform="translate(0,956.36218)"
         d="M 61.375,48.15625 A 0.64656268,0.64656268 0 0 0 61.21875,49.375 c 8.433206,4.331 14.21875,13.08145 14.21875,23.21875 0,5.621793 -1.764365,10.83479 -4.78125,15.09375 l 1.5625,0 c 2.85571,-4.329339 4.5,-9.524039 4.5,-15.09375 0,-8.8009 -4.170801,-16.58205 -10.625,-21.59375 10.742811,4.6351 18.28125,15.33045 18.28125,27.78125 0,3.097913 -0.4797,6.0932 -1.34375,8.90625 l 1.3125,0 c 0.831414,-2.825587 1.3125,-5.811623 1.3125,-8.90625 0,-14.7452 -10.127016,-27.1209 -23.8125,-30.5625 -0.05228,-0.013 -0.103877,-0.01825 -0.15625,-0.03125 a 0.64656268,0.64656268 0 0 0 -0.25,-0.03125 0.64656268,0.64656268 0 0 0 -0.0625,0 z M 23.25,78.0625 a 0.64656268,0.64656268 0 0 0 -0.625,0.59375 c -1.31e-4,0.039 0,0.0907 0,0.125 l 0,0.03125 c 0.0025,3.081016 0.454444,6.060817 1.28125,8.875 l 1.40625,0 c -0.378552,-1.232354 -0.685207,-2.518755 -0.90625,-3.8125 0.601698,1.324769 1.29907,2.608949 2.09375,3.8125 l 1.53125,0 C 26.100943,84.970362 24.651531,81.883073 23.875,78.53125 A 0.64656268,0.64656268 0 0 0 23.25,78.0625 z"
         style="font-size:medium;font-style:normal;font-variant:normal;font-weight:normal;font-stretch:normal;text-indent:0;text-align:start;text-decoration:none;line-height:normal;letter-spacing:normal;word-spacing:normal;text-transform:none;direction:ltr;block-progression:tb;writing-mode:lr-tb;text-anchor:start;baseline-shift:baseline;color:#000000;fill:url(#radialGradient5212);fill-opacity:1;stroke:none;stroke-width:1.60000002;marker:none;visibility:visible;display:inline;overflow:visible;enable-background:accumulate;font-family:Sans;-inkscape-font-specification:Sans"
         inkscape:connector-curvature="0" />
      <path
         sodipodi:nodetypes="csscsccscc"
         style="fill:#ffe680;fill-opacity:0.98823529;stroke:none"
         d="m 52.802123,1003.0531 c 6.670499,3.4257 11.239971,10.3601 11.239971,18.3747 0,11.4096 -9.249362,20.659 -20.659032,20.659 -9.799547,0 -18.008436,-6.8197 -20.129311,-15.9744 -9.3e-5,0.028 0,0.055 0,0.083 0,7.2726 3.256883,13.7846 8.391694,18.1569 l 30.8607,0.026 c 5.152465,-4.3724 8.422288,-10.8958 8.422288,-18.1829 0,-11.1956 -7.72061,-20.5824 -18.12631,-23.1421 z"
         id="path3912"
         inkscape:connector-curvature="0" />
      <path
         id="path3914"
         transform="translate(0,956.36218)"
         d="m 52.8125,46.6875 c 6.670499,3.4257 11.21875,10.3605 11.21875,18.375 0,11.4097 -9.246581,20.65625 -20.65625,20.65625 -9.799548,0 -18.004125,-6.81415 -20.125,-15.96875 -9.4e-5,0.028 0,0.06575 0,0.09375 0,7.1125 3.122304,13.47615 8.0625,17.84375 l 31.5625,0 c 4.940195,-4.3676 8.0625,-10.73125 8.0625,-17.84375 0,-11.1956 -7.7193,-20.59655 -18.125,-23.15625 z"
         style="opacity:0.75965666;fill:url(#radialGradient5214);fill-opacity:1;stroke:none"
         inkscape:connector-curvature="0" />
      <path
         id="path3916"
         transform="translate(0,956.36218)"
         d="m 52.71875,46.1875 c -0.412558,0.063 -0.526104,0.7442 -0.15625,0.9375 6.509444,3.343 10.96875,10.1127 10.96875,17.9375 0,11.14 -9.016271,20.15625 -20.15625,20.15625 -9.56803,0 -17.555724,-6.6305 -19.625,-15.5625 -0.06621,-0.2193 -0.303269,-0.3978 -0.53125,-0.375 -0.227982,0.022 -0.44727,0.24065 -0.46875,0.46875 -1.01e-4,0.03 0,0.06775 0,0.09375 l 0,0.03125 c 0.0053,6.5861 2.649776,12.56 6.90625,16.9375 0.297043,0.305493 0.593632,0.585393 0.90625,0.875 l 1.5625,0 C 31.810579,87.421702 31.487321,87.15689 31.1875,86.875 27.56264,83.4669 25.032388,78.90925 24.15625,73.78125 27.483868,81.10775 34.80939,86.25 43.375,86.25 c 11.679359,0 21.15625,-9.5082 21.15625,-21.1875 0,-6.7933 -3.205616,-12.78785 -8.1875,-16.65625 8.292189,3.5777 14.09375,11.8269 14.09375,21.4375 0,6.753 -2.889883,12.83465 -7.46875,17.09375 -0.281839,0.262156 -0.580423,0.501903 -0.875,0.75 l 1.5,0 C 63.836851,87.462671 64.078752,87.234471 64.3125,87 c 4.386748,-4.4003 7.09375,-10.45255 7.09375,-17.15625 0,-11.3815 -7.811413,-20.93725 -18.375,-23.59375 -0.04035,-0.01 -0.08457,-0.02125 -0.125,-0.03125 -0.06284,-0.019 -0.122085,-0.03825 -0.1875,-0.03125 z"
         style="font-size:medium;font-style:normal;font-variant:normal;font-weight:normal;font-stretch:normal;text-indent:0;text-align:start;text-decoration:none;line-height:normal;letter-spacing:normal;word-spacing:normal;text-transform:none;direction:ltr;block-progression:tb;writing-mode:lr-tb;text-anchor:start;baseline-shift:baseline;color:#000000;fill:url(#radialGradient5216);fill-opacity:1;stroke:none;stroke-width:1.60000002;marker:none;visibility:visible;display:inline;overflow:visible;enable-background:accumulate;font-family:Sans;-inkscape-font-specification:Sans"
         inkscape:connector-curvature="0" />
    </g>
    <rect
       style="fill:none;stroke:#e6e6e6;stroke-opacity:1"
       id="rect2985-5"
       width="79"
       height="79"
       x="8.5"
       y="964.86218"
       rx="3"
       ry="3" />
    <path
       transform="matrix(0.75932204,0,0,0.75931965,6.7966095,970.48415)"
       d="m 37.142857,20.910715 c 0,2.909357 -2.3585,5.267857 -5.267857,5.267857 -2.909357,0 -5.267857,-2.3585 -5.267857,-5.267857 0,-2.909357 2.3585,-5.267857 5.267857,-5.267857 2.909357,0 5.267857,2.3585 5.267857,5.267857 z"
       sodipodi:ry="5.2678571"
       sodipodi:rx="5.2678571"
       sodipodi:cy="20.910715"
       sodipodi:cx="31.875"
       id="path3818"
       style="opacity:0.3;fill:#ffffff;fill-opacity:1;stroke:none"
       sodipodi:type="arc" />
    <path
       sodipodi:type="arc"
       style="opacity:0.3;fill:#ffffff;fill-opacity:1;stroke:none"
       id="path3814"
       sodipodi:cx="31.875"
       sodipodi:cy="20.910715"
       sodipodi:rx="5.2678571"
       sodipodi:ry="5.2678571"
       d="m 37.142857,20.910715 c 0,2.909357 -2.3585,5.267857 -5.267857,5.267857 -2.909357,0 -5.267857,-2.3585 -5.267857,-5.267857 0,-2.909357 2.3585,-5.267857 5.267857,-5.267857 2.909357,0 5.267857,2.3585 5.267857,5.267857 z"
       transform="matrix(0.75932204,0,0,0.75931965,40.796609,970.48415)" />
    <rect
       ry="2"
       rx="2"
       y="965.86218"
       x="9.5"
       height="77"
       width="77"
       id="rect3815"
       style="fill:none;stroke:url(#linearGradient3823);stroke-opacity:1;opacity:0.50000000000000000" />
    <path
       sodipodi:type="arc"
       style="fill:url(#linearGradient3913);fill-opacity:1;stroke:none"
       id="path3792"
       sodipodi:cx="31.875"
       sodipodi:cy="20.910715"
       sodipodi:rx="5.2678571"
       sodipodi:ry="5.2678571"
       d="m 37.142857,20.910715 c 0,2.909357 -2.3585,5.267857 -5.267857,5.267857 -2.909357,0 -5.267857,-2.3585 -5.267857,-5.267857 0,-2.909357 2.3585,-5.267857 5.267857,-5.267857 2.909357,0 5.267857,2.3585 5.267857,5.267857 z"
       transform="matrix(0.56949153,0,0,0.56948973,12.847457,974.45362)" />
    <path
       transform="matrix(0.56949153,0,0,0.56948973,46.847457,974.45362)"
       d="m 37.142857,20.910715 c 0,2.909357 -2.3585,5.267857 -5.267857,5.267857 -2.909357,0 -5.267857,-2.3585 -5.267857,-5.267857 0,-2.909357 2.3585,-5.267857 5.267857,-5.267857 2.909357,0 5.267857,2.3585 5.267857,5.267857 z"
       sodipodi:ry="5.2678571"
       sodipodi:rx="5.2678571"
       sodipodi:cy="20.910715"
       sodipodi:cx="31.875"
       id="path3794"
       style="fill:url(#linearGradient3911);fill-opacity:1;stroke:none"
       sodipodi:type="arc" />
    <path
       id="path3842"
       d="m 31,983.36205 c -1.104569,0 -2,1.19391 -2,2.66666 0,13.99119 8.50659,25.33349 19,25.33349 10.49341,0 19,-11.3423 19,-25.33349 0,-1.47275 -0.895431,-2.66666 -2,-2.66666 -1.104569,0 -2,1.19391 -2,2.66666 0,11.04566 -6.715729,20.00009 -15,20.00009 -8.284271,0 -15,-8.95443 -15,-20.00009 0,-1.47275 -0.895431,-2.66666 -2,-2.66666 z"
       style="opacity:0.05;fill:#000000;fill-opacity:1;stroke:none"
       inkscape:connector-curvature="0" />
    <path
       style="fill:url(#radialGradient3834);fill-opacity:1;stroke:none"
       d="m 31,984.36207 c -1.104569,0 -2,0.89543 -2,2 0,10.49337 8.50659,19.00013 19,19.00013 10.49341,0 19,-8.50676 19,-19.00013 0,-1.10457 -0.895431,-2 -2,-2 -1.104569,0 -2,0.89543 -2,2 0,8.28423 -6.715729,15.00013 -15,15.00013 -8.284271,0 -15,-6.7159 -15,-15.00013 0,-1.10457 -0.895431,-2 -2,-2 z"
       id="path3796"
       inkscape:connector-curvature="0" />
    <rect
       ry="0.68689919"
       rx="0.5"
       y="970.29694"
       x="9.9999981"
       height="8.2427902"
       width="76"
       id="rect3870"
       style="opacity:0.25;fill:#ffffff;fill-opacity:1;stroke:none" />
    <rect
       ry="1.3737984"
       rx="1"
       y="966.862"
       x="10.5"
       height="9.6165886"
       width="75"
       id="rect3846"
       style="fill:url(#radialGradient3868);fill-opacity:1;stroke:url(#linearGradient3866);stroke-width:1.17209148;stroke-opacity:1" />
    <rect
       style="fill:url(#linearGradient3856);fill-opacity:1;stroke:none"
       id="rect3848"
       width="74"
       height="8.2427902"
       x="11"
       y="967.54871"
       rx="0.5"
       ry="0.68689919" />
    <path
       style="fill:url(#linearGradient3855);fill-opacity:1;stroke:none"
       d="m 10.387781,977.64536 9.642857,0.17857 -9.464285,46.60717 z"
       id="path3070"
       inkscape:connector-curvature="0" />
    <path
       inkscape:connector-curvature="0"
       id="path3857"
       d="m 85.545867,977.64536 -9.642857,0.17857 9.464285,46.60717 z"
       style="fill:url(#linearGradient3859);fill-opacity:1;stroke:none" />
  </g>
</svg>
