<?xml version="1.0" encoding="UTF-8" standalone="no"?>
<svg
   xmlns:dc="http://purl.org/dc/elements/1.1/"
   xmlns:cc="http://creativecommons.org/ns#"
   xmlns:rdf="http://www.w3.org/1999/02/22-rdf-syntax-ns#"
   xmlns:svg="http://www.w3.org/2000/svg"
   xmlns="http://www.w3.org/2000/svg"
   xmlns:xlink="http://www.w3.org/1999/xlink"
   xmlns:sodipodi="http://sodipodi.sourceforge.net/DTD/sodipodi-0.dtd"
   xmlns:inkscape="http://www.inkscape.org/namespaces/inkscape"
   viewBox="0 0 96 96"
   id="svg2"
   version="1.1"
   inkscape:version="0.48.4 r9939"
   width="100%"
   height="100%"
   sodipodi:docname="joystick.svg">
  <metadata
     id="metadata39">
    <rdf:RDF>
      <cc:Work
         rdf:about="">
        <dc:format>image/svg+xml</dc:format>
        <dc:type
           rdf:resource="http://purl.org/dc/dcmitype/StillImage" />
      </cc:Work>
    </rdf:RDF>
  </metadata>
  <sodipodi:namedview
     pagecolor="#ffffff"
     bordercolor="#666666"
     borderopacity="1"
     objecttolerance="10"
     gridtolerance="10"
     guidetolerance="10"
     inkscape:pageopacity="0"
     inkscape:pageshadow="2"
     inkscape:window-width="640"
     inkscape:window-height="480"
     id="namedview37"
     showgrid="false"
     inkscape:zoom="2.4583333"
     inkscape:cx="48"
     inkscape:cy="48"
     inkscape:window-x="65"
     inkscape:window-y="24"
     inkscape:window-maximized="0"
     inkscape:current-layer="svg2" />
  <defs
     id="defs4">
    <filter
       id="filter3174-6">
      <feGaussianBlur
         stdDeviation="1.71"
         id="feGaussianBlur7" />
    </filter>
    <linearGradient
       gradientTransform="matrix(0.96179,0,0,2.11089,1.83416,934.41518)"
       gradientUnits="userSpaceOnUse"
       id="linearGradient3197"
       x1="55.1439"
       x2="47.3628"
       y1="13.1091"
       y2="33.5999">
      <stop
         offset="0"
         stop-color="#fff"
         id="stop10" />
      <stop
         offset="1"
         stop-color="#fff"
         stop-opacity="0"
         id="stop12" />
    </linearGradient>
    <linearGradient
       gradientUnits="userSpaceOnUse"
       id="ButtonShadow-6"
       x2="0"
       y1="92"
       y2="6.9756">
      <stop
         offset="0"
         id="stop15" />
      <stop
         offset="1"
         stop-opacity=".588"
         id="stop17" />
    </linearGradient>
    <radialGradient
       cx="63.969"
       cy="14.113"
       gradientTransform="matrix(1.5647,-9.5143e-8,6.1772e-8,1.0159,-86.213,8.1461)"
       gradientUnits="userSpaceOnUse"
       id="radialGradient4154-0-1"
       r="23.097">
      <stop
         offset="0"
         stop-color="#efbb21"
         id="stop20" />
      <stop
         offset=".4"
         stop-color="#efbb21"
         id="stop22" />
      <stop
         offset="1"
         stop-color="#ef6a21"
         id="stop24" />
    </radialGradient>
    <radialGradient
       cx="28.2041"
       cy="-.322"
       gradientTransform="matrix(4.67845,5.1067271e-8,-4.5897343e-8,4.20482,-84.44966,976.03941)"
       gradientUnits="userSpaceOnUse"
       id="radialGradient3206"
       r="23.097"
       xlink:href="#radialGradient4154-0-1" />
  </defs>
  <g
     transform="translate(0,-956.3622)"
     id="g27">
    <path
       d="m 13.0505,963.5905 h 69.8991 a 5.8249,5.8249 0 0 1 5.8249,5.8249 v 69.9216 a 5.8249,5.8249 0 0 1 -5.8249,5.8249 H 13.0505 a 5.8249,5.8249 0 0 1 -5.8249,-5.8249 v -69.9216 a 5.8249,5.8249 0 0 1 5.8249,-5.8249"
       id="path29"
       style="fill:url(#radialGradient3206)"
       inkscape:connector-curvature="0" />
    <path
       d="m 16.8899,963.5625 71.789,66.327 0.0854,-60.2405 c 0.0046,-3.2105 -2.3965,-6.0418 -5.5935,-6.0438 z"
       id="path31"
       style="opacity:0.34800002;fill:url(#linearGradient3197)"
       inkscape:connector-curvature="0" />
    <path
       d="m 33.6975,985.5607 c -5.3019,0 -9.5938,4.2918 -9.5938,9.5937 0,1.3255 -0.1102,3.9771 -0.25,5.5001 l -3.9375,14.4375 c -0.3138,0.8178 -0.5,1.6957 -0.5,2.625 0,4.0611 3.2827,7.375 7.3438,7.375 3.0458,0 5.6901,-1.8547 6.8125,-4.5 0.0126,-0.03 0.019,-0.064 0.0312,-0.094 l 6.5312,-11.9375 c 0,0 2.1063,-3.0625 6.5312,-3.0625 0.6743,0 1.2787,-0.034 1.875,-0.063 h 0.1562 c 0.5963,0.029 1.2007,0.063 1.875,0.063 4.4249,0 6.5312,3.0625 6.5312,3.0625 l 6.5312,11.9375 c 0.0122,0.03 0.0186,0.064 0.0312,0.094 1.1224,2.6453 3.7667,4.5 6.8125,4.5 4.061,0 7.3438,-3.3139 7.3438,-7.375 0,-0.9293 -0.1862,-1.8072 -0.5,-2.625 l -3.9375,-14.4375 c -0.1398,-1.523 -0.25,-4.1746 -0.25,-5.5001 0,-5.3018 -4.2918,-9.5937 -9.5938,-9.5937 -2.123,0 -4.0931,0.6782 -5.6875,1.8437 -1.1587,0.6612 -2.7094,1.75 -5.4688,1.75 H 51.5408 48.697 48.5408 45.697 44.8532 c -2.7594,0 -4.3101,-1.0888 -5.4688,-1.75 -1.5944,-1.1655 -3.5645,-1.8437 -5.6875,-1.8437 z m 29.5312,3.3125 c 0.837,0 1.6258,0.5228 1.9688,1.3437 0.4572,1.0946 -0.0304,2.3553 -1.125,2.8125 -1.0946,0.4572 -2.3553,-0.062 -2.8125,-1.1562 -0.4572,-1.0942 0.0617,-2.3553 1.1562,-2.8125 0.2736,-0.1143 0.5335,-0.1888 0.8125,-0.1875 z m -29.1562,0.3437 c 0.7573,0 1.471,0.476 1.7812,1.2188 0.1034,0.2476 0.1573,0.4975 0.1562,0.75 v 2.8125 h 2.8438 c 0.7573,0 1.471,0.476 1.7812,1.2187 0.1034,0.2476 0.1572,0.4976 0.1562,0.75 -0.003,0.7573 -0.476,1.471 -1.2188,1.7813 -0.2476,0.1036 -0.4663,0.1562 -0.7188,0.1562 h -2.8438 v 2.8126 c -8e-5,0.018 6e-4,0.014 0,0.031 -0.0235,0.7377 -0.4621,1.4783 -1.1875,1.7813 -0.9904,0.4137 -2.1176,-0.072 -2.5312,-1.0625 -0.0955,-0.2286 -0.1502,-0.4851 -0.1562,-0.7188 v -0.031 -2.8126 h -2.8125 -0.0625 c -0.7376,-0.024 -1.447,-0.4933 -1.75,-1.2187 -0.4137,-0.9903 0.0721,-2.0863 1.0625,-2.5 0.2286,-0.096 0.4539,-0.1815 0.6875,-0.1875 h 0.0625 2.8125 v -2.8125 c 0.003,-0.7574 0.476,-1.471 1.2188,-1.7813 0.2476,-0.1034 0.4663,-0.1884 0.7188,-0.1875 z m 23.9688,4.8438 c 0.837,0 1.6258,0.4915 1.9688,1.3125 0.4572,1.0945 -0.0617,2.3552 -1.1562,2.8125 -1.0945,0.4573 -2.324,-0.062 -2.7812,-1.1563 -0.4572,-1.0943 0.0304,-2.3553 1.125,-2.8125 0.2736,-0.1143 0.5647,-0.1575 0.8438,-0.1562 z m 10,0.062 c 0.837,0 1.6258,0.4915 1.9688,1.3125 0.4572,1.0945 -0.0304,2.3552 -1.125,2.8125 -1.0946,0.4573 -2.3553,-0.062 -2.8125,-1.1563 -0.4572,-1.0943 0.0617,-2.3553 1.1562,-2.8125 0.2736,-0.1143 0.5335,-0.1575 0.8125,-0.1562 z m -5.1875,5.1562 c 0.837,0 1.6258,0.5228 1.9688,1.3438 0.4572,1.0946 -0.0617,2.3553 -1.1562,2.8125 -1.0945,0.4572 -2.324,-0.062 -2.7812,-1.1562 -0.4572,-1.0942 0.0304,-2.3554 1.125,-2.8126 0.2736,-0.1142 0.5647,-0.1888 0.8438,-0.1875 z"
       id="path33"
       inkscape:connector-curvature="0"
       style="opacity:0.41100003;fill:none;stroke:#6e0000;stroke-width:2.4000001" />
    <path
       d="m 33.6975,985.5607 c -5.3019,0 -9.5938,4.2919 -9.5938,9.5938 0,1.3255 -0.1102,3.9771 -0.25,5.5001 l -3.9375,14.4375 c -0.3138,0.8178 -0.5,1.6957 -0.5,2.625 0,4.0611 3.2827,7.375 7.3438,7.375 3.0458,0 5.6901,-1.8547 6.8125,-4.5 0.0126,-0.03 0.019,-0.064 0.0312,-0.094 l 6.5312,-11.9375 c 0,0 2.1063,-3.0625 6.5312,-3.0625 0.6743,0 1.2787,-0.034 1.875,-0.063 h 0.1562 c 0.5963,0.029 1.2007,0.063 1.875,0.063 4.4249,0 6.5312,3.0625 6.5312,3.0625 l 6.5312,11.9375 c 0.0122,0.03 0.0186,0.064 0.0312,0.094 1.1224,2.6453 3.7667,4.5 6.8125,4.5 4.061,0 7.3438,-3.3139 7.3438,-7.375 0,-0.9293 -0.1862,-1.8072 -0.5,-2.625 l -3.9375,-14.4375 c -0.1398,-1.523 -0.25,-4.1746 -0.25,-5.5001 0,-5.3019 -4.2918,-9.5938 -9.5938,-9.5938 -2.123,0 -4.0931,0.6782 -5.6875,1.8438 -1.1587,0.6611 -2.7094,1.75 -5.4688,1.75 H 51.5408 48.697 48.5408 45.697 44.8532 c -2.7594,0 -4.3101,-1.0889 -5.4688,-1.75 -1.5944,-1.1656 -3.5645,-1.8438 -5.6875,-1.8438 z m 29.5312,3.3125 c 0.837,0.004 1.6258,0.5228 1.9688,1.3438 0.4572,1.0946 -0.0304,2.3553 -1.125,2.8125 -1.0946,0.4572 -2.3553,-0.0617 -2.8125,-1.1562 -0.4572,-1.0945 0.0617,-2.3553 1.1562,-2.8125 0.2736,-0.1143 0.5335,-0.1888 0.8125,-0.1875 z m -29.1562,0.3438 c 0.7573,0.003 1.471,0.476 1.7812,1.2188 0.1034,0.2476 0.1573,0.4976 0.1562,0.75 v 2.8125 h 2.8438 c 0.7573,0.003 1.471,0.476 1.7812,1.2188 0.1034,0.2476 0.1572,0.4976 0.1562,0.75 -0.003,0.7573 -0.476,1.4709 -1.2188,1.7812 -0.2476,0.1036 -0.4663,0.1562 -0.7188,0.1562 h -2.8438 v 2.8126 c -8e-5,0.018 6e-4,0.014 0,0.031 -0.0235,0.7377 -0.4621,1.4783 -1.1875,1.7813 -0.9904,0.4137 -2.1176,-0.072 -2.5312,-1.0625 -0.0955,-0.2286 -0.1502,-0.4851 -0.1562,-0.7188 v -0.031 -2.8126 h -2.8125 -0.0625 c -0.7376,-0.0235 -1.447,-0.4934 -1.75,-1.2188 -0.4137,-0.9903 0.0721,-2.0863 1.0625,-2.5 0.2286,-0.0956 0.4539,-0.1815 0.6875,-0.1875 h 0.0625 2.8125 v -2.8125 c 0.003,-0.7573 0.476,-1.471 1.2188,-1.7812 0.2476,-0.1034 0.4663,-0.1884 0.7188,-0.1875 z m 23.9688,4.8438 c 0.837,0.004 1.6258,0.4916 1.9688,1.3125 0.4572,1.0946 -0.0617,2.3553 -1.1562,2.8125 -1.0945,0.4572 -2.324,-0.0617 -2.7812,-1.1562 -0.4572,-1.0945 0.0304,-2.3553 1.125,-2.8125 0.2736,-0.1143 0.5647,-0.1575 0.8438,-0.1562 z m 10,0.0625 c 0.837,0.004 1.6258,0.4916 1.9688,1.3125 0.4572,1.0946 -0.0304,2.3553 -1.125,2.8125 -1.0946,0.4572 -2.3553,-0.0617 -2.8125,-1.1562 -0.4572,-1.0945 0.0617,-2.3553 1.1562,-2.8125 0.2736,-0.1143 0.5335,-0.1575 0.8125,-0.1562 z m -5.1875,5.1563 c 0.837,0 1.6258,0.5228 1.9688,1.3438 0.4572,1.0946 -0.0617,2.3553 -1.1562,2.8125 -1.0945,0.4572 -2.324,-0.062 -2.7812,-1.1562 -0.4572,-1.0942 0.0304,-2.3554 1.125,-2.8125 0.2736,-0.1143 0.5647,-0.1888 0.8438,-0.1875 z"
       id="path35"
       inkscape:connector-curvature="0"
       style="fill:#ffffff" />
  </g>
</svg>
