<?xml version="1.0" encoding="UTF-8" standalone="no"?>
<svg
   xmlns:dc="http://purl.org/dc/elements/1.1/"
   xmlns:cc="http://creativecommons.org/ns#"
   xmlns:rdf="http://www.w3.org/1999/02/22-rdf-syntax-ns#"
   xmlns:svg="http://www.w3.org/2000/svg"
   xmlns="http://www.w3.org/2000/svg"
   xmlns:xlink="http://www.w3.org/1999/xlink"
   xmlns:sodipodi="http://sodipodi.sourceforge.net/DTD/sodipodi-0.dtd"
   xmlns:inkscape="http://www.inkscape.org/namespaces/inkscape"
   viewBox="0 0 96 96"
   id="svg2"
   version="1.1"
   inkscape:version="0.48.4 r9939"
   width="100%"
   height="100%"
   sodipodi:docname="nvidia.svg">
  <metadata
     id="metadata33">
    <rdf:RDF>
      <cc:Work
         rdf:about="">
        <dc:format>image/svg+xml</dc:format>
        <dc:type
           rdf:resource="http://purl.org/dc/dcmitype/StillImage" />
      </cc:Work>
    </rdf:RDF>
  </metadata>
  <sodipodi:namedview
     pagecolor="#ffffff"
     bordercolor="#666666"
     borderopacity="1"
     objecttolerance="10"
     gridtolerance="10"
     guidetolerance="10"
     inkscape:pageopacity="0"
     inkscape:pageshadow="2"
     inkscape:window-width="1294"
     inkscape:window-height="525"
     id="namedview31"
     showgrid="false"
     inkscape:zoom="2.4583333"
     inkscape:cx="128.94915"
     inkscape:cy="36.610169"
     inkscape:window-x="65"
     inkscape:window-y="24"
     inkscape:window-maximized="0"
     inkscape:current-layer="svg2" />
  <defs
     id="defs4">
    <linearGradient
       gradientTransform="matrix(0.96179,0,0,2.11089,1.83416,934.41518)"
       gradientUnits="userSpaceOnUse"
       id="linearGradient3197"
       x1="55.1439"
       x2="47.3628"
       y1="13.1091"
       y2="33.5999">
      <stop
         offset="0"
         stop-color="#fff"
         id="stop7" />
      <stop
         offset="1"
         stop-color="#fff"
         stop-opacity="0"
         id="stop9" />
    </linearGradient>
    <radialGradient
       cx="63.969"
       cy="14.113"
       gradientTransform="matrix(1.5647,-9.5143e-8,6.1772e-8,1.0159,-86.213,8.1461)"
       gradientUnits="userSpaceOnUse"
       id="radialGradient4154-0-1"
       r="23.097">
      <stop
         offset="0"
         stop-color="#80bf00"
         id="stop12" />
      <stop
         offset=".4"
         stop-color="#80bf00"
         id="stop14" />
      <stop
         offset="1"
         stop-color="#307800"
         id="stop16" />
    </radialGradient>
    <radialGradient
       cx="28.2041"
       cy="-.322"
       gradientTransform="matrix(4.67845,5.1067271e-8,-4.5897343e-8,4.20482,-84.44966,976.03941)"
       gradientUnits="userSpaceOnUse"
       id="radialGradient3206"
       r="23.097"
       xlink:href="#radialGradient4154-0-1" />
  </defs>
  <g
     transform="translate(0,-956.3622)"
     id="g19">
    <path
       d="m 13.0505,963.5905 h 69.8991 a 5.8249,5.8249 0 0 1 5.8249,5.8249 v 69.9216 a 5.8249,5.8249 0 0 1 -5.8249,5.8249 H 13.0505 a 5.8249,5.8249 0 0 1 -5.8249,-5.8249 v -69.9216 a 5.8249,5.8249 0 0 1 5.8249,-5.8249"
       id="path21"
       style="fill:url(#radialGradient3206)"
       inkscape:connector-curvature="0" />
    <path
       d="m 16.8899,963.5625 71.789,66.327 0.0854,-60.2405 c 0.0046,-3.2105 -2.3965,-6.0418 -5.5935,-6.0438 z"
       id="path23"
       style="opacity:0.34800002;fill:url(#linearGradient3197)"
       inkscape:connector-curvature="0" />
    <path
       d="m 42.9662,987.6914 c -0.2502,0.01 -0.4837,0.04 -0.7278,0.061 h -0.1213 c -13.3469,1.1344 -24.8658,12.4327 -24.8658,12.4327 0.0142,-0.1454 11.3678,20.4444 27.2917,20.863 9.7215,0 26.8479,-4.9994 34.2056,-11.1593 -1.0798,-1.0946 -6.298,-3.5818 -7.581,-4.6092 -7.7389,6.6798 -15.7553,12.3722 -26.8065,12.3722 -9.5816,-0.2102 -17.4658,-10.2137 -20.2565,-16.7997 3.0549,-4.2522 21.172,-19.5743 37.0561,-0.5457 0,0 -7.8105,10.7954 -16.1324,10.7954 -5.067,-0.099 -8.6403,-4.401 -10.3708,-9.158 0,0 3.2418,-3.8806 7.4597,-3.4567 h 0.1213 c 3.8794,0.5948 4.8067,2.5517 7.2778,6.6712 l 5.7009,-4.8519 c -3.4641,-3.4243 -6.7434,-5.8025 -13.1,-5.3369 -4.8907,0.66 -9.3065,2.9709 -12.9181,6.3678 -0.022,0.1572 3.9011,12.2054 15.6472,12.6756 11.8759,0 23.2889,-13.8278 23.2889,-13.8278 0,0 -9.9378,-13.0063 -25.169,-12.4935 z"
       id="path25"
       inkscape:connector-curvature="0"
       style="opacity:0.41100003;fill:#6e0000;stroke:#156e00;stroke-width:2.4000001" />
    <path
       d="m 42.9662,987.6914 c -0.2502,0.008 -0.4837,0.04 -0.7278,0.0607 h -0.1213 c -13.3469,1.1344 -24.8658,12.4327 -24.8658,12.4327 0.0142,-0.1454 11.3678,20.4444 27.2917,20.863 9.7215,0 26.8479,-4.9994 34.2056,-11.1593 -1.0798,-1.0946 -6.298,-3.5818 -7.581,-4.6092 -7.7389,6.6798 -15.7553,12.3722 -26.8065,12.3722 -9.5816,-0.2102 -17.4658,-10.2137 -20.2565,-16.7997 3.0549,-4.2522 21.172,-19.5743 37.0561,-0.5457 0,0 -7.8105,10.7954 -16.1324,10.7954 -5.067,-0.099 -8.6403,-4.401 -10.3708,-9.158 0,0 3.2418,-3.8806 7.4597,-3.4567 h 0.1213 c 3.8794,0.5948 4.8067,2.5517 7.2778,6.6712 l 5.7009,-4.8519 c -3.4641,-3.4243 -6.7434,-5.8025 -13.1,-5.3369 -4.8907,0.66 -9.3065,2.9709 -12.9181,6.3678 -0.022,0.1572 3.9011,12.2054 15.6472,12.6756 11.8759,0 23.2889,-13.8278 23.2889,-13.8278 0,0 -9.9378,-13.0063 -25.169,-12.4935 z"
       id="path27"
       inkscape:connector-curvature="0"
       style="fill:#ffffff" />
  </g>
</svg>
