<?xml version="1.0" encoding="UTF-8" standalone="no"?>
<svg
   xmlns:dc="http://purl.org/dc/elements/1.1/"
   xmlns:cc="http://creativecommons.org/ns#"
   xmlns:rdf="http://www.w3.org/1999/02/22-rdf-syntax-ns#"
   xmlns:svg="http://www.w3.org/2000/svg"
   xmlns="http://www.w3.org/2000/svg"
   xmlns:xlink="http://www.w3.org/1999/xlink"
   xmlns:sodipodi="http://sodipodi.sourceforge.net/DTD/sodipodi-0.dtd"
   xmlns:inkscape="http://www.inkscape.org/namespaces/inkscape"
   viewBox="0 0 96 96"
   id="svg2"
   version="1.1"
   inkscape:version="0.48.4 r9939"
   width="100%"
   height="100%"
   sodipodi:docname="power-management.svg">
  <metadata
     id="metadata178">
    <rdf:RDF>
      <cc:Work
         rdf:about="">
        <dc:format>image/svg+xml</dc:format>
        <dc:type
           rdf:resource="http://purl.org/dc/dcmitype/StillImage" />
      </cc:Work>
    </rdf:RDF>
  </metadata>
  <sodipodi:namedview
     pagecolor="#ffffff"
     bordercolor="#666666"
     borderopacity="1"
     objecttolerance="10"
     gridtolerance="10"
     guidetolerance="10"
     inkscape:pageopacity="0"
     inkscape:pageshadow="2"
     inkscape:window-width="820"
     inkscape:window-height="633"
     id="namedview176"
     showgrid="false"
     inkscape:zoom="6.9532167"
     inkscape:cx="50.271032"
     inkscape:cy="50.628461"
     inkscape:window-x="294"
     inkscape:window-y="122"
     inkscape:window-maximized="0"
     inkscape:current-layer="svg2" />
  <defs
     id="defs4">
    <clipPath
       id="clipPath4355">
      <path
         d="m12,6h72a6,6 0 0,1 6,6v68a6,6 0 0,1 -6,6h-72a6,6 0 0,1 -6-6v-68a6,6 0 0,1 6-6"
         id="path7" />
    </clipPath>
    <clipPath
       id="clipPath3823">
      <path
         d="m108.8125,58c-1.5581,0-2.8125,1.2544-2.8125,2.8125v24.375c0,1.5581 1.2544,2.8125 2.8125,2.8125h24.375c1.5581,0 2.8125-1.2544 2.8125-2.8125v-24.375c0-1.5581-1.2544-2.8125-2.8125-2.8125h-24.375zm7.1875,4.5h10v8.75h5l-10,13.75-10-13.75h5v-8.75z"
         id="path10" />
    </clipPath>
    <clipPath
       id="clipPath3613-2">
      <path
         d="m12,6h72a6,6 0 0,1 6,6v72a6,6 0 0,1 -6,6h-72a6,6 0 0,1 -6-6v-72a6,6 0 0,1 6-6"
         id="path13" />
    </clipPath>
    <filter
       id="filter3174-6">
      <feGaussianBlur
         stdDeviation="1.71"
         id="feGaussianBlur16" />
    </filter>
    <filter
       id="filter3831">
      <feGaussianBlur
         stdDeviation=".637"
         id="feGaussianBlur19" />
    </filter>
    <filter
       id="filter3806">
      <feGaussianBlur
         stdDeviation="1.2"
         id="feGaussianBlur22" />
    </filter>
    <filter
       height="1.384"
       id="filter3794-9"
       width="1.384"
       x="-.192"
       y="-.192">
      <feGaussianBlur
         stdDeviation="5.28"
         id="feGaussianBlur25" />
    </filter>
    <linearGradient
       id="linearGradient4013">
      <stop
         offset="0"
         stop-color="#fff"
         id="stop28" />
      <stop
         offset="1"
         stop-color="#fff"
         stop-opacity="0"
         id="stop30" />
    </linearGradient>
    <linearGradient
       gradientUnits="userSpaceOnUse"
       id="ButtonShadow-6"
       x2="0"
       y1="92"
       y2="6.9756">
      <stop
         offset="0"
         id="stop33" />
      <stop
         offset="1"
         stop-opacity=".588"
         id="stop35" />
    </linearGradient>
    <linearGradient
       gradientUnits="userSpaceOnUse"
       id="linearGradient6349"
       x2="0"
       y1="184.063"
       y2="142.4344">
      <stop
         offset="0"
         stop-color="#fff"
         stop-opacity=".18"
         id="stop38" />
      <stop
         offset="1"
         stop-color="#fff"
         stop-opacity=".3"
         id="stop40" />
    </linearGradient>
    <linearGradient
       gradientUnits="userSpaceOnUse"
       id="linearGradient3812"
       x2="0"
       y1="72.3783"
       y2="63.5428">
      <stop
         offset="0"
         id="stop43" />
      <stop
         offset="1"
         stop-opacity="0"
         id="stop45" />
    </linearGradient>
    <linearGradient
       gradientUnits="userSpaceOnUse"
       id="linearGradient3773"
       x1="-88"
       x2="-58">
      <stop
         offset="0"
         stop-color="#499119"
         id="stop48" />
      <stop
         offset="1"
         stop-color="#8fd625"
         id="stop50" />
    </linearGradient>
    <linearGradient
       gradientUnits="userSpaceOnUse"
       id="linearGradient10370"
       x2="0"
       y1="92.0027"
       y2="17.2663">
      <stop
         offset="0"
         id="stop53" />
      <stop
         offset="1"
         stop-opacity=".588"
         id="stop55" />
    </linearGradient>
    <linearGradient
       gradientTransform="matrix(.9297,.3684,-.3684,.9297,-479.9193,-252.3611)"
       gradientUnits="userSpaceOnUse"
       id="SVGID_8_"
       x2="0"
       y1="150.1484"
       y2="142.143">
      <stop
         offset="0"
         stop-color="#fff"
         id="stop58" />
      <stop
         offset="1"
         stop-color="#dadada"
         id="stop60" />
    </linearGradient>
    <linearGradient
       gradientTransform="matrix(0.96179,0,0,2.11089,1.83416,934.41518)"
       gradientUnits="userSpaceOnUse"
       id="linearGradient3197"
       x1="55.1439"
       x2="47.3628"
       xlink:href="#linearGradient4013"
       y1="13.1091"
       y2="33.5999" />
    <linearGradient
       gradientTransform="matrix(.9297,.3684,-.3684,.9297,-479.9193,-252.3611)"
       gradientUnits="userSpaceOnUse"
       id="linearGradient6347"
       x2="0"
       xlink:href="#SVGID_8_"
       y1="150.1484"
       y2="142.143" />
    <linearGradient
       gradientUnits="userSpaceOnUse"
       id="linearGradient9165"
       x2="0"
       xlink:href="#ButtonShadow-6"
       y1="92"
       y2="6.9756" />
    <linearGradient
       gradientUnits="userSpaceOnUse"
       id="linearGradient9247"
       x2="0"
       xlink:href="#linearGradient4013"
       y1="20.2208"
       y2="138.6612" />
    <linearGradient
       gradientUnits="userSpaceOnUse"
       id="linearGradient3788"
       x2="0"
       xlink:href="#linearGradient4013"
       y1="58"
       y2="79.095" />
    <linearGradient
       gradientUnits="userSpaceOnUse"
       id="linearGradient3832"
       x2="0"
       xlink:href="#linearGradient4013"
       y1="71.3783"
       y2="62.5428" />
    <radialGradient
       cx="63.969"
       cy="14.113"
       gradientTransform="matrix(1.5647,-9.5143e-8,6.1772e-8,1.0159,-86.213,8.1461)"
       gradientUnits="userSpaceOnUse"
       id="radialGradient23120"
       r="23.097">
      <stop
         offset="0"
         stop-color="#eec73e"
         id="stop69" />
      <stop
         offset=".4"
         stop-color="#f0a513"
         id="stop71" />
      <stop
         offset="1"
         stop-color="#f44800"
         id="stop73" />
    </radialGradient>
    <radialGradient
       cx="29.0949"
       cy="31.6017"
       gradientUnits="userSpaceOnUse"
       id="radialGradient3301"
       r="7.2449">
      <stop
         offset="0"
         stop-color="#ffe375"
         id="stop76" />
      <stop
         offset="1"
         stop-color="#ffa600"
         id="stop78" />
    </radialGradient>
    <radialGradient
       cx="32"
       cy="32"
       gradientUnits="userSpaceOnUse"
       id="radialGradient3299"
       r="8">
      <stop
         offset="0"
         stop-color="#ffb800"
         id="stop81" />
      <stop
         offset="1"
         stop-color="#ffb800"
         stop-opacity="0"
         id="stop83" />
    </radialGradient>
    <radialGradient
       cx="29.0949"
       cy="31.6017"
       gradientUnits="userSpaceOnUse"
       id="radialGradient4385"
       r="7.2449">
      <stop
         offset="0"
         stop-color="#84ffff"
         id="stop86" />
      <stop
         offset="1"
         stop-color="#0ff"
         id="stop88" />
    </radialGradient>
    <radialGradient
       cx="32"
       cy="32"
       gradientUnits="userSpaceOnUse"
       id="radialGradient4383"
       r="8">
      <stop
         offset="0"
         stop-color="#0ff"
         id="stop91" />
      <stop
         offset=".5"
         stop-color="#0ff"
         stop-opacity=".271"
         id="stop93" />
      <stop
         offset="1"
         stop-color="#0ff"
         stop-opacity="0"
         id="stop95" />
    </radialGradient>
    <radialGradient
       cx="29.0949"
       cy="31.6017"
       gradientUnits="userSpaceOnUse"
       id="radialGradient4343"
       r="7.2449">
      <stop
         offset="0"
         stop-color="#f17000"
         id="stop98" />
      <stop
         offset="1"
         stop-color="#f12d00"
         id="stop100" />
    </radialGradient>
    <radialGradient
       cx="32"
       cy="32"
       gradientUnits="userSpaceOnUse"
       id="radialGradient4341"
       r="8">
      <stop
         offset="0"
         stop-color="#ff430a"
         id="stop103" />
      <stop
         offset=".5"
         stop-color="#d44f00"
         stop-opacity=".279"
         id="stop105" />
      <stop
         offset="1"
         stop-color="#d40000"
         stop-opacity="0"
         id="stop107" />
    </radialGradient>
    <radialGradient
       cx="29.0949"
       cy="31.6017"
       gradientUnits="userSpaceOnUse"
       id="radialGradient4339"
       r="7.2449">
      <stop
         offset="0"
         stop-color="#a07ada"
         id="stop110" />
      <stop
         offset="1"
         stop-color="#7137c8"
         id="stop112" />
    </radialGradient>
    <radialGradient
       cx="32"
       cy="32"
       gradientUnits="userSpaceOnUse"
       id="radialGradient4337"
       r="8">
      <stop
         offset="0"
         stop-color="#7137c8"
         id="stop115" />
      <stop
         offset="1"
         stop-color="#7137c8"
         stop-opacity="0"
         id="stop117" />
    </radialGradient>
    <radialGradient
       cx="29.0949"
       cy="31.6017"
       gradientUnits="userSpaceOnUse"
       id="radialGradient4327"
       r="7.2449">
      <stop
         offset="0"
         stop-color="#ffacee"
         id="stop120" />
      <stop
         offset="1"
         stop-color="#f5d"
         id="stop122" />
    </radialGradient>
    <radialGradient
       cx="32"
       cy="32"
       gradientUnits="userSpaceOnUse"
       id="radialGradient4325"
       r="8">
      <stop
         offset="0"
         stop-color="#f5d"
         id="stop125" />
      <stop
         offset="1"
         stop-color="#f5d"
         stop-opacity="0"
         id="stop127" />
    </radialGradient>
    <radialGradient
       cx="29.0949"
       cy="31.6017"
       gradientUnits="userSpaceOnUse"
       id="radialGradient4323"
       r="7.2449">
      <stop
         offset="0"
         stop-color="#65ff65"
         id="stop130" />
      <stop
         offset="1"
         stop-color="#47d900"
         id="stop132" />
    </radialGradient>
    <radialGradient
       cx="32"
       cy="32"
       gradientUnits="userSpaceOnUse"
       id="radialGradient4321"
       r="8">
      <stop
         offset="0"
         stop-color="#6dd500"
         id="stop135" />
      <stop
         offset=".5"
         stop-color="#67df00"
         stop-opacity=".364"
         id="stop137" />
      <stop
         offset="1"
         stop-color="#62e900"
         stop-opacity="0"
         id="stop139" />
    </radialGradient>
    <radialGradient
       cx="28.2041"
       cy="-.322"
       gradientTransform="matrix(4.67564,5.1036626e-8,-4.5869801e-8,4.20229,-84.34898,976.05651)"
       gradientUnits="userSpaceOnUse"
       id="radialGradient10408"
       r="23.097"
       xlink:href="#radialGradient23120" />
  </defs>
  <g
     transform="translate(0,-956.3622)"
     id="g142">
    <path
       d="m 13.0926,963.615 h 69.8571 a 5.8214,5.8214 0 0 1 5.8214,5.8214 v 69.8796 a 5.8214,5.8214 0 0 1 -5.8214,5.8214 H 13.0926 a 5.8214,5.8214 0 0 1 -5.8214,-5.8214 v -69.8796 a 5.8214,5.8214 0 0 1 5.8214,-5.8214"
       id="path144"
       style="fill:url(#radialGradient10408)"
       inkscape:connector-curvature="0" />
    <path
       d="m 44.9375,983.6122 c -1.2101,0 -2.1875,0.9774 -2.1875,2.1875 l 0,1.6562 -2.4062,0 c -3.0075,0 -5.4375,2.4516 -5.4375,5.5 l 0,26.3125 c 0,3.0484 2.43,5.5 5.4375,5.5 l 14.5625,0 c 3.0075,0 5.4375,-2.4516 5.4375,-5.5 l 0,-26.3125 c 0,-3.0484 -2.43,-5.5 -5.4375,-5.5 l -2.4062,0 0,-1.6562 c 0,-1.2101 -0.9774,-2.1875 -2.1875,-2.1875 l -5.375,0 z m -4.068545,6.28764 13.51209,0 c 2.0567,0 3.7188,1.6621 3.7188,3.7188 l 0,11.56246 c 0,2.0567 -1.230645,3.4312 -3.287345,3.4312 l -14.375,0 c -2.0567,0 -3.287345,-1.3745 -3.287345,-3.4312 l 0,-11.56246 c 0,-2.0567 1.6621,-3.7188 3.7188,-3.7188 z"
       id="path146"
       inkscape:connector-curvature="0"
       style="opacity:0.41100003;fill:#e5a000;stroke:#5c0000;stroke-width:2.4000001"
       sodipodi:nodetypes="sscsssssssscsscssssssssss" />
    <path
       d="m 16.8899,963.5625 71.789,66.327 0.0854,-60.2405 c 0.0046,-3.2105 -2.3965,-6.0418 -5.5935,-6.0438 z"
       id="path148"
       style="opacity:0.34800002;fill:url(#linearGradient3197)"
       inkscape:connector-curvature="0" />
    <text
       font-size="20"
       letter-spacing="0"
       word-spacing="0"
       x="265.15491"
       xml:space="preserve"
       y="1019.1274"
       id="text150"
       style="font-size:20px;letter-spacing:0;word-spacing:0;font-family:Justus"><tspan
         x="265.15491"
         y="1019.1274"
         id="tspan152" /></text>
    <text
       font-size="20"
       letter-spacing="0"
       word-spacing="0"
       x="47.3508"
       xml:space="preserve"
       y="492.37259"
       id="text154"
       style="font-size:20px;letter-spacing:0;word-spacing:0;font-family:Justus"><tspan
         x="47.3508"
         y="492.37259"
         id="tspan156" /></text>
    <text
       font-size="20"
       letter-spacing="0"
       word-spacing="0"
       x="95.509499"
       xml:space="preserve"
       y="1185.3373"
       id="text158"
       style="font-size:20px;letter-spacing:0;word-spacing:0;font-family:Justus"><tspan
         x="95.509499"
         y="1185.3373"
         id="tspan160" /></text>
    <text
       font-size="20"
       letter-spacing="0"
       word-spacing="0"
       x="172.2231"
       xml:space="preserve"
       y="1016.5639"
       id="text162"
       style="font-size:20px;letter-spacing:0;word-spacing:0;font-family:Justus"><tspan
         x="172.2231"
         y="1016.5639"
         id="tspan164" /></text>
    <text
       font-size="20"
       letter-spacing="0"
       word-spacing="0"
       x="-45.580898"
       xml:space="preserve"
       y="489.80911"
       id="text166"
       style="font-size:20px;letter-spacing:0;word-spacing:0;font-family:Justus"><tspan
         x="-45.580898"
         y="489.80911"
         id="tspan168" /></text>
    <text
       font-size="20"
       letter-spacing="0"
       word-spacing="0"
       x="2.5776999"
       xml:space="preserve"
       y="1182.7738"
       id="text170"
       style="font-size:20px;letter-spacing:0;word-spacing:0;font-family:Justus"><tspan
         x="2.5776999"
         y="1182.7738"
         id="tspan172" /></text>
    <path
       d="m 44.9375,983.6122 c -1.2101,0 -2.1875,0.9774 -2.1875,2.1875 l 0,1.6562 -2.4062,0 c -3.0075,0 -5.4375,2.4516 -5.4375,5.5 l 0,26.3125 c 0,3.0484 2.43,5.5 5.4375,5.5 l 14.5625,0 c 3.0075,0 5.4375,-2.4516 5.4375,-5.5 l 0,-26.3125 c 0,-3.0484 -2.43,-5.5 -5.4375,-5.5 l -2.4062,0 0,-1.6562 c 0,-1.2101 -0.9774,-2.1875 -2.1875,-2.1875 l -5.375,0 z m -3.924727,6.28764 13.224454,0 c 2.0567,0 3.7188,1.6621 3.7188,3.7188 l 0,11.56246 c 0,2.0567 -1.6621,3.7188 -3.7188,3.7188 l -13.224454,0 c -2.0567,0 -3.7188,-1.6621 -3.7188,-3.7188 l 0,-11.56246 c 0,-2.0567 1.6621,-3.7188 3.7188,-3.7188 z"
       id="path174"
       inkscape:connector-curvature="0"
       style="fill:#ffffff"
       sodipodi:nodetypes="sscsssssssscsscssssssssss" />
  </g>
</svg>
