<?xml version="1.0" encoding="UTF-8" standalone="no"?>
<svg
   xmlns:dc="http://purl.org/dc/elements/1.1/"
   xmlns:cc="http://creativecommons.org/ns#"
   xmlns:rdf="http://www.w3.org/1999/02/22-rdf-syntax-ns#"
   xmlns:svg="http://www.w3.org/2000/svg"
   xmlns="http://www.w3.org/2000/svg"
   xmlns:xlink="http://www.w3.org/1999/xlink"
   xmlns:sodipodi="http://sodipodi.sourceforge.net/DTD/sodipodi-0.dtd"
   xmlns:inkscape="http://www.inkscape.org/namespaces/inkscape"
   viewBox="0 0 96 96"
   id="svg2"
   version="1.1"
   inkscape:version="0.48.4 r9939"
   width="100%"
   height="100%"
   sodipodi:docname="proxy-settings.svg">
  <metadata
     id="metadata137">
    <rdf:RDF>
      <cc:Work
         rdf:about="">
        <dc:format>image/svg+xml</dc:format>
        <dc:type
           rdf:resource="http://purl.org/dc/dcmitype/StillImage" />
      </cc:Work>
    </rdf:RDF>
  </metadata>
  <sodipodi:namedview
     pagecolor="#ffffff"
     bordercolor="#666666"
     borderopacity="1"
     objecttolerance="10"
     gridtolerance="10"
     guidetolerance="10"
     inkscape:pageopacity="0"
     inkscape:pageshadow="2"
     inkscape:window-width="923"
     inkscape:window-height="862"
     id="namedview135"
     showgrid="false"
     inkscape:zoom="4.9166667"
     inkscape:cx="50.204679"
     inkscape:cy="33.346014"
     inkscape:window-x="101"
     inkscape:window-y="51"
     inkscape:window-maximized="0"
     inkscape:current-layer="svg2" />
  <defs
     id="defs4">
    <radialGradient
       r="23.097"
       id="radialGradient3885"
       gradientUnits="userSpaceOnUse"
       gradientTransform="matrix(1.5647,-9.5143e-8,6.1772e-8,1.0159,-86.213,8.1461)"
       cy="14.113"
       cx="63.969">
      <stop
         id="stop3887"
         stop-color="#415c84"
         offset="0"
         style="stop-color:#9999cc;stop-opacity:1" />
      <stop
         id="stop3889"
         stop-color="#425d84"
         offset=".4"
         style="stop-color:#9999cc;stop-opacity:1" />
      <stop
         id="stop3891"
         stop-color="#202d41"
         offset="1" />
    </radialGradient>
    <clipPath
       id="clipPath4355">
      <path
         d="m12,6h72a6,6 0 0,1 6,6v68a6,6 0 0,1 -6,6h-72a6,6 0 0,1 -6-6v-68a6,6 0 0,1 6-6"
         id="path7" />
    </clipPath>
    <filter
       id="filter3174-6">
      <feGaussianBlur
         stdDeviation="1.71"
         id="feGaussianBlur10" />
    </filter>
    <filter
       height="1.384"
       id="filter3794-9"
       width="1.384"
       x="-.192"
       y="-.192">
      <feGaussianBlur
         stdDeviation="5.28"
         id="feGaussianBlur13" />
    </filter>
    <linearGradient
       id="linearGradient4013">
      <stop
         offset="0"
         stop-color="#fff"
         id="stop16" />
      <stop
         offset="1"
         stop-color="#fff"
         stop-opacity="0"
         id="stop18" />
    </linearGradient>
    <linearGradient
       gradientUnits="userSpaceOnUse"
       id="ButtonShadow-6"
       x2="0"
       y1="92"
       y2="6.9756">
      <stop
         offset="0"
         id="stop21" />
      <stop
         offset="1"
         stop-opacity=".588"
         id="stop23" />
    </linearGradient>
    <linearGradient
       gradientUnits="userSpaceOnUse"
       id="linearGradient6349"
       x2="0"
       y1="184.063"
       y2="142.4344">
      <stop
         offset="0"
         stop-color="#fff"
         stop-opacity=".18"
         id="stop26" />
      <stop
         offset="1"
         stop-color="#fff"
         stop-opacity=".3"
         id="stop28" />
    </linearGradient>
    <linearGradient
       gradientTransform="matrix(.9297,.3684,-.3684,.9297,-479.9193,-252.3611)"
       gradientUnits="userSpaceOnUse"
       id="SVGID_8_"
       x2="0"
       y1="150.1484"
       y2="142.143">
      <stop
         offset="0"
         stop-color="#fff"
         id="stop31" />
      <stop
         offset="1"
         stop-color="#dadada"
         id="stop33" />
    </linearGradient>
    <linearGradient
       gradientTransform="matrix(0.96179,0,0,2.11089,1.83416,934.41518)"
       gradientUnits="userSpaceOnUse"
       id="linearGradient3197"
       x1="55.1439"
       x2="47.3628"
       xlink:href="#linearGradient4013"
       y1="13.1091"
       y2="33.5999" />
    <linearGradient
       gradientTransform="matrix(.9297,.3684,-.3684,.9297,-479.9193,-252.3611)"
       gradientUnits="userSpaceOnUse"
       id="linearGradient6347"
       x2="0"
       xlink:href="#SVGID_8_"
       y1="150.1484"
       y2="142.143" />
    <linearGradient
       gradientUnits="userSpaceOnUse"
       id="linearGradient9165"
       x2="0"
       xlink:href="#ButtonShadow-6"
       y1="92"
       y2="6.9756" />
    <linearGradient
       gradientUnits="userSpaceOnUse"
       id="linearGradient9247"
       x2="0"
       xlink:href="#linearGradient4013"
       y1="20.2208"
       y2="138.6612" />
    <radialGradient
       cx="63.969"
       cy="14.113"
       gradientTransform="matrix(1.5647,-9.5143e-8,6.1772e-8,1.0159,-86.213,8.1461)"
       gradientUnits="userSpaceOnUse"
       id="radialGradient16213"
       r="23.097">
      <stop
         offset="0"
         stop-color="#415c84"
         id="stop40" />
      <stop
         offset=".4"
         stop-color="#425d84"
         id="stop42" />
      <stop
         offset="1"
         stop-color="#202d41"
         id="stop44" />
    </radialGradient>
    <radialGradient
       cx="29.0949"
       cy="31.6017"
       gradientUnits="userSpaceOnUse"
       id="radialGradient3301"
       r="7.2449">
      <stop
         offset="0"
         stop-color="#ffe375"
         id="stop47" />
      <stop
         offset="1"
         stop-color="#ffa600"
         id="stop49" />
    </radialGradient>
    <radialGradient
       cx="32"
       cy="32"
       gradientUnits="userSpaceOnUse"
       id="radialGradient3299"
       r="8">
      <stop
         offset="0"
         stop-color="#ffb800"
         id="stop52" />
      <stop
         offset="1"
         stop-color="#ffb800"
         stop-opacity="0"
         id="stop54" />
    </radialGradient>
    <radialGradient
       cx="29.0949"
       cy="31.6017"
       gradientUnits="userSpaceOnUse"
       id="radialGradient4385"
       r="7.2449">
      <stop
         offset="0"
         stop-color="#84ffff"
         id="stop57" />
      <stop
         offset="1"
         stop-color="#0ff"
         id="stop59" />
    </radialGradient>
    <radialGradient
       cx="32"
       cy="32"
       gradientUnits="userSpaceOnUse"
       id="radialGradient4383"
       r="8">
      <stop
         offset="0"
         stop-color="#0ff"
         id="stop62" />
      <stop
         offset=".5"
         stop-color="#0ff"
         stop-opacity=".271"
         id="stop64" />
      <stop
         offset="1"
         stop-color="#0ff"
         stop-opacity="0"
         id="stop66" />
    </radialGradient>
    <radialGradient
       cx="29.0949"
       cy="31.6017"
       gradientUnits="userSpaceOnUse"
       id="radialGradient4343"
       r="7.2449">
      <stop
         offset="0"
         stop-color="#f17000"
         id="stop69" />
      <stop
         offset="1"
         stop-color="#f12d00"
         id="stop71" />
    </radialGradient>
    <radialGradient
       cx="32"
       cy="32"
       gradientUnits="userSpaceOnUse"
       id="radialGradient4341"
       r="8">
      <stop
         offset="0"
         stop-color="#ff430a"
         id="stop74" />
      <stop
         offset=".5"
         stop-color="#d44f00"
         stop-opacity=".279"
         id="stop76" />
      <stop
         offset="1"
         stop-color="#d40000"
         stop-opacity="0"
         id="stop78" />
    </radialGradient>
    <radialGradient
       cx="29.0949"
       cy="31.6017"
       gradientUnits="userSpaceOnUse"
       id="radialGradient4339"
       r="7.2449">
      <stop
         offset="0"
         stop-color="#a07ada"
         id="stop81" />
      <stop
         offset="1"
         stop-color="#7137c8"
         id="stop83" />
    </radialGradient>
    <radialGradient
       cx="32"
       cy="32"
       gradientUnits="userSpaceOnUse"
       id="radialGradient4337"
       r="8">
      <stop
         offset="0"
         stop-color="#7137c8"
         id="stop86" />
      <stop
         offset="1"
         stop-color="#7137c8"
         stop-opacity="0"
         id="stop88" />
    </radialGradient>
    <radialGradient
       cx="29.0949"
       cy="31.6017"
       gradientUnits="userSpaceOnUse"
       id="radialGradient4327"
       r="7.2449">
      <stop
         offset="0"
         stop-color="#ffacee"
         id="stop91" />
      <stop
         offset="1"
         stop-color="#f5d"
         id="stop93" />
    </radialGradient>
    <radialGradient
       cx="32"
       cy="32"
       gradientUnits="userSpaceOnUse"
       id="radialGradient4325"
       r="8">
      <stop
         offset="0"
         stop-color="#f5d"
         id="stop96" />
      <stop
         offset="1"
         stop-color="#f5d"
         stop-opacity="0"
         id="stop98" />
    </radialGradient>
    <radialGradient
       cx="29.0949"
       cy="31.6017"
       gradientUnits="userSpaceOnUse"
       id="radialGradient4323"
       r="7.2449">
      <stop
         offset="0"
         stop-color="#65ff65"
         id="stop101" />
      <stop
         offset="1"
         stop-color="#47d900"
         id="stop103" />
    </radialGradient>
    <radialGradient
       cx="32"
       cy="32"
       gradientUnits="userSpaceOnUse"
       id="radialGradient4321"
       r="8">
      <stop
         offset="0"
         stop-color="#6dd500"
         id="stop106" />
      <stop
         offset=".5"
         stop-color="#67df00"
         stop-opacity=".364"
         id="stop108" />
      <stop
         offset="1"
         stop-color="#62e900"
         stop-opacity="0"
         id="stop110" />
    </radialGradient>
    <radialGradient
       cx="28.2041"
       cy="-.322"
       gradientTransform="matrix(4.67845,5.1067271e-8,-4.5897343e-8,4.20482,-84.44966,976.03941)"
       gradientUnits="userSpaceOnUse"
       id="radialGradient3206"
       r="23.097"
       xlink:href="#radialGradient16213" />
    <linearGradient
       inkscape:collect="always"
       xlink:href="#linearGradient3707-319-631"
       id="linearGradient3014"
       gradientUnits="userSpaceOnUse"
       gradientTransform="matrix(2.6133684,0,0,2.6133089,0.739842,1.821073)"
       x1="20"
       y1="43"
       x2="20"
       y2="2.6887112" />
    <linearGradient
       id="linearGradient3707-319-631">
      <stop
         id="stop4637"
         style="stop-color:#254b6d;stop-opacity:1"
         offset="0" />
      <stop
         id="stop4639"
         style="stop-color:#415b73;stop-opacity:1"
         offset="0.5" />
      <stop
         id="stop4641"
         style="stop-color:#6195b5;stop-opacity:1"
         offset="1" />
    </linearGradient>
    <linearGradient
       y2="2.6887112"
       x2="20"
       y1="43"
       x1="20"
       gradientTransform="matrix(2.6133684,0,0,2.6133089,100.57887,-15.306094)"
       gradientUnits="userSpaceOnUse"
       id="linearGradient3035"
       xlink:href="#linearGradient3707-319-631"
       inkscape:collect="always" />
    <linearGradient
       inkscape:collect="always"
       xlink:href="#linearGradient4013"
       id="linearGradient3861"
       gradientUnits="userSpaceOnUse"
       gradientTransform="matrix(0.96179,0,0,2.11089,1.83416,-21.94702)"
       x1="55.1439"
       y1="13.1091"
       x2="47.3628"
       y2="33.5999" />
    <radialGradient
       inkscape:collect="always"
       xlink:href="#radialGradient3885"
       id="radialGradient3864"
       gradientUnits="userSpaceOnUse"
       gradientTransform="matrix(4.67845,5.1067271e-8,-4.5897343e-8,4.20482,-84.44966,19.67721)"
       cx="28.2041"
       cy="-.322"
       r="23.097" />
  </defs>
  <path
     inkscape:connector-curvature="0"
     style="fill:url(#radialGradient3864)"
     id="path115"
     d="m 13.0505,7.2283 h 69.8991 a 5.8249,5.8249 0 0 1 5.8249,5.8249 v 69.9216 a 5.8249,5.8249 0 0 1 -5.8249,5.8249 H 13.0505 A 5.8249,5.8249 0 0 1 7.2256,82.9748 V 13.0532 a 5.8249,5.8249 0 0 1 5.8249,-5.8249" />
  <path
     inkscape:connector-curvature="0"
     style="opacity:0.34800002;fill:url(#linearGradient3861)"
     id="path117"
     d="m 16.8899,7.2003 71.789,66.327 0.0854,-60.2405 C 88.7689,10.0763 86.3678,7.245 83.1708,7.243 z" />
  <text
     style="font-size:20px;letter-spacing:0;word-spacing:0;font-family:Justus"
     id="text119"
     y="62.765179"
     xml:space="preserve"
     x="265.15491"
     word-spacing="0"
     letter-spacing="0"
     font-size="20"><tspan
       id="tspan121"
       y="62.765179"
       x="265.15491" /></text>
  <text
     style="font-size:20px;letter-spacing:0;word-spacing:0;font-family:Justus"
     id="text123"
     y="-463.98962"
     xml:space="preserve"
     x="47.3508"
     word-spacing="0"
     letter-spacing="0"
     font-size="20"><tspan
       id="tspan125"
       y="-463.98962"
       x="47.3508" /></text>
  <text
     style="font-size:20px;letter-spacing:0;word-spacing:0;font-family:Justus"
     id="text127"
     y="228.97508"
     xml:space="preserve"
     x="95.509499"
     word-spacing="0"
     letter-spacing="0"
     font-size="20"><tspan
       id="tspan129"
       y="228.97508"
       x="95.509499" /></text>
  <path
     style="fill:#ffffff;fill-opacity:1;fill-rule:nonzero;stroke:none"
     d="M 48.875 12.3125 L 44.15625 12.84375 L 38.96875 14.28125 C 39.41022 14.125958 39.855059 13.961182 40.3125 13.8125 L 39.71875 12.71875 L 37.6875 13.0625 L 36.6875 14 L 35.15625 14.21875 L 33.71875 14.875 L 33.0625 15.21875 L 32.84375 15.5 L 31.84375 15.6875 L 31.25 16.96875 L 30.4375 15.34375 L 30.15625 16.03125 L 30.3125 17.875 L 29.03125 18.9375 L 28.28125 20.90625 L 29.8125 20.90625 L 30.4375 19.625 L 30.625 19.15625 C 31.305669 18.672513 31.962987 18.121879 32.65625 17.65625 L 34.28125 18.1875 C 35.332974 18.905576 36.384907 19.658013 37.4375 20.375 L 38.96875 18.9375 L 37.21875 18.1875 L 36.4375 16.5625 L 33.46875 16.25 L 33.40625 15.90625 L 34.6875 16.15625 L 35.40625 15.4375 L 37.03125 15.09375 C 37.413524 14.906912 37.801605 14.777071 38.1875 14.625 L 37.15625 15.5625 L 40.8125 18.0625 L 40.8125 19.5625 L 39.375 20.96875 L 41.28125 24.75 L 42.5625 24 L 44.15625 21.5 C 46.427339 20.79437 48.481456 19.975965 50.625 19 L 50.5 19.96875 L 51.5625 20.6875 L 53.4375 19.40625 L 52.5 18.34375 L 51.21875 19.0625 L 50.8125 18.9375 C 50.90526 18.8949 51.000592 18.8558 51.09375 18.8125 L 52.96875 13.9375 L 48.875 12.3125 z M 30.4375 19.625 L 31.96875 20.6875 L 33.25 20.6875 L 33.25 19.40625 L 31.71875 18.75 L 30.4375 19.625 z M 66.1875 18.75 L 63.40625 19.40625 L 61.65625 20.5625 L 61.65625 21.59375 L 58.90625 23.34375 L 59.4375 25.96875 L 61.0625 24.8125 L 62.0625 25.96875 L 63.21875 26.65625 L 63.9375 24.6875 L 63.5625 23.53125 L 63.9375 22.71875 L 65.5625 21.25 L 66.3125 21.25 L 65.5625 22.875 L 65.5625 24.34375 C 66.228307 24.161619 66.912393 24.085139 67.59375 24 L 65.6875 25.375 L 65.5625 26.1875 L 63.40625 28 L 61.1875 27.46875 L 61.1875 26.1875 L 60.1875 26.84375 L 60.65625 28 L 59.03125 28 L 58.15625 29.5 L 35.4375 29.5 L 35.625 28.875 L 34.75 28.0625 L 33.8125 27.8125 L 34.0625 26.78125 L 33.3125 25.375 L 31.65625 26.03125 L 31.90625 24.75 L 29.96875 23.625 L 28.40625 26.3125 L 28.5625 27.25 L 27 27.9375 L 26.0625 30.03125 L 25.59375 28.0625 L 22.96875 27 L 22.5 25.5 L 26.0625 23.46875 L 27.59375 22 L 27.75 20.21875 L 26.875 19.75 L 25.71875 19.625 L 25.0625 21.375 C 25.0625 21.375 23.864871 21.581195 23.5625 21.65625 C 19.700909 25.232312 11.906442 32.988991 10.09375 47.5625 C 10.16552 47.900388 11.375 49.84375 11.375 49.84375 L 14.34375 51.625 L 17.3125 52.4375 L 18.59375 53.96875 L 20.53125 55.46875 L 21.6875 55.25 L 22.5 55.65625 L 22.5 55.9375 L 21.40625 59 L 20.53125 60.28125 L 20.8125 60.875 L 20.125 63.3125 L 22.625 67.90625 L 25.1875 70.15625 L 26.3125 71.78125 L 26.1875 75.15625 L 27 77.03125 L 26.1875 80.6875 C 26.1875 80.6875 26.07972 80.66303 26.1875 81.03125 C 26.296234 81.399666 30.68921 83.89629 30.96875 83.6875 C 31.24733 83.474808 31.5 83.28125 31.5 83.28125 L 31.25 82.46875 L 32.375 81.375 L 32.78125 80.21875 L 34.59375 79.625 L 36.03125 76.09375 L 35.625 75.15625 L 36.5625 73.65625 L 38.71875 73.1875 L 39.78125 70.625 L 39.53125 67.4375 L 40.1875 66.5 L 60.09375 66.5 L 60.09375 56.875 L 61.0625 56.875 L 62.1875 58.1875 L 61.53125 60.46875 L 62.875 62.03125 L 62.8125 64.75 L 63.8125 66.6875 L 63.0625 68.375 C 62.99032 69.587807 62.9375 70.755752 62.9375 71.96875 C 63.531351 73.61207 64.126747 75.251112 64.6875 76.90625 L 65.09375 79.5625 L 65.09375 80.90625 L 66.1875 80.90625 L 67.71875 79.875 L 69.59375 79.875 L 72.4375 76.71875 L 72.09375 75.625 L 73.96875 73.9375 L 72.5625 72.375 L 74.25 71.03125 L 75.875 70 L 76.59375 69.1875 L 76.125 67.375 L 76.125 62.78125 L 77.40625 59.9375 L 79.03125 58.1875 L 80.78125 53.84375 L 80.78125 52.6875 C 79.910406 52.797745 79.070854 52.907827 78.21875 52.96875 L 79.96875 51.21875 L 82.40625 49.59375 L 83.6875 48.09375 L 83.6875 46.46875 C 83.397454 45.919048 83.104541 45.330951 82.8125 44.78125 L 81.65625 46.125 L 80.78125 45.125 L 79.5 44.09375 L 79.5 42 L 80.96875 43.6875 L 82.65625 43.5 C 83.415362 44.192542 84.146687 44.805246 84.8125 45.59375 L 85.90625 44.375 C 85.90625 43.064237 84.425159 36.600854 81.25 31.125 C 78.074852 25.650955 72.499995 20.625 72.5 20.625 L 72.09375 21.375 L 70.625 23 L 68.71875 21.03125 L 70.625 21.03125 L 71.5 20.09375 L 68 19.40625 L 66.1875 18.75 z M 54.59375 22.875 L 54.59375 23.9375 L 55.1875 24.625 L 55.1875 26.25 L 54.875 28.40625 L 56.625 28.0625 L 57.90625 26.78125 L 56.75 25.71875 C 56.378941 24.725752 55.995666 23.827415 55.53125 22.875 L 54.59375 22.875 z M 53.125 25.03125 L 52.03125 25.375 L 52.3125 27.34375 L 53.71875 26.59375 L 53.125 25.03125 z M 34.6875 30.03125 L 34.6875 59.1875 C 34.65427 59.17032 34.62699 59.14218 34.59375 59.125 L 33.46875 56.875 L 31.375 56.40625 L 30.21875 53.375 L 27.46875 53.71875 L 25.0625 51.9375 L 22.5 54.1875 L 22.5 54.53125 C 21.733924 54.309032 20.80713 54.265238 20.125 53.84375 L 19.59375 52.21875 L 19.59375 50.46875 L 17.84375 50.65625 C 17.984579 49.536036 18.170695 48.401269 18.3125 47.28125 L 17.3125 47.28125 L 16.3125 48.5625 L 15.34375 49.03125 L 13.9375 48.21875 L 13.8125 46.46875 L 14.0625 44.5625 L 16.15625 42.96875 L 17.84375 42.96875 L 18.1875 42 L 20.28125 42.46875 L 21.8125 44.4375 L 22.09375 41.1875 L 24.78125 38.96875 L 25.71875 36.59375 L 27.75 35.78125 L 28.8125 34.15625 L 31.375 33.6875 L 32.65625 31.78125 L 28.8125 31.78125 L 31.25 30.65625 L 32.9375 30.65625 L 34.6875 30.03125 z M 55.1875 30.90625 L 58.96875 30.90625 L 58.96875 65.09375 L 37.03125 65.09375 L 54.96875 58.9375 L 55.1875 30.90625 z M 61.1875 33.5625 L 62.40625 34.90625 L 63.6875 35.59375 L 62.9375 37.0625 L 64.09375 36.71875 L 64.6875 35.25 L 63.21875 33.5625 L 63.8125 33.5625 L 65.3125 34.78125 L 65.5625 36.40625 L 66.84375 37.875 L 67.1875 35.71875 L 67.84375 35.375 C 68.560192 36.122433 69.14658 37.03381 69.75 37.875 L 71.96875 38.03125 L 73.25 38.84375 L 72.625 39.71875 L 71.34375 40.84375 L 69.46875 40.84375 L 66.96875 40.03125 L 65.6875 40.1875 L 64.75 41.25 L 62.0625 38.5625 L 60.1875 38.03125 L 60.09375 38.03125 L 60.09375 33.84375 L 61.1875 33.5625 z M 72.84375 42.8125 L 74.4375 44.71875 L 76.40625 48.90625 L 77.625 50.25 L 77 51.6875 L 78.09375 52.96875 C 77.599549 53.00162 77.101704 53.03125 76.59375 53.03125 C 75.670994 51.082627 74.952685 49.132318 74.25 47.09375 L 73.03125 45.71875 L 72.375 43.28125 L 72.84375 42.8125 z "
     id="path6534" />
</svg>
