<?xml version="1.0" encoding="UTF-8" standalone="no"?>
<svg
   xmlns:dc="http://purl.org/dc/elements/1.1/"
   xmlns:cc="http://creativecommons.org/ns#"
   xmlns:rdf="http://www.w3.org/1999/02/22-rdf-syntax-ns#"
   xmlns:svg="http://www.w3.org/2000/svg"
   xmlns="http://www.w3.org/2000/svg"
   xmlns:xlink="http://www.w3.org/1999/xlink"
   xmlns:sodipodi="http://sodipodi.sourceforge.net/DTD/sodipodi-0.dtd"
   xmlns:inkscape="http://www.inkscape.org/namespaces/inkscape"
   viewBox="0 0 96 96"
   id="svg2"
   version="1.1"
   inkscape:version="0.48.4 r9939"
   width="100%"
   height="100%"
   sodipodi:docname="remote-desktop.svg">
  <metadata
     id="metadata161">
    <rdf:RDF>
      <cc:Work
         rdf:about="">
        <dc:format>image/svg+xml</dc:format>
        <dc:type
           rdf:resource="http://purl.org/dc/dcmitype/StillImage" />
      </cc:Work>
    </rdf:RDF>
  </metadata>
  <sodipodi:namedview
     pagecolor="#ffffff"
     bordercolor="#666666"
     borderopacity="1"
     objecttolerance="10"
     gridtolerance="10"
     guidetolerance="10"
     inkscape:pageopacity="0"
     inkscape:pageshadow="2"
     inkscape:window-width="928"
     inkscape:window-height="714"
     id="namedview159"
     showgrid="false"
     inkscape:zoom="2.8284271"
     inkscape:cx="64.395379"
     inkscape:cy="30.568326"
     inkscape:window-x="181"
     inkscape:window-y="154"
     inkscape:window-maximized="0"
     inkscape:current-layer="svg2" />
  <defs
     id="defs4">
    <clipPath
       id="clipPath4355">
      <path
         d="m12,6h72a6,6 0 0,1 6,6v68a6,6 0 0,1 -6,6h-72a6,6 0 0,1 -6-6v-68a6,6 0 0,1 6-6"
         id="path7" />
    </clipPath>
    <clipPath
       id="clipPath3823">
      <path
         d="m108.8125,58c-1.5581,0-2.8125,1.2544-2.8125,2.8125v24.375c0,1.5581 1.2544,2.8125 2.8125,2.8125h24.375c1.5581,0 2.8125-1.2544 2.8125-2.8125v-24.375c0-1.5581-1.2544-2.8125-2.8125-2.8125h-24.375zm7.1875,4.5h10v8.75h5l-10,13.75-10-13.75h5v-8.75z"
         id="path10" />
    </clipPath>
    <clipPath
       id="clipPath3613-2">
      <path
         d="m12,6h72a6,6 0 0,1 6,6v72a6,6 0 0,1 -6,6h-72a6,6 0 0,1 -6-6v-72a6,6 0 0,1 6-6"
         id="path13" />
    </clipPath>
    <filter
       id="filter3174-6">
      <feGaussianBlur
         stdDeviation="1.71"
         id="feGaussianBlur16" />
    </filter>
    <filter
       id="filter3831">
      <feGaussianBlur
         stdDeviation=".637"
         id="feGaussianBlur19" />
    </filter>
    <filter
       id="filter3806">
      <feGaussianBlur
         stdDeviation="1.2"
         id="feGaussianBlur22" />
    </filter>
    <filter
       height="1.384"
       id="filter3794-9"
       width="1.384"
       x="-.192"
       y="-.192">
      <feGaussianBlur
         stdDeviation="5.28"
         id="feGaussianBlur25" />
    </filter>
    <linearGradient
       id="linearGradient4013">
      <stop
         offset="0"
         stop-color="#fff"
         id="stop28" />
      <stop
         offset="1"
         stop-color="#fff"
         stop-opacity="0"
         id="stop30" />
    </linearGradient>
    <linearGradient
       gradientUnits="userSpaceOnUse"
       id="ButtonShadow-6"
       x2="0"
       y1="92"
       y2="6.9756">
      <stop
         offset="0"
         id="stop33" />
      <stop
         offset="1"
         stop-opacity=".588"
         id="stop35" />
    </linearGradient>
    <linearGradient
       gradientUnits="userSpaceOnUse"
       id="linearGradient6349"
       x2="0"
       y1="184.063"
       y2="142.4344">
      <stop
         offset="0"
         stop-color="#fff"
         stop-opacity=".18"
         id="stop38" />
      <stop
         offset="1"
         stop-color="#fff"
         stop-opacity=".3"
         id="stop40" />
    </linearGradient>
    <linearGradient
       gradientUnits="userSpaceOnUse"
       id="linearGradient3812"
       x2="0"
       y1="72.3783"
       y2="63.5428">
      <stop
         offset="0"
         id="stop43" />
      <stop
         offset="1"
         stop-opacity="0"
         id="stop45" />
    </linearGradient>
    <linearGradient
       gradientUnits="userSpaceOnUse"
       id="linearGradient3773"
       x1="-88"
       x2="-58">
      <stop
         offset="0"
         stop-color="#499119"
         id="stop48" />
      <stop
         offset="1"
         stop-color="#8fd625"
         id="stop50" />
    </linearGradient>
    <linearGradient
       gradientTransform="matrix(.9297,.3684,-.3684,.9297,-479.9193,-252.3611)"
       gradientUnits="userSpaceOnUse"
       id="SVGID_8_"
       x2="0"
       y1="150.1484"
       y2="142.143">
      <stop
         offset="0"
         stop-color="#fff"
         id="stop53" />
      <stop
         offset="1"
         stop-color="#dadada"
         id="stop55" />
    </linearGradient>
    <linearGradient
       gradientTransform="matrix(0.96179,0,0,2.11089,1.83416,934.41518)"
       gradientUnits="userSpaceOnUse"
       id="linearGradient3197"
       x1="55.1439"
       x2="47.3628"
       xlink:href="#linearGradient4013"
       y1="13.1091"
       y2="33.5999" />
    <linearGradient
       gradientTransform="matrix(.9297,.3684,-.3684,.9297,-479.9193,-252.3611)"
       gradientUnits="userSpaceOnUse"
       id="linearGradient6347"
       x2="0"
       xlink:href="#SVGID_8_"
       y1="150.1484"
       y2="142.143" />
    <linearGradient
       gradientUnits="userSpaceOnUse"
       id="linearGradient9165"
       x2="0"
       xlink:href="#ButtonShadow-6"
       y1="92"
       y2="6.9756" />
    <linearGradient
       gradientUnits="userSpaceOnUse"
       id="linearGradient9247"
       x2="0"
       xlink:href="#linearGradient4013"
       y1="20.2208"
       y2="138.6612" />
    <linearGradient
       gradientUnits="userSpaceOnUse"
       id="linearGradient3788"
       x2="0"
       xlink:href="#linearGradient4013"
       y1="58"
       y2="79.095" />
    <linearGradient
       gradientUnits="userSpaceOnUse"
       id="linearGradient3832"
       x2="0"
       xlink:href="#linearGradient4013"
       y1="71.3783"
       y2="62.5428" />
    <radialGradient
       cx="63.969"
       cy="14.113"
       gradientTransform="matrix(1.5647,-9.5143e-8,6.1772e-8,1.0159,-86.213,8.1461)"
       gradientUnits="userSpaceOnUse"
       id="radialGradient16213"
       r="23.097">
      <stop
         offset="0"
         stop-color="#be7a00"
         id="stop64" />
      <stop
         offset=".4"
         stop-color="#be7a00"
         id="stop66" />
      <stop
         offset="1"
         stop-color="#654100"
         id="stop68" />
    </radialGradient>
    <radialGradient
       cx="29.0949"
       cy="31.6017"
       gradientUnits="userSpaceOnUse"
       id="radialGradient3301"
       r="7.2449">
      <stop
         offset="0"
         stop-color="#ffe375"
         id="stop71" />
      <stop
         offset="1"
         stop-color="#ffa600"
         id="stop73" />
    </radialGradient>
    <radialGradient
       cx="32"
       cy="32"
       gradientUnits="userSpaceOnUse"
       id="radialGradient3299"
       r="8">
      <stop
         offset="0"
         stop-color="#ffb800"
         id="stop76" />
      <stop
         offset="1"
         stop-color="#ffb800"
         stop-opacity="0"
         id="stop78" />
    </radialGradient>
    <radialGradient
       cx="29.0949"
       cy="31.6017"
       gradientUnits="userSpaceOnUse"
       id="radialGradient4385"
       r="7.2449">
      <stop
         offset="0"
         stop-color="#84ffff"
         id="stop81" />
      <stop
         offset="1"
         stop-color="#0ff"
         id="stop83" />
    </radialGradient>
    <radialGradient
       cx="32"
       cy="32"
       gradientUnits="userSpaceOnUse"
       id="radialGradient4383"
       r="8">
      <stop
         offset="0"
         stop-color="#0ff"
         id="stop86" />
      <stop
         offset=".5"
         stop-color="#0ff"
         stop-opacity=".271"
         id="stop88" />
      <stop
         offset="1"
         stop-color="#0ff"
         stop-opacity="0"
         id="stop90" />
    </radialGradient>
    <radialGradient
       cx="29.0949"
       cy="31.6017"
       gradientUnits="userSpaceOnUse"
       id="radialGradient4343"
       r="7.2449">
      <stop
         offset="0"
         stop-color="#f17000"
         id="stop93" />
      <stop
         offset="1"
         stop-color="#f12d00"
         id="stop95" />
    </radialGradient>
    <radialGradient
       cx="32"
       cy="32"
       gradientUnits="userSpaceOnUse"
       id="radialGradient4341"
       r="8">
      <stop
         offset="0"
         stop-color="#ff430a"
         id="stop98" />
      <stop
         offset=".5"
         stop-color="#d44f00"
         stop-opacity=".279"
         id="stop100" />
      <stop
         offset="1"
         stop-color="#d40000"
         stop-opacity="0"
         id="stop102" />
    </radialGradient>
    <radialGradient
       cx="29.0949"
       cy="31.6017"
       gradientUnits="userSpaceOnUse"
       id="radialGradient4339"
       r="7.2449">
      <stop
         offset="0"
         stop-color="#a07ada"
         id="stop105" />
      <stop
         offset="1"
         stop-color="#7137c8"
         id="stop107" />
    </radialGradient>
    <radialGradient
       cx="32"
       cy="32"
       gradientUnits="userSpaceOnUse"
       id="radialGradient4337"
       r="8">
      <stop
         offset="0"
         stop-color="#7137c8"
         id="stop110" />
      <stop
         offset="1"
         stop-color="#7137c8"
         stop-opacity="0"
         id="stop112" />
    </radialGradient>
    <radialGradient
       cx="29.0949"
       cy="31.6017"
       gradientUnits="userSpaceOnUse"
       id="radialGradient4327"
       r="7.2449">
      <stop
         offset="0"
         stop-color="#ffacee"
         id="stop115" />
      <stop
         offset="1"
         stop-color="#f5d"
         id="stop117" />
    </radialGradient>
    <radialGradient
       cx="32"
       cy="32"
       gradientUnits="userSpaceOnUse"
       id="radialGradient4325"
       r="8">
      <stop
         offset="0"
         stop-color="#f5d"
         id="stop120" />
      <stop
         offset="1"
         stop-color="#f5d"
         stop-opacity="0"
         id="stop122" />
    </radialGradient>
    <radialGradient
       cx="29.0949"
       cy="31.6017"
       gradientUnits="userSpaceOnUse"
       id="radialGradient4323"
       r="7.2449">
      <stop
         offset="0"
         stop-color="#65ff65"
         id="stop125" />
      <stop
         offset="1"
         stop-color="#47d900"
         id="stop127" />
    </radialGradient>
    <radialGradient
       cx="32"
       cy="32"
       gradientUnits="userSpaceOnUse"
       id="radialGradient4321"
       r="8">
      <stop
         offset="0"
         stop-color="#6dd500"
         id="stop130" />
      <stop
         offset=".5"
         stop-color="#67df00"
         stop-opacity=".364"
         id="stop132" />
      <stop
         offset="1"
         stop-color="#62e900"
         stop-opacity="0"
         id="stop134" />
    </radialGradient>
    <radialGradient
       cx="28.2041"
       cy="-.322"
       gradientTransform="matrix(4.67845,5.1067271e-8,-4.5897343e-8,4.20482,-84.44966,976.02541)"
       gradientUnits="userSpaceOnUse"
       id="radialGradient3206"
       r="23.097"
       xlink:href="#radialGradient16213" />
    <linearGradient
       inkscape:collect="always"
       xlink:href="#linearGradient4013"
       id="linearGradient3083"
       gradientUnits="userSpaceOnUse"
       gradientTransform="matrix(0.96179,0,0,2.11089,1.83416,-21.94702)"
       x1="55.1439"
       y1="13.1091"
       x2="47.3628"
       y2="33.5999" />
    <radialGradient
       inkscape:collect="always"
       xlink:href="#radialGradient16213"
       id="radialGradient3086"
       gradientUnits="userSpaceOnUse"
       gradientTransform="matrix(4.67845,5.1067271e-8,-4.5897343e-8,4.20482,-84.44966,19.66321)"
       cx="28.2041"
       cy="-.322"
       r="23.097" />
  </defs>
  <path
     inkscape:connector-curvature="0"
     style="fill:url(#radialGradient3086)"
     id="path139"
     d="m 13.0505,7.2143 h 69.8991 a 5.8249,5.8249 0 0 1 5.8249,5.8249 v 69.9216 a 5.8249,5.8249 0 0 1 -5.8249,5.8249 H 13.0505 A 5.8249,5.8249 0 0 1 7.2256,82.9608 V 13.0392 a 5.8249,5.8249 0 0 1 5.8249,-5.8249" />
  <path
     inkscape:connector-curvature="0"
     style="opacity:0.34800002;fill:url(#linearGradient3083)"
     id="path141"
     d="m 16.8899,7.2003 71.789,66.327 0.0854,-60.2405 C 88.7689,10.0763 86.3678,7.245 83.1708,7.243 z" />
  <text
     style="font-size:20px;letter-spacing:0;word-spacing:0;font-family:Justus"
     id="text143"
     y="62.765179"
     xml:space="preserve"
     x="265.15491"
     word-spacing="0"
     letter-spacing="0"
     font-size="20"><tspan
       id="tspan145"
       y="62.765179"
       x="265.15491" /></text>
  <text
     style="font-size:20px;letter-spacing:0;word-spacing:0;font-family:Justus"
     id="text147"
     y="-463.98962"
     xml:space="preserve"
     x="47.3508"
     word-spacing="0"
     letter-spacing="0"
     font-size="20"><tspan
       id="tspan149"
       y="-463.98962"
       x="47.3508" /></text>
  <text
     style="font-size:20px;letter-spacing:0;word-spacing:0;font-family:Justus"
     id="text151"
     y="228.97508"
     xml:space="preserve"
     x="95.509499"
     word-spacing="0"
     letter-spacing="0"
     font-size="20"><tspan
       id="tspan153"
       y="228.97508"
       x="95.509499" /></text>
  <g
     transform="translate(-7.051729,7.101985)"
     id="g3119"
     style="opacity:0.41100003;color:#000000;fill:#3a2222;fill-opacity:1;fill-rule:nonzero;stroke:#3a2222;stroke-width:2.4000001;stroke-linecap:butt;stroke-linejoin:miter;stroke-miterlimit:4;stroke-opacity:1;stroke-dasharray:none;stroke-dashoffset:0;marker:none;visibility:visible;display:inline;overflow:visible;enable-background:accumulate">
    <path
       style="color:#000000;fill:#3a2222;fill-opacity:1;fill-rule:nonzero;stroke:#3a2222;stroke-width:2.4000001;stroke-linecap:butt;stroke-linejoin:miter;stroke-miterlimit:4;stroke-opacity:1;stroke-dasharray:none;stroke-dashoffset:0;marker:none;visibility:visible;display:inline;overflow:visible;enable-background:accumulate"
       d="m 41.75707,42.76916 c -0.994666,0 -1.78125,1.172408 -1.78125,2.625 l 0,14.90625 c 0,1.452592 0.786584,2.625 1.78125,2.625 l 8.28125,0 0,0.28125 c 0,1.452592 0.817834,2.625 1.8125,2.625 l 6.53125,0 c 0.994666,0 1.78125,-1.172408 1.78125,-2.625 l 0,-0.28125 8.53125,0 c 0.994666,0 1.78125,-1.172408 1.78125,-2.625 l 0,-14.90625 c 0,-1.452592 -0.786584,-2.625 -1.78125,-2.625 l -26.9375,0 z m 2.0625,2.03125 22.8125,0 c 0.913802,0 1.65625,0.742448 1.65625,1.65625 l 0,12.8125 c 0,0.913802 -0.742448,1.625 -1.65625,1.625 l -22.8125,0 c -0.913802,0 -1.65625,-0.711198 -1.65625,-1.625 l 0,-12.8125 c 0,-0.913802 0.742448,-1.65625 1.65625,-1.65625 z m 4.84375,21.96875 c -0.994666,0 -1.78125,0.723366 -1.78125,1.625 l 0,0.28125 c 0,0.901634 0.786584,1.625 1.78125,1.625 l 13.4375,0 c 0.994666,0 1.8125,-0.723366 1.8125,-1.625 l 0,-0.28125 c 0,-0.901634 -0.817834,-1.625 -1.8125,-1.625 l -13.4375,0 z"
       id="path3121"
       inkscape:connector-curvature="0" />
    <path
       style="color:#000000;fill:#3a2222;fill-opacity:1;fill-rule:nonzero;stroke:#3a2222;stroke-width:2.4000001;stroke-linecap:butt;stroke-linejoin:miter;stroke-miterlimit:4;stroke-opacity:1;stroke-dasharray:none;stroke-dashoffset:0;marker:none;visibility:visible;display:inline;overflow:visible;enable-background:accumulate"
       d="m 59.915784,11.496822 c -3.971304,-0.06323 -9.149871,2.368621 -13.53125,6.75 -6.372915,6.372915 -8.636499,14.457251 -5.0625,18.03125 3.573999,3.573999 11.627085,1.279165 18,-5.09375 6.372915,-6.372915 8.636499,-14.426001 5.0625,-18 -1.116875,-1.116875 -2.663612,-1.658759 -4.46875,-1.6875 z m 8.21875,8.0625 c -0.916206,4.092128 -3.547758,8.766508 -7.625,12.84375 -4.07177,4.07177 -8.724339,6.705353 -12.8125,7.625 5.417924,1.559841 11.65248,0.09752 16.09375,-4.34375 4.450273,-4.450273 5.919083,-10.699425 4.34375,-16.125 z M 53.700742,23.6875 c 1.525825,-0.07323 3.657295,0.844795 4.15625,1.34375 0.665273,0.665273 0.24877,2.15748 -0.9375,3.34375 -1.18627,1.18627 -2.709727,1.602773 -3.375,0.9375 -0.665273,-0.665273 -2.28002,-4.00123 -1.09375,-5.1875 0.296567,-0.296567 0.741392,-0.41309 1.25,-0.4375 z"
       id="path3123"
       inkscape:connector-curvature="0"
       sodipodi:nodetypes="sssssscscscssssss" />
  </g>
  <g
     id="g3115"
     transform="translate(-7.0517288,7.1019854)">
    <path
       inkscape:connector-curvature="0"
       id="rect3088"
       d="m 41.75707,42.76916 c -0.994666,0 -1.78125,1.172408 -1.78125,2.625 l 0,14.90625 c 0,1.452592 0.786584,2.625 1.78125,2.625 l 8.28125,0 0,0.28125 c 0,1.452592 0.817834,2.625 1.8125,2.625 l 6.53125,0 c 0.994666,0 1.78125,-1.172408 1.78125,-2.625 l 0,-0.28125 8.53125,0 c 0.994666,0 1.78125,-1.172408 1.78125,-2.625 l 0,-14.90625 c 0,-1.452592 -0.786584,-2.625 -1.78125,-2.625 l -26.9375,0 z m 2.0625,2.03125 22.8125,0 c 0.913802,0 1.65625,0.742448 1.65625,1.65625 l 0,12.8125 c 0,0.913802 -0.742448,1.625 -1.65625,1.625 l -22.8125,0 c -0.913802,0 -1.65625,-0.711198 -1.65625,-1.625 l 0,-12.8125 c 0,-0.913802 0.742448,-1.65625 1.65625,-1.65625 z m 4.84375,21.96875 c -0.994666,0 -1.78125,0.723366 -1.78125,1.625 l 0,0.28125 c 0,0.901634 0.786584,1.625 1.78125,1.625 l 13.4375,0 c 0.994666,0 1.8125,-0.723366 1.8125,-1.625 l 0,-0.28125 c 0,-0.901634 -0.817834,-1.625 -1.8125,-1.625 l -13.4375,0 z"
       style="color:#000000;fill:#ffffff;fill-opacity:1;fill-rule:nonzero;stroke:none;stroke-width:2.38455629;marker:none;visibility:visible;display:inline;overflow:visible;enable-background:accumulate" />
    <path
       sodipodi:nodetypes="sssssscscscssssss"
       inkscape:connector-curvature="0"
       id="path3104"
       d="m 59.915784,11.496822 c -3.971304,-0.06323 -9.149871,2.368621 -13.53125,6.75 -6.372915,6.372915 -8.636499,14.457251 -5.0625,18.03125 3.573999,3.573999 11.627085,1.279165 18,-5.09375 6.372915,-6.372915 8.636499,-14.426001 5.0625,-18 -1.116875,-1.116875 -2.663612,-1.658759 -4.46875,-1.6875 z m 8.21875,8.0625 c -0.916206,4.092128 -3.547758,8.766508 -7.625,12.84375 -4.07177,4.07177 -8.724339,6.705353 -12.8125,7.625 5.417924,1.559841 11.65248,0.09752 16.09375,-4.34375 4.450273,-4.450273 5.919083,-10.699425 4.34375,-16.125 z M 53.700742,23.6875 c 1.525825,-0.07323 3.657295,0.844795 4.15625,1.34375 0.665273,0.665273 0.24877,2.15748 -0.9375,3.34375 -1.18627,1.18627 -2.709727,1.602773 -3.375,0.9375 -0.665273,-0.665273 -2.28002,-4.00123 -1.09375,-5.1875 0.296567,-0.296567 0.741392,-0.41309 1.25,-0.4375 z"
       style="color:#000000;fill:#ffffff;fill-opacity:1;fill-rule:nonzero;stroke:none;stroke-width:2.4000001;marker:none;visibility:visible;display:inline;overflow:visible;enable-background:accumulate" />
  </g>
</svg>
