<?xml version="1.0" encoding="UTF-8" standalone="no"?>
<svg
   xmlns:dc="http://purl.org/dc/elements/1.1/"
   xmlns:cc="http://creativecommons.org/ns#"
   xmlns:rdf="http://www.w3.org/1999/02/22-rdf-syntax-ns#"
   xmlns:svg="http://www.w3.org/2000/svg"
   xmlns="http://www.w3.org/2000/svg"
   xmlns:xlink="http://www.w3.org/1999/xlink"
   xmlns:sodipodi="http://sodipodi.sourceforge.net/DTD/sodipodi-0.dtd"
   xmlns:inkscape="http://www.inkscape.org/namespaces/inkscape"
   viewBox="0 0 96 96"
   id="svg2"
   version="1.1"
   inkscape:version="0.48.4 r9939"
   width="100%"
   height="100%"
   sodipodi:docname="ati (copy).svg">
  <metadata
     id="metadata47">
    <rdf:RDF>
      <cc:Work
         rdf:about="">
        <dc:format>image/svg+xml</dc:format>
        <dc:type
           rdf:resource="http://purl.org/dc/dcmitype/StillImage" />
      </cc:Work>
    </rdf:RDF>
  </metadata>
  <sodipodi:namedview
     pagecolor="#ffffff"
     bordercolor="#666666"
     borderopacity="1"
     objecttolerance="10"
     gridtolerance="10"
     guidetolerance="10"
     inkscape:pageopacity="0"
     inkscape:pageshadow="2"
     inkscape:window-width="1157"
     inkscape:window-height="564"
     id="namedview45"
     showgrid="false"
     inkscape:zoom="2.4583333"
     inkscape:cx="36.203389"
     inkscape:cy="47.18644"
     inkscape:window-x="207"
     inkscape:window-y="314"
     inkscape:window-maximized="0"
     inkscape:current-layer="svg2" />
  <defs
     id="defs4">
    <linearGradient
       gradientTransform="matrix(0.96179,0,0,2.11089,1.83416,934.41518)"
       gradientUnits="userSpaceOnUse"
       id="linearGradient3197"
       x1="55.1439"
       x2="47.3628"
       y1="13.1091"
       y2="33.5999">
      <stop
         offset="0"
         stop-color="#fff"
         id="stop7" />
      <stop
         offset="1"
         stop-color="#fff"
         stop-opacity="0"
         id="stop9" />
    </linearGradient>
    <radialGradient
       cx="63.969"
       cy="14.113"
       gradientTransform="matrix(1.5647,-9.5143e-8,6.1772e-8,1.0159,-86.213,8.1461)"
       gradientUnits="userSpaceOnUse"
       id="radialGradient4154-0-1"
       r="23.097">
      <stop
         offset="0"
         stop-color="#b40000"
         id="stop12" />
      <stop
         offset=".4"
         stop-color="#980000"
         id="stop14" />
      <stop
         offset="1"
         stop-color="#510000"
         id="stop16" />
    </radialGradient>
    <radialGradient
       cx="28.2041"
       cy="-.322"
       gradientTransform="matrix(4.67845,5.1067271e-8,-4.5897343e-8,4.20482,-84.44966,976.03941)"
       gradientUnits="userSpaceOnUse"
       id="radialGradient3206"
       r="23.097"
       xlink:href="#radialGradient4154-0-1" />
    <linearGradient
       inkscape:collect="always"
       xlink:href="#linearGradient3197"
       id="linearGradient3013"
       gradientUnits="userSpaceOnUse"
       gradientTransform="matrix(0.96179,0,0,2.11089,1.83416,-21.94702)"
       x1="55.1439"
       y1="13.1091"
       x2="47.3628"
       y2="33.5999" />
    <radialGradient
       inkscape:collect="always"
       xlink:href="#radialGradient4154-0-1"
       id="radialGradient3016"
       gradientUnits="userSpaceOnUse"
       gradientTransform="matrix(4.67845,5.1067271e-8,-4.5897343e-8,4.20482,-84.44966,19.67721)"
       cx="28.2041"
       cy="-.322"
       r="23.097" />
  </defs>
  <g
     id="g3797">
    <path
       d="m 13.0505,7.2283 h 69.8991 a 5.8249,5.8249 0 0 1 5.8249,5.8249 v 69.9216 a 5.8249,5.8249 0 0 1 -5.8249,5.8249 H 13.0505 A 5.8249,5.8249 0 0 1 7.2256,82.9748 V 13.0532 a 5.8249,5.8249 0 0 1 5.8249,-5.8249"
       id="path21"
       style="fill:url(#radialGradient3016)"
       inkscape:connector-curvature="0" />
    <path
       d="m 16.8899,7.2003 71.789,66.327 0.0854,-60.2405 C 88.7689,10.0763 86.3678,7.245 83.1708,7.243 z"
       id="path23"
       style="opacity:0.34800002;fill:url(#linearGradient3013)"
       inkscape:connector-curvature="0" />
    <path
       inkscape:connector-curvature="0"
       style="fill:#ffffff;fill-opacity:1;fill-rule:nonzero;stroke:none"
       id="path3881"
       d="m 48.874995,12.313555 -4.711489,0.541119 -5.182646,1.420445 c 0.44147,-0.155292 0.8887,-0.324799 1.346144,-0.473481 l -0.605764,-1.082242 -2.01921,0.338199 -1.00961,0.946964 -1.54806,0.202921 -1.41345,0.676403 -0.67306,0.3382 -0.20193,0.27056 -1.0096,0.20292 -0.60576,1.285164 -0.80769,-1.623364 -0.26922,0.676402 0.13462,1.826286 -1.27884,1.082242 -0.74037,1.961567 1.54806,0 0.60576,-1.285161 0.20192,-0.473484 c 0.68067,-0.483737 1.32595,-1.022458 2.01921,-1.488087 l 1.61537,0.541123 c 1.05173,0.718076 2.11084,1.447503 3.16343,2.16449 l 1.54805,-1.420448 -1.74998,-0.744042 -0.80768,-1.623366 -2.96151,-0.338202 -0.0673,-0.338198 1.27883,0.27056 0.74038,-0.744042 1.61537,-0.338201 c 0.38227,-0.186838 0.75832,-0.321409 1.14421,-0.47348 l -1.0096,0.946962 3.634577,2.502687 0,1.488085 -1.413447,1.420445 1.884596,3.787854 1.278834,-0.744047 1.615372,-2.502685 c 2.271089,-0.70563 4.317935,-1.526725 6.461479,-2.50269 l -0.134624,0.946964 1.076908,0.744042 1.8846,-1.285164 -0.942301,-1.082243 -1.278835,0.744044 -0.403842,-0.135279 c 0.09276,-0.0426 0.176067,-0.09198 0.269225,-0.135278 l 1.884612,-4.870102 -4.105726,-1.623362 z m -18.442125,7.305144 1.54806,1.08224 1.27883,0 0,-1.285164 -1.54805,-0.676402 -1.27884,0.879326 0,0 z m 35.740026,-0.879326 -2.759586,0.676402 -1.749978,1.149884 0,1.014601 -2.759588,1.758647 0.538456,2.637972 1.615368,-1.149889 1.009603,1.149889 1.144224,0.676403 0.740376,-1.96157 -0.403844,-1.149882 0.403844,-0.811686 1.615369,-1.488084 0.740376,0 -0.740376,1.623371 0,1.48808 c 0.665807,-0.182131 1.337852,-0.253064 2.019209,-0.338203 l -1.884597,1.352811 -0.134622,0.811677 -2.153825,1.826291 -2.221134,-0.541128 0,-1.285163 -1.009604,0.676403 0.47115,1.149888 -1.615371,0 -0.874989,1.488083 -1.076913,1.217523 -1.951904,0.405839 1.14422,1.149885 0.269229,1.149882 -1.413449,0 -1.884595,1.014606 0,2.976166 0.87499,0 0.807683,0.879324 1.81729,-0.879324 0.673072,-1.826286 1.346141,-0.81168 0.269225,-0.676405 2.153825,-0.54112 1.211528,1.352803 1.278835,0.676402 -0.740381,1.488089 1.144226,-0.338205 0.605757,-1.488086 -1.480751,-1.691003 0.60576,0 1.480754,1.217525 0.269231,1.623365 1.278832,1.488086 0.336533,-2.164486 0.673072,-0.338204 c 0.716442,0.747433 1.281175,1.6615 1.884595,2.50269 l 2.221134,0.135292 1.278832,0.811682 -0.605764,0.879324 -1.278834,1.149883 -1.884596,0 -2.490359,-0.81168 -1.278833,0.135291 -0.942297,1.082248 -2.692283,-2.705611 -1.884595,-0.541122 -2.759587,0.338202 -2.423054,0.6764 c -1.382253,1.574806 -2.797436,3.166955 -4.105731,4.802459 l -1.548059,3.787849 0.740378,0.811684 -1.346143,1.961566 1.480756,3.44965 c 1.232146,1.400716 2.471531,2.791979 3.701887,4.193693 l 1.817289,-1.555726 0.740377,0.946967 1.951906,-1.285164 0.673069,0.744041 1.951903,0 1.14422,1.285162 -0.67307,2.299769 1.346139,1.555726 -0.06732,2.705607 1.009603,1.961567 -0.740376,1.691003 c -0.07218,1.212807 -0.134622,2.371933 -0.134622,3.584931 0.593851,1.64332 1.189229,3.2826 1.749982,4.937738 l 0.403843,2.637971 0,1.352796 1.07691,0 1.548063,-1.014606 1.884599,0 2.826894,-3.179081 -0.336536,-1.082249 1.884601,-1.690999 -1.413453,-1.55573 1.682676,-1.3528 1.615368,-1.014608 0.740372,-0.811681 -0.471142,-1.826285 c 0,-1.53754 7e-6,-3.061788 0,-4.599537 l 1.278833,-2.840885 1.615367,-1.758647 1.749982,-4.328973 0,-1.149883 c -0.870844,0.110245 -1.705562,0.20964 -2.557666,0.270563 l 1.749982,-1.758648 2.42305,-1.623362 1.278834,-1.488089 0,-1.623364 c -0.290046,-0.549702 -0.582955,-1.141298 -0.874996,-1.690999 l -1.144217,1.352801 -0.874995,-1.014601 -1.278832,-1.014604 0,-2.096849 1.480759,1.691009 1.682671,-0.202921 c 0.759112,0.692542 1.488014,1.308342 2.153827,2.096846 l 1.076937,-1.21756 c 0,-1.310763 -1.469024,-7.781626 -4.644183,-13.25748 C 78.074514,25.643487 72.499752,20.6333 72.499757,20.6333 l -0.403846,0.744042 -1.480755,1.623367 -1.884595,-1.961568 1.884595,0 0.874994,-0.946963 -3.499966,-0.676403 -1.817294,-0.676402 z m -40.451526,0.879326 -0.67306,1.758643 c 0,0 -1.17838,0.195507 -1.48076,0.270562 -3.86159,3.576062 -11.64871,11.332692 -13.4614,25.906201 0.0718,0.337888 1.27883,2.299763 1.27883,2.299763 l 2.96151,1.758651 2.96151,0.811679 1.27884,1.555725 1.9519,1.488085 1.14422,-0.202921 0.80768,0.405844 0,0.270556 -1.07691,3.043815 -0.87499,1.285166 0.26923,0.608757 -0.67307,2.43505 2.49036,4.599532 2.55767,2.232129 1.14421,1.623364 -0.13462,3.382008 0.80769,1.893934 -0.80769,3.652569 c 0,0 -0.10778,-0.03002 0,0.338198 0.10873,0.368416 4.49926,2.846762 4.7788,2.637972 0.27858,-0.212692 0.53845,-0.405848 0.53845,-0.405848 l -0.26922,-0.811671 1.14422,-1.082248 0.40384,-1.149884 1.81729,-0.608766 1.41344,-3.517293 -0.40384,-0.946963 0.9423,-1.488082 2.15382,-0.473481 1.07692,-2.570328 -0.26923,-3.179092 1.682675,-2.367403 0.269226,-2.435048 C 39.1625,61.487326 36.89739,60.305152 34.6059,59.120581 l -1.14422,-2.232126 -2.08652,-0.473481 -1.14422,-3.043813 -2.75959,0.338202 -2.42305,-1.758644 -2.55767,2.232127 0,0.338203 c -0.76607,-0.222218 -1.6736,-0.254916 -2.35573,-0.676404 l -0.53846,-1.623367 0,-1.758646 -1.74998,0.202921 c 0.14083,-1.120214 0.32934,-2.26199 0.47115,-3.382009 l -1.00961,0 -1.0096,1.285163 -0.9423,0.473481 -1.41345,-0.811679 -0.13461,-1.75865 0.26923,-1.893924 2.08651,-1.623364 1.68268,0 0.33653,-0.946964 2.08652,0.473478 1.54806,1.961569 0.26923,-3.246734 2.69228,-2.232123 0.9423,-2.367405 2.01921,-0.811683 1.07691,-1.623368 2.55767,-0.473481 1.27883,-1.893926 c -1.26578,0 -2.57071,0 -3.8365,0 l 2.42306,-1.149883 1.68267,0 2.15383,-0.744042 0.40384,2.096846 0.9423,-1.488085 -1.07692,-0.744042 0.26923,-0.879321 -0.87499,-0.811686 -0.9423,-0.270559 0.26923,-1.014602 -0.74038,-1.420441 -1.68267,0.676398 0.26923,-1.285162 -1.95191,-1.149887 -1.54806,2.705609 0.13463,0.946962 -1.54806,0.676404 -0.9423,2.096846 -0.47115,-1.961568 -2.62498,-1.082241 -0.47115,-1.488084 3.56728,-2.029207 1.54806,-1.488083 0.13462,-1.75865 -0.87499,-0.47348 -1.14422,-0.135276 -3e-5,-1e-6 z m 28.874721,3.246732 0,1.082237 0.605764,0.676405 0,1.623365 -0.336537,2.164485 1.749985,-0.338202 1.278835,-1.285161 -1.144221,-1.082246 c -0.371059,-0.992998 -0.747109,-1.888468 -1.211525,-2.840883 l -0.942301,0 z m -1.480756,2.16448 -1.076909,0.338208 0.269225,1.961563 1.413446,-0.744048 -0.605762,-1.555723 0,0 z m 19.72096,17.789377 1.615366,1.893926 1.951902,4.193695 1.211528,1.3528 -0.605764,1.420449 1.076913,1.285166 c -0.494201,0.03287 -0.972804,0.06765 -1.480758,0.06765 -0.922756,-1.948623 -1.653055,-3.913774 -2.35574,-5.952342 l -1.211526,-1.352804 -0.673073,-2.435048 0.471152,-0.473483 0,-9e-6 z" />
    <path
       inkscape:connector-curvature="0"
       style="font-size:medium;font-style:normal;font-variant:normal;font-weight:normal;font-stretch:normal;text-indent:0;text-align:start;text-decoration:none;line-height:normal;letter-spacing:normal;word-spacing:normal;text-transform:none;direction:ltr;block-progression:tb;writing-mode:lr-tb;text-anchor:start;baseline-shift:baseline;color:#000000;fill:none;stroke:#ce1111;stroke-width:1.89999998000000003;stroke-miterlimit:4;stroke-opacity:1;stroke-dasharray:none;marker:none;visibility:visible;display:inline;overflow:visible;enable-background:accumulate;font-family:Sans;-inkscape-font-specification:Sans"
       d="M 48,27.59375 C 36.755457,27.59375 27.625,36.755457 27.625,48 27.625,59.244543 36.755457,68.375 48,68.375 59.244543,68.375 68.40625,59.244543 68.40625,48 68.40625,36.755457 59.244543,27.59375 48,27.59375 z m 0,4.1875 c 3.838926,0 7.350895,1.343119 10.125,3.5625 L 35.34375,58.125 C 33.126342,55.355991 31.8125,51.843312 31.8125,48 31.8125,39.025305 39.025305,31.78125 48,31.78125 z m 13.5,7.28125 c 1.699549,2.565255 2.71875,5.62175 2.71875,8.9375 0,8.974695 -7.244055,16.1875 -16.21875,16.1875 -3.31575,0 -6.408875,-0.993331 -8.96875,-2.6875 L 61.5,39.0625 z"
       id="path3908" />
    <path
       inkscape:connector-curvature="0"
       id="path3893"
       d="M 48,27.59375 C 36.755457,27.59375 27.625,36.755457 27.625,48 27.625,59.244543 36.755457,68.375 48,68.375 59.244543,68.375 68.40625,59.244543 68.40625,48 68.40625,36.755457 59.244543,27.59375 48,27.59375 z m 0,4.1875 c 3.838926,0 7.350895,1.343119 10.125,3.5625 L 35.34375,58.125 C 33.126342,55.355991 31.8125,51.843312 31.8125,48 31.8125,39.025305 39.025305,31.78125 48,31.78125 z m 13.5,7.28125 c 1.699549,2.565255 2.71875,5.62175 2.71875,8.9375 0,8.974695 -7.244055,16.1875 -16.21875,16.1875 -3.31575,0 -6.408875,-0.993331 -8.96875,-2.6875 L 61.5,39.0625 z"
       style="font-size:medium;font-style:normal;font-variant:normal;font-weight:normal;font-stretch:normal;text-indent:0;text-align:start;text-decoration:none;line-height:normal;letter-spacing:normal;word-spacing:normal;text-transform:none;direction:ltr;block-progression:tb;writing-mode:lr-tb;text-anchor:start;baseline-shift:baseline;color:#000000;fill:#ffffff;fill-opacity:1;stroke:none;stroke-width:4.19999981;marker:none;visibility:visible;display:inline;overflow:visible;enable-background:accumulate;font-family:Sans;-inkscape-font-specification:Sans" />
  </g>
</svg>
