<?xml version="1.0" encoding="UTF-8" standalone="no"?>
<svg
   xmlns:dc="http://purl.org/dc/elements/1.1/"
   xmlns:cc="http://creativecommons.org/ns#"
   xmlns:rdf="http://www.w3.org/1999/02/22-rdf-syntax-ns#"
   xmlns:svg="http://www.w3.org/2000/svg"
   xmlns="http://www.w3.org/2000/svg"
   xmlns:xlink="http://www.w3.org/1999/xlink"
   xmlns:sodipodi="http://sodipodi.sourceforge.net/DTD/sodipodi-0.dtd"
   xmlns:inkscape="http://www.inkscape.org/namespaces/inkscape"
   viewBox="0 0 96 96"
   id="svg2"
   version="1.1"
   inkscape:version="0.48.4 r9939"
   width="100%"
   height="100%"
   sodipodi:docname="sound-preferences.svg">
  <metadata
     id="metadata171">
    <rdf:RDF>
      <cc:Work
         rdf:about="">
        <dc:format>image/svg+xml</dc:format>
        <dc:type
           rdf:resource="http://purl.org/dc/dcmitype/StillImage" />
      </cc:Work>
    </rdf:RDF>
  </metadata>
  <sodipodi:namedview
     pagecolor="#ffffff"
     bordercolor="#666666"
     borderopacity="1"
     objecttolerance="10"
     gridtolerance="10"
     guidetolerance="10"
     inkscape:pageopacity="0"
     inkscape:pageshadow="2"
     inkscape:window-width="640"
     inkscape:window-height="480"
     id="namedview169"
     showgrid="false"
     inkscape:zoom="5.782"
     inkscape:cx="52.380491"
     inkscape:cy="50.858526"
     inkscape:window-x="65"
     inkscape:window-y="24"
     inkscape:window-maximized="0"
     inkscape:current-layer="svg2" />
  <defs
     id="defs4">
    <clipPath
       id="clipPath4355">
      <path
         d="m12,6h72a6,6 0 0,1 6,6v68a6,6 0 0,1 -6,6h-72a6,6 0 0,1 -6-6v-68a6,6 0 0,1 6-6"
         id="path7" />
    </clipPath>
    <clipPath
       id="clipPath3823">
      <path
         d="m108.8125,58c-1.5581,0-2.8125,1.2544-2.8125,2.8125v24.375c0,1.5581 1.2544,2.8125 2.8125,2.8125h24.375c1.5581,0 2.8125-1.2544 2.8125-2.8125v-24.375c0-1.5581-1.2544-2.8125-2.8125-2.8125h-24.375zm7.1875,4.5h10v8.75h5l-10,13.75-10-13.75h5v-8.75z"
         id="path10" />
    </clipPath>
    <clipPath
       id="clipPath3613-2">
      <path
         d="m12,6h72a6,6 0 0,1 6,6v72a6,6 0 0,1 -6,6h-72a6,6 0 0,1 -6-6v-72a6,6 0 0,1 6-6"
         id="path13" />
    </clipPath>
    <filter
       id="filter3174-6">
      <feGaussianBlur
         stdDeviation="1.71"
         id="feGaussianBlur16" />
    </filter>
    <filter
       id="filter3831">
      <feGaussianBlur
         stdDeviation=".637"
         id="feGaussianBlur19" />
    </filter>
    <filter
       id="filter3806">
      <feGaussianBlur
         stdDeviation="1.2"
         id="feGaussianBlur22" />
    </filter>
    <filter
       height="1.384"
       id="filter3794-9"
       width="1.384"
       x="-.192"
       y="-.192">
      <feGaussianBlur
         stdDeviation="5.28"
         id="feGaussianBlur25" />
    </filter>
    <filter
       height="1.24"
       id="filter4046-5"
       width="1.24"
       x="-.12"
       y="-.12">
      <feGaussianBlur
         stdDeviation=".25"
         id="feGaussianBlur28" />
    </filter>
    <linearGradient
       id="linearGradient4013">
      <stop
         offset="0"
         stop-color="#fff"
         id="stop31" />
      <stop
         offset="1"
         stop-color="#fff"
         stop-opacity="0"
         id="stop33" />
    </linearGradient>
    <linearGradient
       gradientUnits="userSpaceOnUse"
       id="ButtonShadow-6"
       x2="0"
       y1="92"
       y2="6.9756">
      <stop
         offset="0"
         id="stop36" />
      <stop
         offset="1"
         stop-opacity=".588"
         id="stop38" />
    </linearGradient>
    <linearGradient
       gradientUnits="userSpaceOnUse"
       id="linearGradient6349"
       x2="0"
       y1="184.063"
       y2="142.4344">
      <stop
         offset="0"
         stop-color="#fff"
         stop-opacity=".18"
         id="stop41" />
      <stop
         offset="1"
         stop-color="#fff"
         stop-opacity=".3"
         id="stop43" />
    </linearGradient>
    <linearGradient
       gradientUnits="userSpaceOnUse"
       id="linearGradient3812"
       x2="0"
       y1="72.3783"
       y2="63.5428">
      <stop
         offset="0"
         id="stop46" />
      <stop
         offset="1"
         stop-opacity="0"
         id="stop48" />
    </linearGradient>
    <linearGradient
       gradientUnits="userSpaceOnUse"
       id="linearGradient3773"
       x1="-88"
       x2="-58">
      <stop
         offset="0"
         stop-color="#499119"
         id="stop51" />
      <stop
         offset="1"
         stop-color="#8fd625"
         id="stop53" />
    </linearGradient>
    <linearGradient
       gradientTransform="matrix(.9297,.3684,-.3684,.9297,-479.9193,-252.3611)"
       gradientUnits="userSpaceOnUse"
       id="SVGID_8_"
       x2="0"
       y1="150.1484"
       y2="142.143">
      <stop
         offset="0"
         stop-color="#fff"
         id="stop56" />
      <stop
         offset="1"
         stop-color="#dadada"
         id="stop58" />
    </linearGradient>
    <linearGradient
       gradientTransform="matrix(0.96179,0,0,2.11089,1.83416,934.41518)"
       gradientUnits="userSpaceOnUse"
       id="linearGradient3197"
       x1="55.1439"
       x2="47.3628"
       xlink:href="#linearGradient4013"
       y1="13.1091"
       y2="33.5999" />
    <linearGradient
       gradientTransform="matrix(.9297,.3684,-.3684,.9297,-479.9193,-252.3611)"
       gradientUnits="userSpaceOnUse"
       id="linearGradient6347"
       x2="0"
       xlink:href="#SVGID_8_"
       y1="150.1484"
       y2="142.143" />
    <linearGradient
       gradientUnits="userSpaceOnUse"
       id="linearGradient9165"
       x2="0"
       xlink:href="#ButtonShadow-6"
       y1="92"
       y2="6.9756" />
    <linearGradient
       gradientUnits="userSpaceOnUse"
       id="linearGradient9247"
       x2="0"
       xlink:href="#linearGradient4013"
       y1="20.2208"
       y2="138.6612" />
    <linearGradient
       gradientUnits="userSpaceOnUse"
       id="linearGradient3788"
       x2="0"
       xlink:href="#linearGradient4013"
       y1="58"
       y2="79.095" />
    <linearGradient
       gradientUnits="userSpaceOnUse"
       id="linearGradient3832"
       x2="0"
       xlink:href="#linearGradient4013"
       y1="71.3783"
       y2="62.5428" />
    <radialGradient
       cx="63.969"
       cy="14.113"
       gradientTransform="matrix(1.5647,-9.5143e-8,6.1772e-8,1.0159,-86.213,8.1461)"
       gradientUnits="userSpaceOnUse"
       id="radialGradient16213"
       r="23.097">
      <stop
         offset="0"
         stop-color="#565248"
         id="stop67" />
      <stop
         offset=".4"
         stop-color="#565248"
         id="stop69" />
      <stop
         offset="1"
         stop-color="#36332b"
         id="stop71" />
    </radialGradient>
    <radialGradient
       cx="29.0949"
       cy="31.6017"
       gradientUnits="userSpaceOnUse"
       id="radialGradient3301"
       r="7.2449">
      <stop
         offset="0"
         stop-color="#ffe375"
         id="stop74" />
      <stop
         offset="1"
         stop-color="#ffa600"
         id="stop76" />
    </radialGradient>
    <radialGradient
       cx="32"
       cy="32"
       gradientUnits="userSpaceOnUse"
       id="radialGradient3299"
       r="8">
      <stop
         offset="0"
         stop-color="#ffb800"
         id="stop79" />
      <stop
         offset="1"
         stop-color="#ffb800"
         stop-opacity="0"
         id="stop81" />
    </radialGradient>
    <radialGradient
       cx="29.0949"
       cy="31.6017"
       gradientUnits="userSpaceOnUse"
       id="radialGradient4385"
       r="7.2449">
      <stop
         offset="0"
         stop-color="#84ffff"
         id="stop84" />
      <stop
         offset="1"
         stop-color="#0ff"
         id="stop86" />
    </radialGradient>
    <radialGradient
       cx="32"
       cy="32"
       gradientUnits="userSpaceOnUse"
       id="radialGradient4383"
       r="8">
      <stop
         offset="0"
         stop-color="#0ff"
         id="stop89" />
      <stop
         offset=".5"
         stop-color="#0ff"
         stop-opacity=".271"
         id="stop91" />
      <stop
         offset="1"
         stop-color="#0ff"
         stop-opacity="0"
         id="stop93" />
    </radialGradient>
    <radialGradient
       cx="29.0949"
       cy="31.6017"
       gradientUnits="userSpaceOnUse"
       id="radialGradient4343"
       r="7.2449">
      <stop
         offset="0"
         stop-color="#f17000"
         id="stop96" />
      <stop
         offset="1"
         stop-color="#f12d00"
         id="stop98" />
    </radialGradient>
    <radialGradient
       cx="32"
       cy="32"
       gradientUnits="userSpaceOnUse"
       id="radialGradient4341"
       r="8">
      <stop
         offset="0"
         stop-color="#ff430a"
         id="stop101" />
      <stop
         offset=".5"
         stop-color="#d44f00"
         stop-opacity=".279"
         id="stop103" />
      <stop
         offset="1"
         stop-color="#d40000"
         stop-opacity="0"
         id="stop105" />
    </radialGradient>
    <radialGradient
       cx="29.0949"
       cy="31.6017"
       gradientUnits="userSpaceOnUse"
       id="radialGradient4339"
       r="7.2449">
      <stop
         offset="0"
         stop-color="#a07ada"
         id="stop108" />
      <stop
         offset="1"
         stop-color="#7137c8"
         id="stop110" />
    </radialGradient>
    <radialGradient
       cx="32"
       cy="32"
       gradientUnits="userSpaceOnUse"
       id="radialGradient4337"
       r="8">
      <stop
         offset="0"
         stop-color="#7137c8"
         id="stop113" />
      <stop
         offset="1"
         stop-color="#7137c8"
         stop-opacity="0"
         id="stop115" />
    </radialGradient>
    <radialGradient
       cx="29.0949"
       cy="31.6017"
       gradientUnits="userSpaceOnUse"
       id="radialGradient4327"
       r="7.2449">
      <stop
         offset="0"
         stop-color="#ffacee"
         id="stop118" />
      <stop
         offset="1"
         stop-color="#f5d"
         id="stop120" />
    </radialGradient>
    <radialGradient
       cx="32"
       cy="32"
       gradientUnits="userSpaceOnUse"
       id="radialGradient4325"
       r="8">
      <stop
         offset="0"
         stop-color="#f5d"
         id="stop123" />
      <stop
         offset="1"
         stop-color="#f5d"
         stop-opacity="0"
         id="stop125" />
    </radialGradient>
    <radialGradient
       cx="29.0949"
       cy="31.6017"
       gradientUnits="userSpaceOnUse"
       id="radialGradient4323"
       r="7.2449">
      <stop
         offset="0"
         stop-color="#65ff65"
         id="stop128" />
      <stop
         offset="1"
         stop-color="#47d900"
         id="stop130" />
    </radialGradient>
    <radialGradient
       cx="32"
       cy="32"
       gradientUnits="userSpaceOnUse"
       id="radialGradient4321"
       r="8">
      <stop
         offset="0"
         stop-color="#6dd500"
         id="stop133" />
      <stop
         offset=".5"
         stop-color="#67df00"
         stop-opacity=".364"
         id="stop135" />
      <stop
         offset="1"
         stop-color="#62e900"
         stop-opacity="0"
         id="stop137" />
    </radialGradient>
    <radialGradient
       cx="19.4643"
       cy="15.8214"
       gradientUnits="userSpaceOnUse"
       id="radialGradient4036-3"
       r="2.5">
      <stop
         offset="0"
         stop-color="#fff"
         id="stop140" />
      <stop
         offset=".5"
         stop-color="#fff"
         stop-opacity=".279"
         id="stop142" />
      <stop
         offset="1"
         stop-color="#fff"
         stop-opacity="0"
         id="stop144" />
    </radialGradient>
    <radialGradient
       cx="28.2041"
       cy="-.322"
       gradientTransform="matrix(4.67845,5.1067271e-8,-4.5897343e-8,4.20482,-84.44966,976.02541)"
       gradientUnits="userSpaceOnUse"
       id="radialGradient3206"
       r="23.097"
       xlink:href="#radialGradient16213" />
  </defs>
  <g
     transform="translate(0,-956.3622)"
     id="g147">
    <path
       d="m 13.0505,963.5765 h 69.8991 a 5.8249,5.8249 0 0 1 5.8249,5.8249 v 69.9216 a 5.8249,5.8249 0 0 1 -5.8249,5.8249 H 13.0505 a 5.8249,5.8249 0 0 1 -5.8249,-5.8249 v -69.9216 a 5.8249,5.8249 0 0 1 5.8249,-5.8249"
       id="path149"
       style="fill:url(#radialGradient3206)"
       inkscape:connector-curvature="0" />
    <text
       font-size="20"
       letter-spacing="0"
       word-spacing="0"
       x="265.15491"
       xml:space="preserve"
       y="1019.1274"
       id="text151"
       style="font-size:20px;letter-spacing:0;word-spacing:0;font-family:Justus"><tspan
         x="265.15491"
         y="1019.1274"
         id="tspan153" /></text>
    <text
       font-size="20"
       letter-spacing="0"
       word-spacing="0"
       x="47.3508"
       xml:space="preserve"
       y="492.37259"
       id="text155"
       style="font-size:20px;letter-spacing:0;word-spacing:0;font-family:Justus"><tspan
         x="47.3508"
         y="492.37259"
         id="tspan157" /></text>
    <text
       font-size="20"
       letter-spacing="0"
       word-spacing="0"
       x="95.509499"
       xml:space="preserve"
       y="1185.3373"
       id="text159"
       style="font-size:20px;letter-spacing:0;word-spacing:0;font-family:Justus"><tspan
         x="95.509499"
         y="1185.3373"
         id="tspan161" /></text>
    <path
       d="m 16.8899,963.5625 71.789,66.327 0.0854,-60.2405 c 0.0046,-3.2105 -2.3965,-6.0418 -5.5935,-6.0438 z"
       id="path163"
       style="opacity:0.34800002;fill:url(#linearGradient3197)"
       inkscape:connector-curvature="0" />
    <path
       d="m 44.5562,985.198 c -0.908186,0.59695 -1.340548,1.82989 -1.00409,2.8633 0.336458,1.03342 1.411837,1.77547 2.49739,1.7233 3.3837,-0.0678 6.8196,0.7945 9.7787,2.4372 2.9591,1.6427 5.4777,4.08 7.2097,6.9876 1.7661,2.9649 2.7495,6.4364 2.7496,9.8875 1e-4,3.4511 -0.9574,6.9429 -2.7234,9.9078 -0.807982,1.122 -0.436496,2.9049 0.752365,3.6108 1.188861,0.7059 2.932036,0.1788 3.530435,-1.0677 2.235,-3.7521 3.4253,-8.0748 3.4254,-12.4421 1e-4,-4.3673 -1.2004,-8.6983 -3.4354,-12.4504 -2.1914,-3.679 -5.3268,-6.7576 -9.0707,-8.8359 -3.7439,-2.0783 -8.0118,-3.128 -12.2931,-3.0423 -0.416391,-0.003 -0.833208,0.0994 -1.2003,0.296 -0.07419,0.038 -0.146478,0.0798 -0.2165,0.125 z m -6.8054,11.3111 c -0.0822,0.0466 -0.1451,0.1156 -0.2123,0.1948 l -7.6887,9.0579 c -0.5378,0.6335 -0.9645,1.3294 -0.549,2.0491 l 8.9688,15.5343 c 0.4155,0.7197 1.2315,0.6981 2.049,0.549 l 11.6887,-2.1296 c 0.8175,-0.149 0.9645,-1.3294 0.549,-2.049 L 39.5875,997.253 c -0.3636,-0.6297 -1.261,-1.0698 -1.8367,-0.7438 z m 8.3519,-3.5076 c -0.939295,0.52248 -1.462362,1.69909 -1.220956,2.74646 0.241405,1.04737 1.226723,1.87632 2.299956,1.93494 3.5837,0.281 7.1148,2.4593 8.9708,5.5378 1.856,3.0785 2.1081,7.24 0.6749,10.5439 -0.521138,1.2078 0.103566,2.781 1.311352,3.3022 1.207785,0.5213 2.780964,-0.1033 3.302348,-1.311 2.108,-4.8595 1.7025,-10.5644 -1.0324,-15.1007 -2.7296,-4.5275 -7.5833,-7.5375 -12.8537,-7.9508 -0.499178,-0.0496 -1.012652,0.0555 -1.4522,0.2972 z m -22.1236,19.2169 c -0.7197,0.4155 -0.9645,1.3293 -0.549,2.049 l 6.3125,10.9336 c 0.4155,0.7196 1.3294,0.9645 2.049,0.549 l 3.1935,-1.8437 c 0.7197,-0.4155 0.9645,-1.3294 0.549,-2.0491 l -6.3125,-10.9335 c -0.4155,-0.7197 -1.3294,-0.9646 -2.049,-0.5491 z"
       id="path165"
       inkscape:connector-curvature="0"
       style="opacity:0.41100003;fill:#3a2222;stroke:#3a2222;stroke-width:2.4000001"
       sodipodi:nodetypes="cscssscscsssccccccccccccccccscscscscccccccscccc" />
    <path
       d="m 44.5562,985.198 c -0.908186,0.59695 -1.340548,1.82989 -1.00409,2.8633 0.336458,1.03342 1.411837,1.77547 2.49739,1.7233 3.3837,-0.0678 6.8196,0.7945 9.7787,2.4372 2.9591,1.6427 5.4777,4.08 7.2097,6.9876 1.7661,2.9649 2.7495,6.4364 2.7496,9.8875 1e-4,3.4511 -0.9574,6.9429 -2.7234,9.9078 -0.807982,1.122 -0.436496,2.9049 0.752365,3.6108 1.188861,0.7059 2.932036,0.1788 3.530435,-1.0677 2.235,-3.7521 3.4253,-8.0748 3.4254,-12.4421 1e-4,-4.3673 -1.2004,-8.6983 -3.4354,-12.4504 -2.1914,-3.679 -5.3268,-6.7576 -9.0707,-8.8359 -3.7439,-2.0783 -8.0118,-3.128 -12.2931,-3.0423 -0.416391,-0.003 -0.833208,0.0994 -1.2003,0.296 -0.07419,0.038 -0.146478,0.0798 -0.2165,0.125 z m -6.8054,11.3111 c -0.0822,0.0466 -0.1451,0.1156 -0.2123,0.1948 l -7.6887,9.0579 c -0.5378,0.6335 -0.9645,1.3294 -0.549,2.0491 l 8.9688,15.5343 c 0.4155,0.7197 1.2315,0.6981 2.049,0.549 l 11.6887,-2.1296 c 0.8175,-0.149 0.9645,-1.3294 0.549,-2.049 L 39.5875,997.253 c -0.3636,-0.6297 -1.261,-1.0698 -1.8367,-0.7438 z m 8.3519,-3.5076 c -0.939295,0.52248 -1.462362,1.69909 -1.220956,2.74646 0.241405,1.04737 1.226723,1.87632 2.299956,1.93494 3.5837,0.281 7.1148,2.4593 8.9708,5.5378 1.856,3.0785 2.1081,7.24 0.6749,10.5439 -0.521138,1.2078 0.103566,2.781 1.311352,3.3022 1.207785,0.5213 2.780964,-0.1033 3.302348,-1.311 2.108,-4.8595 1.7025,-10.5644 -1.0324,-15.1007 -2.7296,-4.5275 -7.5833,-7.5375 -12.8537,-7.9508 -0.499178,-0.0496 -1.012652,0.0555 -1.4522,0.2972 z m -22.1236,19.2169 c -0.7197,0.4155 -0.9645,1.3293 -0.549,2.049 l 6.3125,10.9336 c 0.4155,0.7196 1.3294,0.9645 2.049,0.549 l 3.1935,-1.8437 c 0.7197,-0.4155 0.9645,-1.3294 0.549,-2.0491 l -6.3125,-10.9335 c -0.4155,-0.7197 -1.3294,-0.9646 -2.049,-0.5491 z"
       id="path167"
       inkscape:connector-curvature="0"
       style="fill:#ffffff"
       sodipodi:nodetypes="cscssscscsssccccccccccccccccscscscscccccccscccc" />
  </g>
</svg>
