<?xml version="1.0" encoding="UTF-8" standalone="no"?>
<svg
   xmlns:dc="http://purl.org/dc/elements/1.1/"
   xmlns:cc="http://creativecommons.org/ns#"
   xmlns:rdf="http://www.w3.org/1999/02/22-rdf-syntax-ns#"
   xmlns:svg="http://www.w3.org/2000/svg"
   xmlns="http://www.w3.org/2000/svg"
   xmlns:xlink="http://www.w3.org/1999/xlink"
   xmlns:sodipodi="http://sodipodi.sourceforge.net/DTD/sodipodi-0.dtd"
   xmlns:inkscape="http://www.inkscape.org/namespaces/inkscape"
   viewBox="0 0 96 96"
   id="svg2"
   version="1.1"
   inkscape:version="0.48.4 r9939"
   width="100%"
   height="100%"
   sodipodi:docname="tv-card.svg">
  <metadata
     id="metadata133">
    <rdf:RDF>
      <cc:Work
         rdf:about="">
        <dc:format>image/svg+xml</dc:format>
        <dc:type
           rdf:resource="http://purl.org/dc/dcmitype/StillImage" />
      </cc:Work>
    </rdf:RDF>
  </metadata>
  <sodipodi:namedview
     pagecolor="#ffffff"
     bordercolor="#666666"
     borderopacity="1"
     objecttolerance="10"
     gridtolerance="10"
     guidetolerance="10"
     inkscape:pageopacity="0"
     inkscape:pageshadow="2"
     inkscape:window-width="1170"
     inkscape:window-height="751"
     id="namedview131"
     showgrid="false"
     inkscape:zoom="2.8284271"
     inkscape:cx="51.863361"
     inkscape:cy="51.710544"
     inkscape:window-x="284"
     inkscape:window-y="169"
     inkscape:window-maximized="0"
     inkscape:current-layer="svg2" />
  <defs
     id="defs4">
    <clipPath
       id="clipPath4355">
      <path
         d="m12,6h72a6,6 0 0,1 6,6v68a6,6 0 0,1 -6,6h-72a6,6 0 0,1 -6-6v-68a6,6 0 0,1 6-6"
         id="path7" />
    </clipPath>
    <filter
       id="filter3174-6">
      <feGaussianBlur
         stdDeviation="1.71"
         id="feGaussianBlur10" />
    </filter>
    <filter
       height="1.384"
       id="filter3794-9"
       width="1.384"
       x="-.192"
       y="-.192">
      <feGaussianBlur
         stdDeviation="5.28"
         id="feGaussianBlur13" />
    </filter>
    <linearGradient
       id="linearGradient4013">
      <stop
         offset="0"
         stop-color="#fff"
         id="stop16" />
      <stop
         offset="1"
         stop-color="#fff"
         stop-opacity="0"
         id="stop18" />
    </linearGradient>
    <linearGradient
       gradientUnits="userSpaceOnUse"
       id="ButtonShadow-6"
       x2="0"
       y1="92"
       y2="6.9756">
      <stop
         offset="0"
         id="stop21" />
      <stop
         offset="1"
         stop-opacity=".588"
         id="stop23" />
    </linearGradient>
    <linearGradient
       gradientUnits="userSpaceOnUse"
       id="linearGradient6349"
       x2="0"
       y1="184.063"
       y2="142.4344">
      <stop
         offset="0"
         stop-color="#fff"
         stop-opacity=".18"
         id="stop26" />
      <stop
         offset="1"
         stop-color="#fff"
         stop-opacity=".3"
         id="stop28" />
    </linearGradient>
    <linearGradient
       gradientTransform="matrix(.9297,.3684,-.3684,.9297,-479.9193,-252.3611)"
       gradientUnits="userSpaceOnUse"
       id="SVGID_8_"
       x2="0"
       y1="150.1484"
       y2="142.143">
      <stop
         offset="0"
         stop-color="#fff"
         id="stop31" />
      <stop
         offset="1"
         stop-color="#dadada"
         id="stop33" />
    </linearGradient>
    <linearGradient
       gradientTransform="matrix(0.96179,0,0,2.11089,1.83416,934.41518)"
       gradientUnits="userSpaceOnUse"
       id="linearGradient3197"
       x1="55.1439"
       x2="47.3628"
       xlink:href="#linearGradient4013"
       y1="13.1091"
       y2="33.5999" />
    <linearGradient
       gradientTransform="matrix(.9297,.3684,-.3684,.9297,-479.9193,-252.3611)"
       gradientUnits="userSpaceOnUse"
       id="linearGradient6347"
       x2="0"
       xlink:href="#SVGID_8_"
       y1="150.1484"
       y2="142.143" />
    <linearGradient
       gradientUnits="userSpaceOnUse"
       id="linearGradient9165"
       x2="0"
       xlink:href="#ButtonShadow-6"
       y1="92"
       y2="6.9756" />
    <linearGradient
       gradientUnits="userSpaceOnUse"
       id="linearGradient9247"
       x2="0"
       xlink:href="#linearGradient4013"
       y1="20.2208"
       y2="138.6612" />
    <radialGradient
       cx="63.969"
       cy="14.113"
       gradientTransform="matrix(1.5647,-9.5143e-8,6.1772e-8,1.0159,-86.213,8.1461)"
       gradientUnits="userSpaceOnUse"
       id="radialGradient4154-0-1"
       r="23.097">
      <stop
         offset="0"
         stop-color="#7847dc"
         id="stop40" />
      <stop
         offset=".4"
         stop-color="#7847dc"
         id="stop42" />
      <stop
         offset="1"
         stop-color="#341671"
         id="stop44" />
    </radialGradient>
    <radialGradient
       cx="29.0949"
       cy="31.6017"
       gradientUnits="userSpaceOnUse"
       id="radialGradient3301"
       r="7.2449">
      <stop
         offset="0"
         stop-color="#ffe375"
         id="stop47" />
      <stop
         offset="1"
         stop-color="#ffa600"
         id="stop49" />
    </radialGradient>
    <radialGradient
       cx="32"
       cy="32"
       gradientUnits="userSpaceOnUse"
       id="radialGradient3299"
       r="8">
      <stop
         offset="0"
         stop-color="#ffb800"
         id="stop52" />
      <stop
         offset="1"
         stop-color="#ffb800"
         stop-opacity="0"
         id="stop54" />
    </radialGradient>
    <radialGradient
       cx="29.0949"
       cy="31.6017"
       gradientUnits="userSpaceOnUse"
       id="radialGradient4385"
       r="7.2449">
      <stop
         offset="0"
         stop-color="#84ffff"
         id="stop57" />
      <stop
         offset="1"
         stop-color="#0ff"
         id="stop59" />
    </radialGradient>
    <radialGradient
       cx="32"
       cy="32"
       gradientUnits="userSpaceOnUse"
       id="radialGradient4383"
       r="8">
      <stop
         offset="0"
         stop-color="#0ff"
         id="stop62" />
      <stop
         offset=".5"
         stop-color="#0ff"
         stop-opacity=".271"
         id="stop64" />
      <stop
         offset="1"
         stop-color="#0ff"
         stop-opacity="0"
         id="stop66" />
    </radialGradient>
    <radialGradient
       cx="29.0949"
       cy="31.6017"
       gradientUnits="userSpaceOnUse"
       id="radialGradient4343"
       r="7.2449">
      <stop
         offset="0"
         stop-color="#f17000"
         id="stop69" />
      <stop
         offset="1"
         stop-color="#f12d00"
         id="stop71" />
    </radialGradient>
    <radialGradient
       cx="32"
       cy="32"
       gradientUnits="userSpaceOnUse"
       id="radialGradient4341"
       r="8">
      <stop
         offset="0"
         stop-color="#ff430a"
         id="stop74" />
      <stop
         offset=".5"
         stop-color="#d44f00"
         stop-opacity=".279"
         id="stop76" />
      <stop
         offset="1"
         stop-color="#d40000"
         stop-opacity="0"
         id="stop78" />
    </radialGradient>
    <radialGradient
       cx="29.0949"
       cy="31.6017"
       gradientUnits="userSpaceOnUse"
       id="radialGradient4339"
       r="7.2449">
      <stop
         offset="0"
         stop-color="#a07ada"
         id="stop81" />
      <stop
         offset="1"
         stop-color="#7137c8"
         id="stop83" />
    </radialGradient>
    <radialGradient
       cx="32"
       cy="32"
       gradientUnits="userSpaceOnUse"
       id="radialGradient4337"
       r="8">
      <stop
         offset="0"
         stop-color="#7137c8"
         id="stop86" />
      <stop
         offset="1"
         stop-color="#7137c8"
         stop-opacity="0"
         id="stop88" />
    </radialGradient>
    <radialGradient
       cx="29.0949"
       cy="31.6017"
       gradientUnits="userSpaceOnUse"
       id="radialGradient4327"
       r="7.2449">
      <stop
         offset="0"
         stop-color="#ffacee"
         id="stop91" />
      <stop
         offset="1"
         stop-color="#f5d"
         id="stop93" />
    </radialGradient>
    <radialGradient
       cx="32"
       cy="32"
       gradientUnits="userSpaceOnUse"
       id="radialGradient4325"
       r="8">
      <stop
         offset="0"
         stop-color="#f5d"
         id="stop96" />
      <stop
         offset="1"
         stop-color="#f5d"
         stop-opacity="0"
         id="stop98" />
    </radialGradient>
    <radialGradient
       cx="29.0949"
       cy="31.6017"
       gradientUnits="userSpaceOnUse"
       id="radialGradient4323"
       r="7.2449">
      <stop
         offset="0"
         stop-color="#65ff65"
         id="stop101" />
      <stop
         offset="1"
         stop-color="#47d900"
         id="stop103" />
    </radialGradient>
    <radialGradient
       cx="32"
       cy="32"
       gradientUnits="userSpaceOnUse"
       id="radialGradient4321"
       r="8">
      <stop
         offset="0"
         stop-color="#6dd500"
         id="stop106" />
      <stop
         offset=".5"
         stop-color="#67df00"
         stop-opacity=".364"
         id="stop108" />
      <stop
         offset="1"
         stop-color="#62e900"
         stop-opacity="0"
         id="stop110" />
    </radialGradient>
    <radialGradient
       cx="28.2041"
       cy="-.322"
       gradientTransform="matrix(4.67845,5.1067271e-8,-4.5897343e-8,4.20482,-84.44966,976.03941)"
       gradientUnits="userSpaceOnUse"
       id="radialGradient3206"
       r="23.097"
       xlink:href="#radialGradient4154-0-1" />
    <linearGradient
       inkscape:collect="always"
       xlink:href="#linearGradient4013"
       id="linearGradient3063"
       gradientUnits="userSpaceOnUse"
       gradientTransform="matrix(0.96179,0,0,2.11089,1.83416,-21.94702)"
       x1="55.1439"
       y1="13.1091"
       x2="47.3628"
       y2="33.5999" />
    <radialGradient
       inkscape:collect="always"
       xlink:href="#radialGradient4154-0-1"
       id="radialGradient3066"
       gradientUnits="userSpaceOnUse"
       gradientTransform="matrix(4.67845,5.1067271e-8,-4.5897343e-8,4.20482,-84.44966,19.67721)"
       cx="28.2041"
       cy="-.322"
       r="23.097" />
  </defs>
  <path
     inkscape:connector-curvature="0"
     style="fill:url(#radialGradient3066)"
     id="path115"
     d="m 13.0505,7.2283 h 69.8991 a 5.8249,5.8249 0 0 1 5.8249,5.8249 v 69.9216 a 5.8249,5.8249 0 0 1 -5.8249,5.8249 H 13.0505 A 5.8249,5.8249 0 0 1 7.2256,82.9748 V 13.0532 a 5.8249,5.8249 0 0 1 5.8249,-5.8249" />
  <path
     inkscape:connector-curvature="0"
     style="opacity:0.34800002;fill:url(#linearGradient3063)"
     id="path117"
     d="m 16.8899,7.2003 71.789,66.327 0.0854,-60.2405 C 88.7689,10.0763 86.3678,7.245 83.1708,7.243 z" />
  <text
     style="font-size:20px;letter-spacing:0;word-spacing:0;font-family:Justus"
     id="text119"
     y="62.765179"
     xml:space="preserve"
     x="265.15491"
     word-spacing="0"
     letter-spacing="0"
     font-size="20"><tspan
       id="tspan121"
       y="62.765179"
       x="265.15491" /></text>
  <text
     style="font-size:20px;letter-spacing:0;word-spacing:0;font-family:Justus"
     id="text123"
     y="-463.98962"
     xml:space="preserve"
     x="47.3508"
     word-spacing="0"
     letter-spacing="0"
     font-size="20"><tspan
       id="tspan125"
       y="-463.98962"
       x="47.3508" /></text>
  <path
     id="path3864"
     d="m 23.5,31.4375 0,1.96875 3.625,0 0,17.1875 -2.65625,0 c -0.73198,0 -1.3125,0.580521 -1.3125,1.3125 l 0,0.8125 c 0,0.731979 0.58052,1.3125 1.3125,1.3125 l 2.65625,0 0,12.5625 2.3125,0 0,-7.03125 4.59375,0 0.125,3.25 7.15625,0 0.15625,-3.25 1.65625,0 0,3.25 27.25,0 0,-3.3125 1.65625,-0.15625 0,-23.9375 -42.59375,0 0,-3.96875 -0.15625,0 -5.78125,0 z m 14.625,7.1875 19.75,0 c 1.239458,0 2.25,1.010542 2.25,2.25 l 0,13.625 c 0,1.239458 -1.010542,2.21875 -2.25,2.21875 l -0.125,0 C 57.06357,57.094678 56.412225,57.375 56,57.375 l -16,0 c -0.41148,0 -1.064792,-0.281357 -1.75,-0.65625 l -0.125,0 c -1.239458,0 -2.25,-0.979292 -2.25,-2.21875 l 0,-13.625 c 0,-1.239458 1.010542,-2.25 2.25,-2.25 z m 0.4375,1.9375 c -0.61973,0 -1.125,0.50527 -1.125,1.125 l 0,12.1875 c 0,0.61973 0.50527,1.125 1.125,1.125 l 14.8125,0 c 0.61973,0 1.125,-0.50527 1.125,-1.125 l 0,-12.1875 c 0,-0.61973 -0.50527,-1.125 -1.125,-1.125 l -14.8125,0 z m 18.5625,1.71875 c -0.449316,0 -0.8125,0.363184 -0.8125,0.8125 0,0.449316 0.363184,0.8125 0.8125,0.8125 0.449316,0 0.8125,-0.363184 0.8125,-0.8125 0,-0.449316 -0.363184,-0.8125 -0.8125,-0.8125 z m 0.125,3.375 c -0.561646,0 -1,0.438354 -1,1 0,0.561646 0.438354,1.03125 1,1.03125 0.561646,0 1,-0.469604 1,-1.03125 0,-0.561646 -0.438354,-1 -1,-1 z"
     style="opacity:0.41100003;color:#000000;fill:none;stroke:#3c0065;stroke-width:2.4000001;stroke-linecap:butt;stroke-linejoin:miter;stroke-miterlimit:4;stroke-opacity:1;stroke-dasharray:none;stroke-dashoffset:0;marker:none;visibility:visible;display:inline;overflow:visible;enable-background:accumulate"
     inkscape:connector-curvature="0" />
  <path
     style="color:#000000;fill:#ffffff;fill-opacity:1;fill-rule:nonzero;stroke:none;stroke-width:2.4000001;marker:none;visibility:visible;display:inline;overflow:visible;enable-background:accumulate"
     d="M 23.5 31.4375 L 23.5 33.40625 L 27.125 33.40625 L 27.125 50.59375 L 24.46875 50.59375 C 23.73677 50.59375 23.15625 51.174271 23.15625 51.90625 L 23.15625 52.71875 C 23.15625 53.450729 23.73677 54.03125 24.46875 54.03125 L 27.125 54.03125 L 27.125 66.59375 L 29.4375 66.59375 L 29.4375 59.5625 L 34.03125 59.5625 L 34.15625 62.8125 L 41.3125 62.8125 L 41.46875 59.5625 L 43.125 59.5625 L 43.125 62.8125 L 70.375 62.8125 L 70.375 59.5 L 72.03125 59.34375 L 72.03125 35.40625 L 29.4375 35.40625 L 29.4375 31.4375 L 29.28125 31.4375 L 23.5 31.4375 z M 38.125 38.625 L 57.875 38.625 C 59.114458 38.625 60.125 39.635542 60.125 40.875 L 60.125 54.5 C 60.125 55.739458 59.114458 56.71875 57.875 56.71875 L 57.75 56.71875 C 57.06357 57.094678 56.412225 57.375 56 57.375 L 40 57.375 C 39.58852 57.375 38.935208 57.093643 38.25 56.71875 L 38.125 56.71875 C 36.885542 56.71875 35.875 55.739458 35.875 54.5 L 35.875 40.875 C 35.875 39.635542 36.885542 38.625 38.125 38.625 z M 38.5625 40.5625 C 37.94277 40.5625 37.4375 41.06777 37.4375 41.6875 L 37.4375 53.875 C 37.4375 54.49473 37.94277 55 38.5625 55 L 53.375 55 C 53.99473 55 54.5 54.49473 54.5 53.875 L 54.5 41.6875 C 54.5 41.06777 53.99473 40.5625 53.375 40.5625 L 38.5625 40.5625 z M 57.125 42.28125 C 56.675684 42.28125 56.3125 42.644434 56.3125 43.09375 C 56.3125 43.543066 56.675684 43.90625 57.125 43.90625 C 57.574316 43.90625 57.9375 43.543066 57.9375 43.09375 C 57.9375 42.644434 57.574316 42.28125 57.125 42.28125 z M 57.25 45.65625 C 56.688354 45.65625 56.25 46.094604 56.25 46.65625 C 56.25 47.217896 56.688354 47.6875 57.25 47.6875 C 57.811646 47.6875 58.25 47.217896 58.25 46.65625 C 58.25 46.094604 57.811646 45.65625 57.25 45.65625 z "
     id="rect3068" />
</svg>
