<?xml version="1.0" encoding="UTF-8" standalone="no"?>
<svg
   xmlns:dc="http://purl.org/dc/elements/1.1/"
   xmlns:cc="http://creativecommons.org/ns#"
   xmlns:rdf="http://www.w3.org/1999/02/22-rdf-syntax-ns#"
   xmlns:svg="http://www.w3.org/2000/svg"
   xmlns="http://www.w3.org/2000/svg"
   xmlns:xlink="http://www.w3.org/1999/xlink"
   xmlns:sodipodi="http://sodipodi.sourceforge.net/DTD/sodipodi-0.dtd"
   xmlns:inkscape="http://www.inkscape.org/namespaces/inkscape"
   viewBox="0 0 96 96"
   id="svg2"
   version="1.1"
   inkscape:version="0.48.4 r9939"
   width="100%"
   height="100%"
   sodipodi:docname="users-accounts.svg">
  <metadata
     id="metadata137">
    <rdf:RDF>
      <cc:Work
         rdf:about="">
        <dc:format>image/svg+xml</dc:format>
        <dc:type
           rdf:resource="http://purl.org/dc/dcmitype/StillImage" />
      </cc:Work>
    </rdf:RDF>
  </metadata>
  <sodipodi:namedview
     pagecolor="#ffffff"
     bordercolor="#666666"
     borderopacity="1"
     objecttolerance="10"
     gridtolerance="10"
     guidetolerance="10"
     inkscape:pageopacity="0"
     inkscape:pageshadow="2"
     inkscape:window-width="640"
     inkscape:window-height="480"
     id="namedview135"
     showgrid="false"
     inkscape:zoom="2.4583333"
     inkscape:cx="48"
     inkscape:cy="48"
     inkscape:window-x="65"
     inkscape:window-y="24"
     inkscape:window-maximized="0"
     inkscape:current-layer="svg2" />
  <defs
     id="defs4">
    <clipPath
       id="clipPath4355">
      <path
         d="m12,6h72a6,6 0 0,1 6,6v68a6,6 0 0,1 -6,6h-72a6,6 0 0,1 -6-6v-68a6,6 0 0,1 6-6"
         id="path7" />
    </clipPath>
    <filter
       id="filter3174-6">
      <feGaussianBlur
         stdDeviation="1.71"
         id="feGaussianBlur10" />
    </filter>
    <filter
       height="1.384"
       id="filter3794-9"
       width="1.384"
       x="-.192"
       y="-.192">
      <feGaussianBlur
         stdDeviation="5.28"
         id="feGaussianBlur13" />
    </filter>
    <linearGradient
       id="linearGradient4013">
      <stop
         offset="0"
         stop-color="#fff"
         id="stop16" />
      <stop
         offset="1"
         stop-color="#fff"
         stop-opacity="0"
         id="stop18" />
    </linearGradient>
    <linearGradient
       gradientUnits="userSpaceOnUse"
       id="ButtonShadow-6"
       x2="0"
       y1="92"
       y2="6.9756">
      <stop
         offset="0"
         id="stop21" />
      <stop
         offset="1"
         stop-opacity=".588"
         id="stop23" />
    </linearGradient>
    <linearGradient
       gradientUnits="userSpaceOnUse"
       id="linearGradient6349"
       x2="0"
       y1="184.063"
       y2="142.4344">
      <stop
         offset="0"
         stop-color="#fff"
         stop-opacity=".18"
         id="stop26" />
      <stop
         offset="1"
         stop-color="#fff"
         stop-opacity=".3"
         id="stop28" />
    </linearGradient>
    <linearGradient
       gradientTransform="matrix(.9297,.3684,-.3684,.9297,-479.9193,-252.3611)"
       gradientUnits="userSpaceOnUse"
       id="SVGID_8_"
       x2="0"
       y1="150.1484"
       y2="142.143">
      <stop
         offset="0"
         stop-color="#fff"
         id="stop31" />
      <stop
         offset="1"
         stop-color="#dadada"
         id="stop33" />
    </linearGradient>
    <linearGradient
       gradientTransform="matrix(0.96179,0,0,2.11089,1.83416,934.41518)"
       gradientUnits="userSpaceOnUse"
       id="linearGradient3197"
       x1="55.1439"
       x2="47.3628"
       xlink:href="#linearGradient4013"
       y1="13.1091"
       y2="33.5999" />
    <linearGradient
       gradientTransform="matrix(.9297,.3684,-.3684,.9297,-479.9193,-252.3611)"
       gradientUnits="userSpaceOnUse"
       id="linearGradient6347"
       x2="0"
       xlink:href="#SVGID_8_"
       y1="150.1484"
       y2="142.143" />
    <linearGradient
       gradientUnits="userSpaceOnUse"
       id="linearGradient9165"
       x2="0"
       xlink:href="#ButtonShadow-6"
       y1="92"
       y2="6.9756" />
    <linearGradient
       gradientUnits="userSpaceOnUse"
       id="linearGradient9247"
       x2="0"
       xlink:href="#linearGradient4013"
       y1="20.2208"
       y2="138.6612" />
    <radialGradient
       cx="63.969"
       cy="14.113"
       gradientTransform="matrix(1.5647,-9.5143e-8,6.1772e-8,1.0159,-86.213,8.1461)"
       gradientUnits="userSpaceOnUse"
       id="radialGradient16213"
       r="23.097">
      <stop
         offset="0"
         stop-color="#736b00"
         id="stop40" />
      <stop
         offset=".4"
         stop-color="#736b00"
         id="stop42" />
      <stop
         offset="1"
         stop-color="#352041"
         id="stop44" />
    </radialGradient>
    <radialGradient
       cx="29.0949"
       cy="31.6017"
       gradientUnits="userSpaceOnUse"
       id="radialGradient3301"
       r="7.2449">
      <stop
         offset="0"
         stop-color="#ffe375"
         id="stop47" />
      <stop
         offset="1"
         stop-color="#ffa600"
         id="stop49" />
    </radialGradient>
    <radialGradient
       cx="32"
       cy="32"
       gradientUnits="userSpaceOnUse"
       id="radialGradient3299"
       r="8">
      <stop
         offset="0"
         stop-color="#ffb800"
         id="stop52" />
      <stop
         offset="1"
         stop-color="#ffb800"
         stop-opacity="0"
         id="stop54" />
    </radialGradient>
    <radialGradient
       cx="29.0949"
       cy="31.6017"
       gradientUnits="userSpaceOnUse"
       id="radialGradient4385"
       r="7.2449">
      <stop
         offset="0"
         stop-color="#84ffff"
         id="stop57" />
      <stop
         offset="1"
         stop-color="#0ff"
         id="stop59" />
    </radialGradient>
    <radialGradient
       cx="32"
       cy="32"
       gradientUnits="userSpaceOnUse"
       id="radialGradient4383"
       r="8">
      <stop
         offset="0"
         stop-color="#0ff"
         id="stop62" />
      <stop
         offset=".5"
         stop-color="#0ff"
         stop-opacity=".271"
         id="stop64" />
      <stop
         offset="1"
         stop-color="#0ff"
         stop-opacity="0"
         id="stop66" />
    </radialGradient>
    <radialGradient
       cx="29.0949"
       cy="31.6017"
       gradientUnits="userSpaceOnUse"
       id="radialGradient4343"
       r="7.2449">
      <stop
         offset="0"
         stop-color="#f17000"
         id="stop69" />
      <stop
         offset="1"
         stop-color="#f12d00"
         id="stop71" />
    </radialGradient>
    <radialGradient
       cx="32"
       cy="32"
       gradientUnits="userSpaceOnUse"
       id="radialGradient4341"
       r="8">
      <stop
         offset="0"
         stop-color="#ff430a"
         id="stop74" />
      <stop
         offset=".5"
         stop-color="#d44f00"
         stop-opacity=".279"
         id="stop76" />
      <stop
         offset="1"
         stop-color="#d40000"
         stop-opacity="0"
         id="stop78" />
    </radialGradient>
    <radialGradient
       cx="29.0949"
       cy="31.6017"
       gradientUnits="userSpaceOnUse"
       id="radialGradient4339"
       r="7.2449">
      <stop
         offset="0"
         stop-color="#a07ada"
         id="stop81" />
      <stop
         offset="1"
         stop-color="#7137c8"
         id="stop83" />
    </radialGradient>
    <radialGradient
       cx="32"
       cy="32"
       gradientUnits="userSpaceOnUse"
       id="radialGradient4337"
       r="8">
      <stop
         offset="0"
         stop-color="#7137c8"
         id="stop86" />
      <stop
         offset="1"
         stop-color="#7137c8"
         stop-opacity="0"
         id="stop88" />
    </radialGradient>
    <radialGradient
       cx="29.0949"
       cy="31.6017"
       gradientUnits="userSpaceOnUse"
       id="radialGradient4327"
       r="7.2449">
      <stop
         offset="0"
         stop-color="#ffacee"
         id="stop91" />
      <stop
         offset="1"
         stop-color="#f5d"
         id="stop93" />
    </radialGradient>
    <radialGradient
       cx="32"
       cy="32"
       gradientUnits="userSpaceOnUse"
       id="radialGradient4325"
       r="8">
      <stop
         offset="0"
         stop-color="#f5d"
         id="stop96" />
      <stop
         offset="1"
         stop-color="#f5d"
         stop-opacity="0"
         id="stop98" />
    </radialGradient>
    <radialGradient
       cx="29.0949"
       cy="31.6017"
       gradientUnits="userSpaceOnUse"
       id="radialGradient4323"
       r="7.2449">
      <stop
         offset="0"
         stop-color="#65ff65"
         id="stop101" />
      <stop
         offset="1"
         stop-color="#47d900"
         id="stop103" />
    </radialGradient>
    <radialGradient
       cx="32"
       cy="32"
       gradientUnits="userSpaceOnUse"
       id="radialGradient4321"
       r="8">
      <stop
         offset="0"
         stop-color="#6dd500"
         id="stop106" />
      <stop
         offset=".5"
         stop-color="#67df00"
         stop-opacity=".364"
         id="stop108" />
      <stop
         offset="1"
         stop-color="#62e900"
         stop-opacity="0"
         id="stop110" />
    </radialGradient>
    <radialGradient
       cx="28.2041"
       cy="-.322"
       gradientTransform="matrix(4.67845,5.1067271e-8,-4.5897343e-8,4.20482,-84.44966,976.02541)"
       gradientUnits="userSpaceOnUse"
       id="radialGradient3206"
       r="23.097"
       xlink:href="#radialGradient16213" />
  </defs>
  <g
     transform="translate(0,-956.3622)"
     id="g113">
    <path
       d="m 13.0505,963.5765 h 69.8991 a 5.8249,5.8249 0 0 1 5.8249,5.8249 v 69.9216 a 5.8249,5.8249 0 0 1 -5.8249,5.8249 H 13.0505 a 5.8249,5.8249 0 0 1 -5.8249,-5.8249 v -69.9216 a 5.8249,5.8249 0 0 1 5.8249,-5.8249"
       id="path115"
       style="fill:url(#radialGradient3206)"
       inkscape:connector-curvature="0" />
    <path
       d="m 16.8899,963.5625 71.789,66.327 0.0854,-60.2405 c 0.0046,-3.2105 -2.3965,-6.0418 -5.5935,-6.0438 z"
       id="path117"
       style="opacity:0.34800002;fill:url(#linearGradient3197)"
       inkscape:connector-curvature="0" />
    <text
       font-size="20"
       letter-spacing="0"
       word-spacing="0"
       x="265.15491"
       xml:space="preserve"
       y="1019.1274"
       id="text119"
       style="font-size:20px;letter-spacing:0;word-spacing:0;font-family:Justus"><tspan
         x="265.15491"
         y="1019.1274"
         id="tspan121" /></text>
    <text
       font-size="20"
       letter-spacing="0"
       word-spacing="0"
       x="47.3508"
       xml:space="preserve"
       y="492.37259"
       id="text123"
       style="font-size:20px;letter-spacing:0;word-spacing:0;font-family:Justus"><tspan
         x="47.3508"
         y="492.37259"
         id="tspan125" /></text>
    <text
       font-size="20"
       letter-spacing="0"
       word-spacing="0"
       x="95.509499"
       xml:space="preserve"
       y="1185.3373"
       id="text127"
       style="font-size:20px;letter-spacing:0;word-spacing:0;font-family:Justus"><tspan
         x="95.509499"
         y="1185.3373"
         id="tspan129" /></text>
    <path
       d="m 53.4062,986.6434 c -3.764,0 -6.8125,2.8308 -6.8125,6.3438 0.0295,1.3001 0.138,2.8586 0.9062,6.375 0.6999,2.2198 2.4208,4.3696 2.125,6.3438 -2.645,2.1944 -9.4164,3.197 -9.4062,5.4687 l -0.9062,6.8125 c 0,2.2584 6.3149,4.0938 14.0938,4.0938 7.7789,0 14.0938,-1.8354 14.0938,-4.0938 l -0.9062,-6.8125 c -0.0108,-1.9443 -6.825,-3.197 -9.4375,-5.4687 0.0807,-2.4265 1.4719,-4.014 2.1562,-6.3438 0.8645,-3.6545 0.8599,-5.0119 0.9062,-6.375 0,-3.513 -3.0485,-6.3438 -6.8125,-6.3438 z m -14.7188,3.125 c -2.6174,0.2467 -4.6562,2.3039 -4.6562,4.8125 0.0225,0.9902 0.1023,2.1966 0.6875,4.875 0.5331,1.6907 1.8503,3.3088 1.625,4.8125 -2.0146,1.6715 -7.164,2.4572 -7.1562,4.1875 l -0.6875,5.1875 c 0,1.5457 3.8824,2.7863 8.9688,3.0312 l 0.75,-5.5 0.0312,-0.2812 h 0.0625 c 0.1337,-1.3756 1.0588,-2.3439 1.9062,-2.9063 0.9137,-0.6063 1.9201,-1.0181 2.9688,-1.4375 0.6337,-0.2535 1.1918,-0.472 1.75,-0.7187 -1.0951,-0.4627 -2.1625,-0.9701 -2.8438,-1.5625 0.0615,-1.8482 1.1038,-3.038 1.625,-4.8125 0.6585,-2.7838 0.6522,-3.8368 0.6875,-4.875 0,-2.6758 -2.3205,-4.8125 -5.1875,-4.8125 -0.1792,0 -0.3568,-0.0164 -0.5312,0 z"
       id="path131"
       inkscape:connector-curvature="0"
       style="opacity:0.41100003;fill:#3a2222;stroke:#3a2222;stroke-width:2.4000001" />
    <path
       d="m 53.4062,986.6434 c -3.764,0 -6.8125,2.8308 -6.8125,6.3438 0.0295,1.3001 0.138,2.8586 0.9062,6.375 0.6999,2.2198 2.4208,4.3696 2.125,6.3438 -2.645,2.1944 -9.4164,3.197 -9.4062,5.4687 l -0.9062,6.8125 c 0,2.2584 6.3149,4.0938 14.0938,4.0938 7.7789,0 14.0938,-1.8354 14.0938,-4.0938 l -0.9062,-6.8125 c -0.0108,-1.9443 -6.825,-3.197 -9.4375,-5.4687 0.0807,-2.4265 1.4719,-4.014 2.1562,-6.3438 0.8645,-3.6545 0.8599,-5.0119 0.9062,-6.375 0,-3.513 -3.0485,-6.3438 -6.8125,-6.3438 z m -14.7188,3.125 c -2.6174,0.2467 -4.6562,2.3039 -4.6562,4.8125 0.0225,0.9902 0.1023,2.1966 0.6875,4.875 0.5331,1.6907 1.8503,3.3088 1.625,4.8125 -2.0146,1.6715 -7.164,2.4572 -7.1562,4.1875 l -0.6875,5.1875 c 0,1.5457 3.8824,2.7863 8.9688,3.0312 l 0.75,-5.5 0.0312,-0.2812 h 0.0625 c 0.1337,-1.3756 1.0588,-2.3439 1.9062,-2.9063 0.9137,-0.6063 1.9201,-1.0181 2.9688,-1.4375 0.6337,-0.2535 1.1918,-0.472 1.75,-0.7187 -1.0951,-0.4627 -2.1625,-0.9701 -2.8438,-1.5625 0.0615,-1.8482 1.1038,-3.038 1.625,-4.8125 0.6585,-2.7838 0.6522,-3.8368 0.6875,-4.875 0,-2.6758 -2.3205,-4.8125 -5.1875,-4.8125 -0.1792,0 -0.3568,-0.0164 -0.5312,0 z"
       id="path133"
       inkscape:connector-curvature="0"
       style="fill:#ffffff" />
  </g>
</svg>
